ISO-10303-21;
HEADER;
FILE_DESCRIPTION (( 'STEP AP203' ),
    '1' );
FILE_NAME ('固定码.STEP',
    '2026-09-04T06:11:57',
    ( 'YSGS' ),
    ( 'HP' ),
    'SwSTEP 2.0',
    'SolidWorks 2021',
    '' );
FILE_SCHEMA (( 'CONFIG_CONTROL_DESIGN' ));
ENDSEC;

DATA;
#1 = CARTESIAN_POINT ( 'NONE',  ( 19.99999999999999289, 7.500000000000003553, 15.50000000000000000 ) ) ;
#2 = DIRECTION ( 'NONE',  ( 0.000000000000000000, 0.000000000000000000, -1.000000000000000000 ) ) ;
#3 = EDGE_CURVE ( 'NONE', #927, #179, #436, .T. ) ;
#4 = VECTOR ( 'NONE', #770, 1000.000000000000000 ) ;
#5 = ADVANCED_FACE ( 'NONE', ( #6 ), #94, .F. ) ;
#6 = FACE_OUTER_BOUND ( 'NONE', #508, .T. ) ;
#7 = AXIS2_PLACEMENT_3D ( 'NONE', #448, #293, #366 ) ;
#8 = VECTOR ( 'NONE', #123, 1000.000000000000000 ) ;
#9 = LINE ( 'NONE', #765, #592 ) ;
#10 = ORIENTED_EDGE ( 'NONE', *, *, #302, .F. ) ;
#11 = APPROVAL_ROLE ( '' ) ;
#12 = ORIENTED_EDGE ( 'NONE', *, *, #450, .T. ) ;
#13 = LINE ( 'NONE', #101, #440 ) ;
#14 = CIRCLE ( 'NONE', #597, 7.500000000000000000 ) ;
#15 = CARTESIAN_POINT ( 'NONE',  ( 64.50000000000000000, 7.500000000000004441, 87.50000000000000000 ) ) ;
#16 = CC_DESIGN_PERSON_AND_ORGANIZATION_ASSIGNMENT ( #562, #941, ( #898 ) ) ;
#17 = DIRECTION ( 'NONE',  ( -0.000000000000000000, -0.000000000000000000, -1.000000000000000000 ) ) ;
#18 = ORIENTED_EDGE ( 'NONE', *, *, #391, .T. ) ;
#19 = DIRECTION ( 'NONE',  ( -0.000000000000000000, -0.000000000000000000, -1.000000000000000000 ) ) ;
#20 = ORIENTED_EDGE ( 'NONE', *, *, #3, .T. ) ;
#21 = EDGE_LOOP ( 'NONE', ( #616, #753, #872, #964 ) ) ;
#22 = EDGE_CURVE ( 'NONE', #479, #41, #370, .T. ) ;
#23 = LINE ( 'NONE', #839, #846 ) ;
#24 = FACE_OUTER_BOUND ( 'NONE', #406, .T. ) ;
#25 = ORIENTED_EDGE ( 'NONE', *, *, #130, .F. ) ;
#26 = FACE_OUTER_BOUND ( 'NONE', #512, .T. ) ;
#27 = LOCAL_TIME ( 14, 11, 57.00000000000000000, #533 ) ;
#28 = DATE_TIME_ROLE ( 'classification_date' ) ;
#29 = PLANE ( 'NONE',  #888 ) ;
#30 = CIRCLE ( 'NONE', #358, 4.500000000000012434 ) ;
#31 = CARTESIAN_POINT ( 'NONE',  ( 60.00000000000000711, -7.499999999999996447, -7.499999999999996447 ) ) ;
#32 = ORIENTED_EDGE ( 'NONE', *, *, #165, .F. ) ;
#33 = DIRECTION ( 'NONE',  ( 0.000000000000000000, 0.000000000000000000, 1.000000000000000000 ) ) ;
#34 = ADVANCED_FACE ( 'NONE', ( #374 ), #532, .F. ) ;
#35 = COORDINATED_UNIVERSAL_TIME_OFFSET ( 8, 0, .AHEAD. ) ;
#36 = CARTESIAN_POINT ( 'NONE',  ( 20.00000000000000355, -22.49999999999999645, -7.500000000000000000 ) ) ;
#37 = EDGE_CURVE ( 'NONE', #170, #379, #30, .T. ) ;
#38 = CARTESIAN_POINT ( 'NONE',  ( 80.00000000000000000, -22.49999999999999645, 22.50000000000000000 ) ) ;
#39 = DIRECTION ( 'NONE',  ( 0.000000000000000000, 1.000000000000000000, 0.000000000000000000 ) ) ;
#40 = FACE_OUTER_BOUND ( 'NONE', #350, .T. ) ;
#41 = VERTEX_POINT ( 'NONE', #230 ) ;
#42 = DATE_TIME_ROLE ( 'creation_date' ) ;
#43 = AXIS2_PLACEMENT_3D ( 'NONE', #282, #739, #66 ) ;
#44 = FACE_OUTER_BOUND ( 'NONE', #378, .T. ) ;
#45 = ORIENTED_EDGE ( 'NONE', *, *, #589, .T. ) ;
#46 = PLANE ( 'NONE',  #67 ) ;
#47 = DIRECTION ( 'NONE',  ( 0.000000000000000000, 0.000000000000000000, -1.000000000000000000 ) ) ;
#48 = VECTOR ( 'NONE', #550, 1000.000000000000114 ) ;
#49 = CARTESIAN_POINT ( 'NONE',  ( 20.00000000000000355, -22.50099999999999767, -7.500000000000000000 ) ) ;
#50 = EDGE_CURVE ( 'NONE', #446, #791, #568, .T. ) ;
#51 = DIRECTION ( 'NONE',  ( 0.000000000000000000, 0.000000000000000000, 1.000000000000000000 ) ) ;
#52 = DIRECTION ( 'NONE',  ( 0.000000000000000000, 0.000000000000000000, 1.000000000000000000 ) ) ;
#53 = CIRCLE ( 'NONE', #344, 4.500000000000012434 ) ;
#54 = VECTOR ( 'NONE', #606, 1000.000000000000000 ) ;
#55 = LINE ( 'NONE', #349, #354 ) ;
#56 = EDGE_LOOP ( 'NONE', ( #368, #951 ) ) ;
#57 = VECTOR ( 'NONE', #746, 1000.000000000000000 ) ;
#58 = FACE_BOUND ( 'NONE', #75, .T. ) ;
#59 = EDGE_LOOP ( 'NONE', ( #672, #252, #227, #86 ) ) ;
#60 = ORIENTED_EDGE ( 'NONE', *, *, #625, .T. ) ;
#61 = DIRECTION ( 'NONE',  ( -1.000000000000000000, 0.000000000000000000, 0.000000000000000000 ) ) ;
#62 = DIRECTION ( 'NONE',  ( -0.000000000000000000, 0.000000000000000000, 1.000000000000000000 ) ) ;
#63 = AXIS2_PLACEMENT_3D ( 'NONE', #274, #963, #128 ) ;
#64 = LOCAL_TIME ( 14, 11, 57.00000000000000000, #127 ) ;
#65 = DIRECTION ( 'NONE',  ( -0.000000000000000000, 1.000000000000000000, -0.000000000000000000 ) ) ;
#66 = DIRECTION ( 'NONE',  ( -1.000000000000000000, 0.000000000000000000, -0.000000000000000000 ) ) ;
#67 = AXIS2_PLACEMENT_3D ( 'NONE', #390, #703, #792 ) ;
#68 = EDGE_CURVE ( 'NONE', #884, #493, #689, .T. ) ;
#69 = EDGE_CURVE ( 'NONE', #582, #493, #704, .T. ) ;
#70 = ORIENTED_EDGE ( 'NONE', *, *, #228, .T. ) ;
#71 = CARTESIAN_POINT ( 'NONE',  ( 60.00000000000000711, -22.50099999999999767, -7.499999999999996447 ) ) ;
#72 = DIRECTION ( 'NONE',  ( -0.000000000000000000, -0.000000000000000000, -1.000000000000000000 ) ) ;
#73 = DIRECTION ( 'NONE',  ( -1.000000000000000000, 0.000000000000000000, 0.000000000000000000 ) ) ;
#74 = DIRECTION ( 'NONE',  ( 0.000000000000000000, 0.000000000000000000, -1.000000000000000000 ) ) ;
#75 = EDGE_LOOP ( 'NONE', ( #576, #651 ) ) ;
#76 = EDGE_CURVE ( 'NONE', #493, #582, #823, .T. ) ;
#77 = CARTESIAN_POINT ( 'NONE',  ( 60.00000000000000711, -15.49999999999999645, -7.499999999999996447 ) ) ;
#78 = CARTESIAN_POINT ( 'NONE',  ( 60.00000000000000711, -22.49999999999999645, -2.999999999999983569 ) ) ;
#79 = APPROVAL ( #461, '未指定' ) ;
#80 = ORIENTED_EDGE ( 'NONE', *, *, #943, .F. ) ;
#81 = VECTOR ( 'NONE', #707, 1000.000000000000000 ) ;
#82 = CARTESIAN_POINT ( 'NONE',  ( 20.00000000000000355, -7.499999999999996447, -7.500000000000000000 ) ) ;
#83 = VERTEX_POINT ( 'NONE', #155 ) ;
#84 = DIRECTION ( 'NONE',  ( 0.000000000000000000, 0.000000000000000000, 1.000000000000000000 ) ) ;
#85 = AXIS2_PLACEMENT_3D ( 'NONE', #717, #940, #119 ) ;
#86 = ORIENTED_EDGE ( 'NONE', *, *, #452, .T. ) ;
#87 = VERTEX_POINT ( 'NONE', #157 ) ;
#88 = APPLICATION_CONTEXT ( 'configuration controlled 3d designs of mechanical parts and assemblies' ) ;
#89 = FACE_OUTER_BOUND ( 'NONE', #485, .T. ) ;
#90 = ORIENTED_EDGE ( 'NONE', *, *, #975, .T. ) ;
#91 = DIRECTION ( 'NONE',  ( -1.000000000000000000, 0.000000000000000000, 0.000000000000000000 ) ) ;
#92 = EDGE_CURVE ( 'NONE', #520, #223, #531, .T. ) ;
#93 = VERTEX_POINT ( 'NONE', #558 ) ;
#94 = CYLINDRICAL_SURFACE ( 'NONE', #865, 7.499999999999999112 ) ;
#95 = CYLINDRICAL_SURFACE ( 'NONE', #889, 7.499999999999999112 ) ;
#96 = DIRECTION ( 'NONE',  ( -0.000000000000000000, -1.000000000000000000, -0.000000000000000000 ) ) ;
#97 = ORIENTED_EDGE ( 'NONE', *, *, #278, .F. ) ;
#98 = UNCERTAINTY_MEASURE_WITH_UNIT (LENGTH_MEASURE( 1.000000000000000082E-05 ), #962, 'distance_accuracy_value', 'NONE');
#99 = LINE ( 'NONE', #565, #787 ) ;
#100 = CARTESIAN_POINT ( 'NONE',  ( 60.00000000000000000, 7.500000000000003553, 22.49999999999999289 ) ) ;
#101 = CARTESIAN_POINT ( 'NONE',  ( 20.00000000000000355, -22.50099999999999767, -2.999999999999998224 ) ) ;
#102 = VERTEX_POINT ( 'NONE', #413 ) ;
#103 = EDGE_CURVE ( 'NONE', #403, #520, #99, .T. ) ;
#104 = CARTESIAN_POINT ( 'NONE',  ( 60.00000000000000711, -22.49999999999999645, -7.499999999999996447 ) ) ;
#105 = LOCAL_TIME ( 14, 11, 57.00000000000000000, #453 ) ;
#106 = ADVANCED_FACE ( 'NONE', ( #494 ), #46, .F. ) ;
#107 = PERSON_AND_ORGANIZATION_ROLE ( 'creator' ) ;
#108 = ADVANCED_FACE ( 'NONE', ( #934 ), #709, .F. ) ;
#109 = FACE_OUTER_BOUND ( 'NONE', #211, .T. ) ;
#110 = VECTOR ( 'NONE', #2, 1000.000000000000000 ) ;
#111 = DIRECTION ( 'NONE',  ( 0.000000000000000000, 0.000000000000000000, -1.000000000000000000 ) ) ;
#112 = ORIENTED_EDGE ( 'NONE', *, *, #367, .T. ) ;
#113 = CARTESIAN_POINT ( 'NONE',  ( 67.50000000000000000, 7.500000000000004441, 7.500000000000000000 ) ) ;
#114 = ORIENTED_EDGE ( 'NONE', *, *, #294, .T. ) ;
#115 = LINE ( 'NONE', #135, #411 ) ;
#116 = ORIENTED_EDGE ( 'NONE', *, *, #181, .T. ) ;
#117 = DATE_AND_TIME ( #328, #618 ) ;
#118 = CARTESIAN_POINT ( 'NONE',  ( 60.00000000000000711, -22.49999999999999645, -12.00000000000000888 ) ) ;
#119 = DIRECTION ( 'NONE',  ( 0.000000000000000000, 0.000000000000000000, 1.000000000000000000 ) ) ;
#120 = VERTEX_POINT ( 'NONE', #871 ) ;
#121 = DIRECTION ( 'NONE',  ( 0.000000000000000000, 1.000000000000000000, 0.000000000000000000 ) ) ;
#122 = DIRECTION ( 'NONE',  ( -0.000000000000000000, -0.000000000000000000, -1.000000000000000000 ) ) ;
#123 = DIRECTION ( 'NONE',  ( -1.000000000000000000, -0.000000000000000000, -0.000000000000000000 ) ) ;
#124 = VERTEX_POINT ( 'NONE', #694 ) ;
#125 = PLANE ( 'NONE',  #920 ) ;
#126 = AXIS2_PLACEMENT_3D ( 'NONE', #388, #235, #239 ) ;
#127 = COORDINATED_UNIVERSAL_TIME_OFFSET ( 8, 0, .AHEAD. ) ;
#128 = DIRECTION ( 'NONE',  ( -0.000000000000000000, 0.000000000000000000, 1.000000000000000000 ) ) ;
#129 = ORIENTED_EDGE ( 'NONE', *, *, #827, .T. ) ;
#130 = EDGE_CURVE ( 'NONE', #466, #621, #641, .T. ) ;
#131 = VERTEX_POINT ( 'NONE', #113 ) ;
#132 = CARTESIAN_POINT ( 'NONE',  ( 19.99999999999999289, 7.500000000000003553, 15.50000000000000000 ) ) ;
#133 = CIRCLE ( 'NONE', #552, 7.500000000000000000 ) ;
#134 = CARTESIAN_POINT ( 'NONE',  ( 12.49999999999999289, 7.500000000000003553, 7.500000000000000000 ) ) ;
#135 = CARTESIAN_POINT ( 'NONE',  ( 80.00000000000000000, -22.49999999999999645, -22.50000000000000000 ) ) ;
#136 = AXIS2_PLACEMENT_3D ( 'NONE', #221, #596, #593 ) ;
#137 = CYLINDRICAL_SURFACE ( 'NONE', #329, 7.500000000000005329 ) ;
#138 = EDGE_CURVE ( 'NONE', #686, #621, #864, .T. ) ;
#139 = CARTESIAN_POINT ( 'NONE',  ( 60.00000000000000000, 7.500000000000003553, 15.50000000000000000 ) ) ;
#140 = AXIS2_PLACEMENT_3D ( 'NONE', #522, #434, #667 ) ;
#141 = ADVANCED_FACE ( 'NONE', ( #187 ), #850, .F. ) ;
#142 = APPROVAL ( #256, '未指定' ) ;
#143 = DIRECTION ( 'NONE',  ( -0.000000000000000000, -0.000000000000000000, 1.000000000000000000 ) ) ;
#144 = FACE_OUTER_BOUND ( 'NONE', #21, .T. ) ;
#145 = AXIS2_PLACEMENT_3D ( 'NONE', #840, #172, #620 ) ;
#146 = ORIENTED_EDGE ( 'NONE', *, *, #294, .F. ) ;
#147 = VERTEX_POINT ( 'NONE', #259 ) ;
#148 = CARTESIAN_POINT ( 'NONE',  ( 64.50000000000000000, 7.500000000000004441, 22.49999999999999289 ) ) ;
#149 = FACE_OUTER_BOUND ( 'NONE', #218, .T. ) ;
#150 = ADVANCED_FACE ( 'NONE', ( #26 ), #180, .F. ) ;
#151 = CARTESIAN_POINT ( 'NONE',  ( 20.00000000000000355, -15.49999999999999645, -7.500000000000000000 ) ) ;
#152 = LINE ( 'NONE', #347, #254 ) ;
#153 = EDGE_LOOP ( 'NONE', ( #817, #70, #835, #521 ) ) ;
#154 = APPROVAL_PERSON_ORGANIZATION ( #916, #79, #11 ) ;
#155 = CARTESIAN_POINT ( 'NONE',  ( 0.000000000000000000, -22.49999999999999645, 22.50000000000000000 ) ) ;
#156 = EDGE_CURVE ( 'NONE', #147, #398, #487, .T. ) ;
#157 = CARTESIAN_POINT ( 'NONE',  ( 15.49999999999999645, 7.500000000000003553, 22.49999999999999289 ) ) ;
#158 = CIRCLE ( 'NONE', #711, 7.500000000000005329 ) ;
#159 = DATE_AND_TIME ( #762, #105 ) ;
#160 = ORIENTED_EDGE ( 'NONE', *, *, #780, .F. ) ;
#161 = DIRECTION ( 'NONE',  ( -0.000000000000000000, 1.000000000000000000, 0.000000000000000000 ) ) ;
#162 = CARTESIAN_POINT ( 'NONE',  ( 60.00000000000000711, -15.49999999999999645, -7.499999999999996447 ) ) ;
#163 = VECTOR ( 'NONE', #979, 1000.000000000000000 ) ;
#164 = EDGE_CURVE ( 'NONE', #403, #460, #981, .T. ) ;
#165 = EDGE_CURVE ( 'NONE', #420, #915, #517, .T. ) ;
#166 = CARTESIAN_POINT ( 'NONE',  ( 80.00000000000000000, 22.50000000000000355, 22.50000000000000000 ) ) ;
#167 = DIRECTION ( 'NONE',  ( -0.000000000000000000, 1.000000000000000000, 0.000000000000000000 ) ) ;
#168 = AXIS2_PLACEMENT_3D ( 'NONE', #307, #323, #91 ) ;
#169 = ORIENTED_EDGE ( 'NONE', *, *, #586, .T. ) ;
#170 = VERTEX_POINT ( 'NONE', #630 ) ;
#171 = DIRECTION ( 'NONE',  ( 0.000000000000000000, 0.000000000000000000, -1.000000000000000000 ) ) ;
#172 = DIRECTION ( 'NONE',  ( 0.000000000000000000, 0.000000000000000000, -1.000000000000000000 ) ) ;
#173 = ORIENTED_EDGE ( 'NONE', *, *, #321, .F. ) ;
#174 = AXIS2_PLACEMENT_3D ( 'NONE', #546, #161, #84 ) ;
#175 = DIRECTION ( 'NONE',  ( -0.000000000000000000, -0.000000000000000000, -1.000000000000000000 ) ) ;
#176 = AXIS2_PLACEMENT_3D ( 'NONE', #36, #381, #177 ) ;
#177 = DIRECTION ( 'NONE',  ( 0.000000000000000000, 0.000000000000000000, 1.000000000000000000 ) ) ;
#178 = CARTESIAN_POINT ( 'NONE',  ( 80.00000000000000000, 22.50000000000000355, 11.50000000000000000 ) ) ;
#179 = VERTEX_POINT ( 'NONE', #326 ) ;
#180 = CYLINDRICAL_SURFACE ( 'NONE', #419, 7.500000000000005329 ) ;
#181 = EDGE_CURVE ( 'NONE', #398, #547, #253, .T. ) ;
#182 = EDGE_CURVE ( 'NONE', #653, #913, #9, .T. ) ;
#183 = ORIENTED_EDGE ( 'NONE', *, *, #797, .T. ) ;
#184 = DIRECTION ( 'NONE',  ( -1.000000000000000000, 0.000000000000000000, -0.000000000000000000 ) ) ;
#185 = DIRECTION ( 'NONE',  ( -0.000000000000000000, -0.000000000000000000, -1.000000000000000000 ) ) ;
#186 = ORIENTED_EDGE ( 'NONE', *, *, #863, .F. ) ;
#187 = FACE_OUTER_BOUND ( 'NONE', #539, .T. ) ;
#188 = CARTESIAN_POINT ( 'NONE',  ( 60.00000000000000000, 7.500000000000003553, 87.50000000000000000 ) ) ;
#189 = ORIENTED_EDGE ( 'NONE', *, *, #452, .F. ) ;
#190 = APPROVAL_ROLE ( '' ) ;
#191 = DIRECTION ( 'NONE',  ( -0.000000000000000000, 1.000000000000000000, 0.000000000000000000 ) ) ;
#192 = EDGE_LOOP ( 'NONE', ( #97, #32 ) ) ;
#193 = DIRECTION ( 'NONE',  ( 0.000000000000000000, 0.000000000000000000, 1.000000000000000000 ) ) ;
#194 = ORIENTED_EDGE ( 'NONE', *, *, #847, .F. ) ;
#195 = DIRECTION ( 'NONE',  ( 0.000000000000000000, 0.000000000000000000, 1.000000000000000000 ) ) ;
#196 = APPROVAL_DATE_TIME ( #263, #142 ) ;
#197 = CARTESIAN_POINT ( 'NONE',  ( 60.00000000000000711, -15.49999999999999645, 8.673617379884035472E-15 ) ) ;
#198 = AXIS2_PLACEMENT_3D ( 'NONE', #970, #730, #422 ) ;
#199 = ORIENTED_EDGE ( 'NONE', *, *, #759, .T. ) ;
#200 = FACE_OUTER_BOUND ( 'NONE', #153, .T. ) ;
#201 = EDGE_CURVE ( 'NONE', #884, #437, #214, .T. ) ;
#202 = FACE_OUTER_BOUND ( 'NONE', #426, .T. ) ;
#203 = DIRECTION ( 'NONE',  ( -1.000000000000000000, 0.000000000000000000, 0.000000000000000000 ) ) ;
#204 = CARTESIAN_POINT ( 'NONE',  ( 0.000000000000000000, 18.50000000000000355, 7.500000000000000000 ) ) ;
#205 = LINE ( 'NONE', #342, #635 ) ;
#206 = EDGE_CURVE ( 'NONE', #179, #927, #340, .T. ) ;
#207 = CARTESIAN_POINT ( 'NONE',  ( 60.00000000000000000, 7.500000000000003553, 15.50000000000000000 ) ) ;
#208 = LINE ( 'NONE', #360, #163 ) ;
#209 = EDGE_CURVE ( 'NONE', #87, #286, #801, .T. ) ;
#210 = ORGANIZATION ( '未指定', '未指定', '' ) ;
#211 = EDGE_LOOP ( 'NONE', ( #312, #325, #841, #614 ) ) ;
#212 = CARTESIAN_POINT ( 'NONE',  ( 67.50000000000000000, 7.500000000000004441, 15.50000000000000000 ) ) ;
#213 = CARTESIAN_POINT ( 'NONE',  ( 60.00000000000000000, 7.500000000000003553, 15.50000000000000000 ) ) ;
#214 = CIRCLE ( 'NONE', #126, 7.500000000000000000 ) ;
#215 = ORIENTED_EDGE ( 'NONE', *, *, #598, .T. ) ;
#216 = DIRECTION ( 'NONE',  ( 0.000000000000000000, -0.000000000000000000, -1.000000000000000000 ) ) ;
#217 = DIRECTION ( 'NONE',  ( -1.000000000000000000, 0.000000000000000000, 0.000000000000000000 ) ) ;
#218 = EDGE_LOOP ( 'NONE', ( #255, #189, #429, #12 ) ) ;
#219 = AXIS2_PLACEMENT_3D ( 'NONE', #71, #430, #819 ) ;
#220 = CYLINDRICAL_SURFACE ( 'NONE', #219, 4.500000000000012434 ) ;
#221 = CARTESIAN_POINT ( 'NONE',  ( 20.00000000000000355, -15.49999999999999645, -7.500000000000000000 ) ) ;
#222 = ORIENTED_EDGE ( 'NONE', *, *, #280, .F. ) ;
#223 = VERTEX_POINT ( 'NONE', #395 ) ;
#224 = AXIS2_PLACEMENT_3D ( 'NONE', #569, #503, #802 ) ;
#225 = ORIENTED_EDGE ( 'NONE', *, *, #975, .F. ) ;
#226 = AXIS2_PLACEMENT_3D ( 'NONE', #82, #39, #193 ) ;
#227 = ORIENTED_EDGE ( 'NONE', *, *, #625, .F. ) ;
#228 = EDGE_CURVE ( 'NONE', #286, #314, #383, .T. ) ;
#229 = LINE ( 'NONE', #687, #644 ) ;
#230 = CARTESIAN_POINT ( 'NONE',  ( 64.50000000000000000, 7.500000000000004441, 15.50000000000000000 ) ) ;
#231 = ADVANCED_FACE ( 'NONE', ( #24 ), #834, .F. ) ;
#232 = AXIS2_PLACEMENT_3D ( 'NONE', #559, #62, #788 ) ;
#233 = CARTESIAN_POINT ( 'NONE',  ( 80.00000000000000000, 18.50000000000000355, 7.500000000000000000 ) ) ;
#234 = ORIENTED_EDGE ( 'NONE', *, *, #659, .F. ) ;
#235 = DIRECTION ( 'NONE',  ( 0.000000000000000000, 0.000000000000000000, -1.000000000000000000 ) ) ;
#236 = ORIENTED_EDGE ( 'NONE', *, *, #206, .T. ) ;
#237 = DIRECTION ( 'NONE',  ( 0.000000000000000000, 1.000000000000000000, 0.000000000000000000 ) ) ;
#238 = LINE ( 'NONE', #935, #428 ) ;
#239 = DIRECTION ( 'NONE',  ( -1.000000000000000000, 0.000000000000000000, 0.000000000000000000 ) ) ;
#240 = DIRECTION ( 'NONE',  ( 0.000000000000000000, 0.000000000000000000, -1.000000000000000000 ) ) ;
#241 = EDGE_CURVE ( 'NONE', #120, #791, #319, .T. ) ;
#242 = LINE ( 'NONE', #549, #731 ) ;
#243 = CARTESIAN_POINT ( 'NONE',  ( 60.00000000000000000, 7.500000000000003553, 15.50000000000000000 ) ) ;
#244 = ORIENTED_EDGE ( 'NONE', *, *, #698, .T. ) ;
#245 = CC_DESIGN_DATE_AND_TIME_ASSIGNMENT ( #696, #28, ( #821 ) ) ;
#246 = CARTESIAN_POINT ( 'NONE',  ( 80.00000000000000000, -22.49999999999999645, -22.50000000000000000 ) ) ;
#247 = EDGE_LOOP ( 'NONE', ( #376, #258, #10, #928 ) ) ;
#248 = AXIS2_PLACEMENT_3D ( 'NONE', #77, #583, #281 ) ;
#249 = CARTESIAN_POINT ( 'NONE',  ( 80.00000000000000000, 22.50000000000000355, 11.50000000000000000 ) ) ;
#250 = CYLINDRICAL_SURFACE ( 'NONE', #684, 7.500000000000000000 ) ;
#251 = ORIENTED_EDGE ( 'NONE', *, *, #601, .T. ) ;
#252 = ORIENTED_EDGE ( 'NONE', *, *, #868, .F. ) ;
#253 = LINE ( 'NONE', #914, #48 ) ;
#254 = VECTOR ( 'NONE', #122, 1000.000000000000000 ) ;
#255 = ORIENTED_EDGE ( 'NONE', *, *, #693, .T. ) ;
#256 = APPROVAL_STATUS ( 'not_yet_approved' ) ;
#257 = CARTESIAN_POINT ( 'NONE',  ( 20.00000000000000355, -15.49999999999999645, -15.00000000000000000 ) ) ;
#258 = ORIENTED_EDGE ( 'NONE', *, *, #450, .F. ) ;
#259 = CARTESIAN_POINT ( 'NONE',  ( 0.000000000000000000, -7.499999999999996447, 7.500000000000000000 ) ) ;
#260 = VECTOR ( 'NONE', #880, 1000.000000000000000 ) ;
#261 = LINE ( 'NONE', #496, #537 ) ;
#262 = ORIENTED_EDGE ( 'NONE', *, *, #780, .T. ) ;
#263 = DATE_AND_TIME ( #410, #577 ) ;
#264 = FACE_BOUND ( 'NONE', #495, .T. ) ;
#265 = ORIENTED_EDGE ( 'NONE', *, *, #92, .T. ) ;
#266 = CARTESIAN_POINT ( 'NONE',  ( 60.00000000000000711, -15.49999999999999645, -7.499999999999996447 ) ) ;
#267 = AXIS2_PLACEMENT_3D ( 'NONE', #49, #191, #860 ) ;
#268 = CARTESIAN_POINT ( 'NONE',  ( 60.00000000000000711, -15.49999999999999645, -7.499999999999996447 ) ) ;
#269 = EDGE_CURVE ( 'NONE', #102, #478, #926, .T. ) ;
#270 = DIRECTION ( 'NONE',  ( 0.000000000000000000, -0.000000000000000000, 1.000000000000000000 ) ) ;
#271 = ORIENTED_EDGE ( 'NONE', *, *, #930, .T. ) ;
#272 = EDGE_LOOP ( 'NONE', ( #636, #458, #754, #389 ) ) ;
#273 = CYLINDRICAL_SURFACE ( 'NONE', #283, 4.499999999999997335 ) ;
#274 = CARTESIAN_POINT ( 'NONE',  ( 80.00000000000000000, 0.000000000000000000, 0.000000000000000000 ) ) ;
#275 = ORIENTED_EDGE ( 'NONE', *, *, #103, .T. ) ;
#276 = DIRECTION ( 'NONE',  ( -0.000000000000000000, -0.000000000000000000, -1.000000000000000000 ) ) ;
#277 = PRODUCT_DEFINITION_FORMATION_WITH_SPECIFIED_SOURCE ( '任何', '', #898, .NOT_KNOWN. ) ;
#278 = EDGE_CURVE ( 'NONE', #915, #420, #53, .T. ) ;
#279 = AXIS2_PLACEMENT_3D ( 'NONE', #756, #240, #474 ) ;
#280 = EDGE_CURVE ( 'NONE', #314, #632, #295, .T. ) ;
#281 = DIRECTION ( 'NONE',  ( 0.000000000000000000, 0.000000000000000000, 1.000000000000000000 ) ) ;
#282 = CARTESIAN_POINT ( 'NONE',  ( 19.99999999999999289, 7.500000000000003553, 15.50000000000000000 ) ) ;
#283 = AXIS2_PLACEMENT_3D ( 'NONE', #950, #578, #734 ) ;
#284 = DIRECTION ( 'NONE',  ( 0.000000000000000000, 0.000000000000000000, -1.000000000000000000 ) ) ;
#285 = PLANE ( 'NONE',  #136 ) ;
#286 = VERTEX_POINT ( 'NONE', #776 ) ;
#287 = ORIENTED_EDGE ( 'NONE', *, *, #321, .T. ) ;
#288 = CARTESIAN_POINT ( 'NONE',  ( 20.00000000000000355, -7.499999999999996447, -8.673617379884035472E-16 ) ) ;
#289 = PLANE ( 'NONE',  #432 ) ;
#290 = ADVANCED_FACE ( 'NONE', ( #540 ), #250, .F. ) ;
#291 = ORIENTED_EDGE ( 'NONE', *, *, #554, .T. ) ;
#292 = FACE_OUTER_BOUND ( 'NONE', #885, .T. ) ;
#293 = DIRECTION ( 'NONE',  ( 0.000000000000000000, 0.000000000000000000, -1.000000000000000000 ) ) ;
#294 = EDGE_CURVE ( 'NONE', #766, #446, #13, .T. ) ;
#295 = CIRCLE ( 'NONE', #814, 4.499999999999997335 ) ;
#296 = VECTOR ( 'NONE', #444, 1000.000000000000000 ) ;
#297 = ORIENTED_EDGE ( 'NONE', *, *, #241, .T. ) ;
#298 = VECTOR ( 'NONE', #763, 1000.000000000000000 ) ;
#299 = EDGE_LOOP ( 'NONE', ( #291, #849 ) ) ;
#300 = AXIS2_PLACEMENT_3D ( 'NONE', #742, #886, #983 ) ;
#301 = CARTESIAN_POINT ( 'NONE',  ( 24.49999999999998934, 7.500000000000004441, 87.50000000000000000 ) ) ;
#302 = EDGE_CURVE ( 'NONE', #478, #653, #556, .T. ) ;
#303 = DIRECTION ( 'NONE',  ( 0.000000000000000000, 0.000000000000000000, 1.000000000000000000 ) ) ;
#304 = CLOSED_SHELL ( 'NONE', ( #611, #723, #231, #290, #879, #769, #337, #516, #141, #351, #34, #838, #106, #967, #408, #108, #502, #623, #752, #757, #441, #628, #908, #425, #735, #881, #948, #5, #433, #150 ) ) ;
#305 = DIRECTION ( 'NONE',  ( -0.000000000000000000, -0.000000000000000000, 1.000000000000000000 ) ) ;
#306 = ORIENTED_EDGE ( 'NONE', *, *, #648, .F. ) ;
#307 = CARTESIAN_POINT ( 'NONE',  ( 19.99999999999999289, 7.500000000000003553, 22.49999999999999289 ) ) ;
#308 = DIRECTION ( 'NONE',  ( -0.000000000000000000, -1.000000000000000000, -0.000000000000000000 ) ) ;
#309 = CIRCLE ( 'NONE', #415, 7.500000000000000000 ) ;
#310 = SECURITY_CLASSIFICATION_LEVEL ( 'unclassified' ) ;
#311 = DIRECTION ( 'NONE',  ( 0.000000000000000000, 0.000000000000000000, -1.000000000000000000 ) ) ;
#312 = ORIENTED_EDGE ( 'NONE', *, *, #367, .F. ) ;
#313 = FACE_OUTER_BOUND ( 'NONE', #718, .T. ) ;
#314 = VERTEX_POINT ( 'NONE', #932 ) ;
#315 = EDGE_CURVE ( 'NONE', #777, #524, #14, .T. ) ;
#316 = EDGE_LOOP ( 'NONE', ( #90, #741, #160, #882 ) ) ;
#317 = PERSON_AND_ORGANIZATION ( #421, #210 ) ;
#318 = CARTESIAN_POINT ( 'NONE',  ( 20.00000000000000355, -15.49999999999999645, -7.500000000000000000 ) ) ;
#319 = LINE ( 'NONE', #603, #768 ) ;
#320 = DIRECTION ( 'NONE',  ( -0.000000000000000000, 1.000000000000000000, -0.000000000000000000 ) ) ;
#321 = EDGE_CURVE ( 'NONE', #124, #862, #229, .T. ) ;
#322 = CARTESIAN_POINT ( 'NONE',  ( 0.000000000000000000, 0.000000000000000000, 0.000000000000000000 ) ) ;
#323 = DIRECTION ( 'NONE',  ( 0.000000000000000000, 0.000000000000000000, -1.000000000000000000 ) ) ;
#324 = ORIENTED_EDGE ( 'NONE', *, *, #681, .F. ) ;
#325 = ORIENTED_EDGE ( 'NONE', *, *, #544, .T. ) ;
#326 = CARTESIAN_POINT ( 'NONE',  ( 60.00000000000000711, -7.499999999999996447, -15.00000000000000178 ) ) ;
#327 = ORIENTED_EDGE ( 'NONE', *, *, #228, .F. ) ;
#328 = CALENDAR_DATE ( 2026, 4, 9 ) ;
#329 = AXIS2_PLACEMENT_3D ( 'NONE', #738, #65, #359 ) ;
#330 = DIRECTION ( 'NONE',  ( -0.000000000000000000, 0.000000000000000000, 1.000000000000000000 ) ) ;
#331 = PLANE ( 'NONE',  #224 ) ;
#332 = ORIENTED_EDGE ( 'NONE', *, *, #315, .T. ) ;
#333 = DIRECTION ( 'NONE',  ( -0.000000000000000000, 1.000000000000000000, -0.000000000000000000 ) ) ;
#334 = APPROVAL_PERSON_ORGANIZATION ( #501, #774, #190 ) ;
#335 = DIRECTION ( 'NONE',  ( 0.000000000000000000, 0.000000000000000000, -1.000000000000000000 ) ) ;
#336 = COORDINATED_UNIVERSAL_TIME_OFFSET ( 8, 0, .AHEAD. ) ;
#337 = ADVANCED_FACE ( 'NONE', ( #313 ), #831, .F. ) ;
#338 = PLANE ( 'NONE',  #63 ) ;
#339 = DIRECTION ( 'NONE',  ( 0.000000000000000000, 0.000000000000000000, 1.000000000000000000 ) ) ;
#340 = CIRCLE ( 'NONE', #894, 7.500000000000005329 ) ;
#341 = EDGE_CURVE ( 'NONE', #553, #131, #843, .T. ) ;
#342 = CARTESIAN_POINT ( 'NONE',  ( 80.00000000000000000, -22.49999999999999645, -22.50000000000000000 ) ) ;
#343 = CARTESIAN_POINT ( 'NONE',  ( 20.00000000000000355, -15.49999999999999645, -7.500000000000000000 ) ) ;
#344 = AXIS2_PLACEMENT_3D ( 'NONE', #626, #784, #936 ) ;
#345 = ORIENTED_EDGE ( 'NONE', *, *, #519, .F. ) ;
#346 = CARTESIAN_POINT ( 'NONE',  ( 12.49999999999999289, 7.500000000000003553, 15.50000000000000000 ) ) ;
#347 = CARTESIAN_POINT ( 'NONE',  ( 52.50000000000000000, 7.500000000000003553, 15.50000000000000000 ) ) ;
#348 = AXIS2_PLACEMENT_3D ( 'NONE', #151, #356, #969 ) ;
#349 = CARTESIAN_POINT ( 'NONE',  ( 80.00000000000000000, -22.49999999999999645, 22.50000000000000000 ) ) ;
#350 = EDGE_LOOP ( 'NONE', ( #327, #904, #244, #222 ) ) ;
#351 = ADVANCED_FACE ( 'NONE', ( #471 ), #377, .F. ) ;
#352 = CARTESIAN_POINT ( 'NONE',  ( 20.00000000000000355, -15.49999999999999645, -12.00000000000000000 ) ) ;
#353 = CC_DESIGN_DATE_AND_TIME_ASSIGNMENT ( #117, #42, ( #748 ) ) ;
#354 = VECTOR ( 'NONE', #944, 1000.000000000000000 ) ;
#355 = ORIENTED_EDGE ( 'NONE', *, *, #69, .T. ) ;
#356 = DIRECTION ( 'NONE',  ( -0.000000000000000000, -1.000000000000000000, -0.000000000000000000 ) ) ;
#357 = CARTESIAN_POINT ( 'NONE',  ( 80.00000000000000000, 22.50000000000000355, 11.50000000000000000 ) ) ;
#358 = AXIS2_PLACEMENT_3D ( 'NONE', #162, #675, #609 ) ;
#359 = DIRECTION ( 'NONE',  ( 0.000000000000000000, 0.000000000000000000, 1.000000000000000000 ) ) ;
#360 = CARTESIAN_POINT ( 'NONE',  ( 60.00000000000000711, -22.50099999999999767, -2.999999999999983569 ) ) ;
#361 = VECTOR ( 'NONE', #276, 1000.000000000000000 ) ;
#362 = CARTESIAN_POINT ( 'NONE',  ( 52.50000000000000000, 7.500000000000003553, 7.500000000000000000 ) ) ;
#363 = FACE_BOUND ( 'NONE', #925, .T. ) ;
#364 = ORIENTED_EDGE ( 'NONE', *, *, #601, .F. ) ;
#365 = CARTESIAN_POINT ( 'NONE',  ( 0.000000000000000000, 22.50000000000000355, 11.50000000000000000 ) ) ;
#366 = DIRECTION ( 'NONE',  ( -1.000000000000000000, 0.000000000000000000, 0.000000000000000000 ) ) ;
#367 = EDGE_CURVE ( 'NONE', #460, #403, #726, .T. ) ;
#368 = ORIENTED_EDGE ( 'NONE', *, *, #863, .T. ) ;
#369 = LINE ( 'NONE', #595, #736 ) ;
#370 = LINE ( 'NONE', #15, #110 ) ;
#371 = ORIENTED_EDGE ( 'NONE', *, *, #22, .T. ) ;
#372 = AXIS2_PLACEMENT_3D ( 'NONE', #438, #895, #216 ) ;
#373 = EDGE_CURVE ( 'NONE', #547, #93, #424, .T. ) ;
#374 = FACE_OUTER_BOUND ( 'NONE', #656, .T. ) ;
#375 = PERSON_AND_ORGANIZATION_ROLE ( 'creator' ) ;
#376 = ORIENTED_EDGE ( 'NONE', *, *, #373, .T. ) ;
#377 = CYLINDRICAL_SURFACE ( 'NONE', #267, 4.500000000000001776 ) ;
#378 = EDGE_LOOP ( 'NONE', ( #548, #877, #60, #262, #745, #534, #605, #560 ) ) ;
#379 = VERTEX_POINT ( 'NONE', #952 ) ;
#380 = PERSON_AND_ORGANIZATION ( #421, #210 ) ;
#381 = DIRECTION ( 'NONE',  ( 0.000000000000000000, -1.000000000000000000, -0.000000000000000000 ) ) ;
#382 = EDGE_LOOP ( 'NONE', ( #866, #919 ) ) ;
#383 = LINE ( 'NONE', #301, #721 ) ;
#384 = ORIENTED_EDGE ( 'NONE', *, *, #648, .T. ) ;
#385 = CARTESIAN_POINT ( 'NONE',  ( 80.00000000000000000, 22.50000000000000355, 11.50000000000000000 ) ) ;
#386 = CC_DESIGN_PERSON_AND_ORGANIZATION_ASSIGNMENT ( #317, #828, ( #821 ) ) ;
#387 = DIRECTION ( 'NONE',  ( 0.000000000000000000, 0.000000000000000000, -1.000000000000000000 ) ) ;
#388 = CARTESIAN_POINT ( 'NONE',  ( 19.99999999999999289, 7.500000000000003553, 15.50000000000000000 ) ) ;
#389 = ORIENTED_EDGE ( 'NONE', *, *, #138, .T. ) ;
#390 = CARTESIAN_POINT ( 'NONE',  ( 80.00000000000000000, 22.50000000000000355, 22.50000000000000000 ) ) ;
#391 = EDGE_CURVE ( 'NONE', #627, #927, #958, .T. ) ;
#392 = PERSON_AND_ORGANIZATION ( #421, #210 ) ;
#393 = CARTESIAN_POINT ( 'NONE',  ( 15.49999999999999645, 7.500000000000003553, 15.50000000000000000 ) ) ;
#394 = CC_DESIGN_SECURITY_CLASSIFICATION ( #821, ( #277 ) ) ;
#395 = CARTESIAN_POINT ( 'NONE',  ( 20.00000000000000355, -7.499999999999996447, -15.00000000000000000 ) ) ;
#396 = ORIENTED_EDGE ( 'NONE', *, *, #960, .F. ) ;
#397 = CARTESIAN_POINT ( 'NONE',  ( 20.00000000000000355, -15.49999999999999645, -7.500000000000000000 ) ) ;
#398 = VERTEX_POINT ( 'NONE', #204 ) ;
#399 = AXIS2_PLACEMENT_3D ( 'NONE', #600, #905, #529 ) ;
#400 = DIRECTION ( 'NONE',  ( 1.000000000000000000, 0.000000000000000000, 0.000000000000000000 ) ) ;
#401 = CARTESIAN_POINT ( 'NONE',  ( 80.00000000000000000, -7.499999999999996447, 7.500000000000000000 ) ) ;
#402 = DIRECTION ( 'NONE',  ( -0.000000000000000000, 1.000000000000000000, 0.000000000000000000 ) ) ;
#403 = VERTEX_POINT ( 'NONE', #722 ) ;
#404 = ORIENTED_EDGE ( 'NONE', *, *, #164, .F. ) ;
#405 = DIRECTION ( 'NONE',  ( -1.000000000000000000, -0.000000000000000000, -0.000000000000000000 ) ) ;
#406 = EDGE_LOOP ( 'NONE', ( #364, #933, #169, #712 ) ) ;
#407 = DIRECTION ( 'NONE',  ( 0.000000000000000000, 1.000000000000000000, 0.000000000000000000 ) ) ;
#408 = ADVANCED_FACE ( 'NONE', ( #264, #498, #790 ), #645, .F. ) ;
#409 = ORIENTED_EDGE ( 'NONE', *, *, #241, .F. ) ;
#410 = CALENDAR_DATE ( 2026, 4, 9 ) ;
#411 = VECTOR ( 'NONE', #961, 1000.000000000000000 ) ;
#412 = CARTESIAN_POINT ( 'NONE',  ( 19.99999999999999289, 7.500000000000003553, 15.50000000000000000 ) ) ;
#413 = CARTESIAN_POINT ( 'NONE',  ( 80.00000000000000000, 18.50000000000000355, 7.500000000000000000 ) ) ;
#414 = EDGE_LOOP ( 'NONE', ( #976, #324, #345, #716 ) ) ;
#415 = AXIS2_PLACEMENT_3D ( 'NONE', #132, #719, #427 ) ;
#416 = DIRECTION ( 'NONE',  ( 0.000000000000000000, 1.000000000000000000, 0.000000000000000000 ) ) ;
#417 = MECHANICAL_CONTEXT ( 'NONE', #542, 'mechanical' ) ;
#418 = CARTESIAN_POINT ( 'NONE',  ( 12.49999999999999289, 7.500000000000003553, 15.50000000000000000 ) ) ;
#419 = AXIS2_PLACEMENT_3D ( 'NONE', #266, #320, #339 ) ;
#420 = VERTEX_POINT ( 'NONE', #118 ) ;
#421 = PERSON ( '未指定', '未指定', '未指定', ('未指定'), ('未指定'), ('未指定') ) ;
#422 = DIRECTION ( 'NONE',  ( -1.000000000000000000, 0.000000000000000000, -0.000000000000000000 ) ) ;
#423 = MANIFOLD_SOLID_BREP ( '切除-拉伸5', #304 ) ;
#424 = LINE ( 'NONE', #876, #907 ) ;
#425 = ADVANCED_FACE ( 'NONE', ( #714 ), #572, .F. ) ;
#426 = EDGE_LOOP ( 'NONE', ( #728, #199 ) ) ;
#427 = DIRECTION ( 'NONE',  ( -1.000000000000000000, 0.000000000000000000, 0.000000000000000000 ) ) ;
#428 = VECTOR ( 'NONE', #476, 1000.000000000000000 ) ;
#429 = ORIENTED_EDGE ( 'NONE', *, *, #182, .F. ) ;
#430 = DIRECTION ( 'NONE',  ( -0.000000000000000000, 1.000000000000000000, 0.000000000000000000 ) ) ;
#431 = DIRECTION ( 'NONE',  ( 0.000000000000000000, 0.000000000000000000, 1.000000000000000000 ) ) ;
#432 = AXIS2_PLACEMENT_3D ( 'NONE', #896, #74, #887 ) ;
#433 = ADVANCED_FACE ( 'NONE', ( #202, #649 ), #331, .T. ) ;
#434 = DIRECTION ( 'NONE',  ( 0.000000000000000000, -1.000000000000000000, -0.000000000000000000 ) ) ;
#435 = CYLINDRICAL_SURFACE ( 'NONE', #891, 7.500000000000000000 ) ;
#436 = CIRCLE ( 'NONE', #604, 7.500000000000005329 ) ;
#437 = VERTEX_POINT ( 'NONE', #418 ) ;
#438 = CARTESIAN_POINT ( 'NONE',  ( 80.00000000000000000, -7.499999999999996447, -18.50000000000000000 ) ) ;
#439 = DIRECTION ( 'NONE',  ( -1.000000000000000000, 0.000000000000000000, 0.000000000000000000 ) ) ;
#440 = VECTOR ( 'NONE', #167, 1000.000000000000000 ) ;
#441 = ADVANCED_FACE ( 'NONE', ( #44 ), #338, .F. ) ;
#442 = ORIENTED_EDGE ( 'NONE', *, *, #598, .F. ) ;
#443 = VECTOR ( 'NONE', #311, 1000.000000000000000 ) ;
#444 = DIRECTION ( 'NONE',  ( -0.000000000000000000, 1.000000000000000000, -0.000000000000000000 ) ) ;
#445 = FACE_BOUND ( 'NONE', #688, .T. ) ;
#446 = VERTEX_POINT ( 'NONE', #639 ) ;
#447 = DIRECTION ( 'NONE',  ( -1.000000000000000000, 0.000000000000000000, 0.000000000000000000 ) ) ;
#448 = CARTESIAN_POINT ( 'NONE',  ( 19.99999999999999289, 7.500000000000003553, 22.49999999999999289 ) ) ;
#449 = CC_DESIGN_APPROVAL ( #774, ( #748 ) ) ;
#450 = EDGE_CURVE ( 'NONE', #653, #93, #634, .T. ) ;
#451 = ORIENTED_EDGE ( 'NONE', *, *, #68, .F. ) ;
#452 = EDGE_CURVE ( 'NONE', #913, #83, #55, .T. ) ;
#453 = COORDINATED_UNIVERSAL_TIME_OFFSET ( 8, 0, .AHEAD. ) ;
#454 = CARTESIAN_POINT ( 'NONE',  ( 60.00000000000000000, 7.500000000000003553, 87.50000000000000000 ) ) ;
#455 = AXIS2_PLACEMENT_3D ( 'NONE', #710, #121, #510 ) ;
#456 = PERSON_AND_ORGANIZATION_ROLE ( 'design_supplier' ) ;
#457 = CIRCLE ( 'NONE', #7, 4.499999999999997335 ) ;
#458 = ORIENTED_EDGE ( 'NONE', *, *, #673, .F. ) ;
#459 = DIRECTION ( 'NONE',  ( -1.000000000000000000, 0.000000000000000000, 0.000000000000000000 ) ) ;
#460 = VERTEX_POINT ( 'NONE', #257 ) ;
#461 = APPROVAL_STATUS ( 'not_yet_approved' ) ;
#462 = AXIS2_PLACEMENT_3D ( 'NONE', #246, #786, #954 ) ;
#463 = CARTESIAN_POINT ( 'NONE',  ( 0.000000000000000000, -22.49999999999999645, 22.50000000000000000 ) ) ;
#464 = ORIENTED_EDGE ( 'NONE', *, *, #68, .T. ) ;
#465 = DIRECTION ( 'NONE',  ( 0.000000000000000000, 0.000000000000000000, -1.000000000000000000 ) ) ;
#466 = VERTEX_POINT ( 'NONE', #563 ) ;
#467 = ORIENTED_EDGE ( 'NONE', *, *, #960, .T. ) ;
#468 = CALENDAR_DATE ( 2026, 4, 9 ) ;
#469 = VECTOR ( 'NONE', #477, 1000.000000000000114 ) ;
#470 = DIRECTION ( 'NONE',  ( -1.000000000000000000, 0.000000000000000000, 0.000000000000000000 ) ) ;
#471 = FACE_OUTER_BOUND ( 'NONE', #705, .T. ) ;
#472 = AXIS2_PLACEMENT_3D ( 'NONE', #804, #305, #61 ) ;
#473 = ORIENTED_EDGE ( 'NONE', *, *, #486, .T. ) ;
#474 = DIRECTION ( 'NONE',  ( -1.000000000000000000, 0.000000000000000000, 0.000000000000000000 ) ) ;
#475 = AXIS2_PLACEMENT_3D ( 'NONE', #100, #387, #699 ) ;
#476 = DIRECTION ( 'NONE',  ( -1.000000000000000000, -0.000000000000000000, -0.000000000000000000 ) ) ;
#477 = DIRECTION ( 'NONE',  ( -0.000000000000000000, 0.7071067811865474617, 0.7071067811865474617 ) ) ;
#478 = VERTEX_POINT ( 'NONE', #385 ) ;
#479 = VERTEX_POINT ( 'NONE', #148 ) ;
#480 = DIRECTION ( 'NONE',  ( 0.000000000000000000, 1.000000000000000000, 0.000000000000000000 ) ) ;
#481 = VERTEX_POINT ( 'NONE', #892 ) ;
#482 = CARTESIAN_POINT ( 'NONE',  ( 15.49999999999999645, 7.500000000000003553, 87.50000000000000000 ) ) ;
#483 = APPROVAL_PERSON_ORGANIZATION ( #633, #142, #869 ) ;
#484 = DIRECTION ( 'NONE',  ( -0.000000000000000000, -0.000000000000000000, 1.000000000000000000 ) ) ;
#485 = EDGE_LOOP ( 'NONE', ( #945, #966, #938, #701, #25, #225, #194, #789 ) ) ;
#486 = EDGE_CURVE ( 'NONE', #764, #466, #369, .T. ) ;
#487 = LINE ( 'NONE', #570, #505 ) ;
#488 = CARTESIAN_POINT ( 'NONE',  ( 80.00000000000000000, -7.499999999999996447, -18.50000000000000000 ) ) ;
#489 = EDGE_LOOP ( 'NONE', ( #306, #371, #80, #173 ) ) ;
#490 = VECTOR ( 'NONE', #175, 1000.000000000000000 ) ;
#491 = DIRECTION ( 'NONE',  ( 0.000000000000000000, 1.000000000000000000, 0.000000000000000000 ) ) ;
#492 = ORIENTED_EDGE ( 'NONE', *, *, #50, .F. ) ;
#493 = VERTEX_POINT ( 'NONE', #513 ) ;
#494 = FACE_OUTER_BOUND ( 'NONE', #247, .T. ) ;
#495 = EDGE_LOOP ( 'NONE', ( #910, #234 ) ) ;
#496 = CARTESIAN_POINT ( 'NONE',  ( 0.000000000000000000, -22.49999999999999645, 22.50000000000000000 ) ) ;
#497 = VECTOR ( 'NONE', #555, 1000.000000000000000 ) ;
#498 = FACE_BOUND ( 'NONE', #192, .T. ) ;
#499 = ORIENTED_EDGE ( 'NONE', *, *, #544, .F. ) ;
#500 = CYLINDRICAL_SURFACE ( 'NONE', #590, 4.499999999999997335 ) ;
#501 = PERSON_AND_ORGANIZATION ( #421, #210 ) ;
#502 = ADVANCED_FACE ( 'NONE', ( #525 ), #978, .F. ) ;
#503 = DIRECTION ( 'NONE',  ( 0.000000000000000000, 1.000000000000000000, 0.000000000000000000 ) ) ;
#504 = EDGE_LOOP ( 'NONE', ( #332, #251 ) ) ;
#505 = VECTOR ( 'NONE', #622, 1000.000000000000000 ) ;
#506 = PRODUCT_RELATED_PRODUCT_CATEGORY ( 'detail', '', ( #898 ) ) ;
#507 = CARTESIAN_POINT ( 'NONE',  ( 52.50000000000000000, 7.500000000000003553, 15.50000000000000000 ) ) ;
#508 = EDGE_LOOP ( 'NONE', ( #499, #404, #275, #265 ) ) ;
#509 = EDGE_CURVE ( 'NONE', #766, #120, #561, .T. ) ;
#510 = DIRECTION ( 'NONE',  ( 0.000000000000000000, 0.000000000000000000, 1.000000000000000000 ) ) ;
#511 = AXIS2_PLACEMENT_3D ( 'NONE', #732, #657, #447 ) ;
#512 = EDGE_LOOP ( 'NONE', ( #396, #781, #18, #20 ) ) ;
#513 = CARTESIAN_POINT ( 'NONE',  ( 27.49999999999999289, 7.500000000000004441, 7.500000000000000000 ) ) ;
#514 = CARTESIAN_POINT ( 'NONE',  ( 60.00000000000000711, -7.499999999999996447, 8.673617379884035472E-15 ) ) ;
#515 = FACE_OUTER_BOUND ( 'NONE', #272, .T. ) ;
#516 = ADVANCED_FACE ( 'NONE', ( #292 ), #220, .F. ) ;
#517 = CIRCLE ( 'NONE', #668, 4.500000000000012434 ) ;
#518 = CARTESIAN_POINT ( 'NONE',  ( 27.49999999999999289, 7.500000000000004441, 15.50000000000000000 ) ) ;
#519 = EDGE_CURVE ( 'NONE', #922, #102, #815, .T. ) ;
#520 = VERTEX_POINT ( 'NONE', #288 ) ;
#521 = ORIENTED_EDGE ( 'NONE', *, *, #698, .F. ) ;
#522 = CARTESIAN_POINT ( 'NONE',  ( 20.00000000000000355, -22.49999999999999645, -7.500000000000000000 ) ) ;
#523 = FACE_OUTER_BOUND ( 'NONE', #56, .T. ) ;
#524 = VERTEX_POINT ( 'NONE', #212 ) ;
#525 = FACE_OUTER_BOUND ( 'NONE', #557, .T. ) ;
#526 = LINE ( 'NONE', #747, #676 ) ;
#527 = EDGE_CURVE ( 'NONE', #41, #862, #902, .T. ) ;
#528 = EDGE_CURVE ( 'NONE', #621, #147, #671, .T. ) ;
#529 = DIRECTION ( 'NONE',  ( -1.000000000000000000, 0.000000000000000000, 0.000000000000000000 ) ) ;
#530 = CC_DESIGN_PERSON_AND_ORGANIZATION_ASSIGNMENT ( #859, #107, ( #748 ) ) ;
#531 = CIRCLE ( 'NONE', #226, 7.499999999999999112 ) ;
#532 = CYLINDRICAL_SURFACE ( 'NONE', #912, 4.499999999999997335 ) ;
#533 = COORDINATED_UNIVERSAL_TIME_OFFSET ( 8, 0, .AHEAD. ) ;
#534 = ORIENTED_EDGE ( 'NONE', *, *, #806, .T. ) ;
#535 = DIRECTION ( 'NONE',  ( 0.000000000000000000, 0.000000000000000000, -1.000000000000000000 ) ) ;
#536 = EDGE_LOOP ( 'NONE', ( #702, #467, #236, #541 ) ) ;
#537 = VECTOR ( 'NONE', #47, 1000.000000000000000 ) ;
#538 = LINE ( 'NONE', #775, #81 ) ;
#539 = EDGE_LOOP ( 'NONE', ( #982, #682, #271, #442 ) ) ;
#540 = FACE_OUTER_BOUND ( 'NONE', #971, .T. ) ;
#541 = ORIENTED_EDGE ( 'NONE', *, *, #391, .F. ) ;
#542 = APPLICATION_CONTEXT ( 'configuration controlled 3d designs of mechanical parts and assemblies' ) ;
#543 = VECTOR ( 'NONE', #637, 1000.000000000000114 ) ;
#544 = EDGE_CURVE ( 'NONE', #460, #223, #750, .T. ) ;
#545 = CARTESIAN_POINT ( 'NONE',  ( 60.00000000000000000, 7.500000000000003553, 22.49999999999999289 ) ) ;
#546 = CARTESIAN_POINT ( 'NONE',  ( 20.00000000000000355, -22.50099999999999767, -7.500000000000000000 ) ) ;
#547 = VERTEX_POINT ( 'NONE', #365 ) ;
#548 = ORIENTED_EDGE ( 'NONE', *, *, #302, .T. ) ;
#549 = CARTESIAN_POINT ( 'NONE',  ( 67.49999999999998579, 7.500000000000004441, 15.50000000000000000 ) ) ;
#550 = DIRECTION ( 'NONE',  ( -0.000000000000000000, 0.7071067811865474617, 0.7071067811865474617 ) ) ;
#551 = CARTESIAN_POINT ( 'NONE',  ( 80.00000000000000000, -7.499999999999996447, -18.50000000000000000 ) ) ;
#552 = AXIS2_PLACEMENT_3D ( 'NONE', #207, #284, #591 ) ;
#553 = VERTEX_POINT ( 'NONE', #362 ) ;
#554 = EDGE_CURVE ( 'NONE', #632, #314, #755, .T. ) ;
#555 = DIRECTION ( 'NONE',  ( -1.000000000000000000, -0.000000000000000000, -0.000000000000000000 ) ) ;
#556 = LINE ( 'NONE', #852, #899 ) ;
#557 = EDGE_LOOP ( 'NONE', ( #829, #953, #785, #473 ) ) ;
#558 = CARTESIAN_POINT ( 'NONE',  ( 0.000000000000000000, 22.50000000000000355, 22.50000000000000000 ) ) ;
#559 = CARTESIAN_POINT ( 'NONE',  ( 80.00000000000000000, 18.50000000000000355, 7.500000000000000000 ) ) ;
#560 = ORIENTED_EDGE ( 'NONE', *, *, #269, .T. ) ;
#561 = CIRCLE ( 'NONE', #140, 4.500000000000001776 ) ;
#562 = PERSON_AND_ORGANIZATION ( #421, #210 ) ;
#563 = CARTESIAN_POINT ( 'NONE',  ( 0.000000000000000000, -11.49999999999999645, -22.50000000000000000 ) ) ;
#564 = ORIENTED_EDGE ( 'NONE', *, *, #527, .F. ) ;
#565 = CARTESIAN_POINT ( 'NONE',  ( 20.00000000000000355, -15.49999999999999645, -8.673617379884035472E-16 ) ) ;
#566 = ORIENTED_EDGE ( 'NONE', *, *, #278, .T. ) ;
#567 = FACE_OUTER_BOUND ( 'NONE', #678, .T. ) ;
#568 = CIRCLE ( 'NONE', #580, 4.500000000000001776 ) ;
#569 = CARTESIAN_POINT ( 'NONE',  ( 60.00000000000000711, -15.49999999999999645, -7.499999999999996447 ) ) ;
#570 = CARTESIAN_POINT ( 'NONE',  ( 0.000000000000000000, 18.50000000000000355, 7.500000000000000000 ) ) ;
#571 = LINE ( 'NONE', #346, #361 ) ;
#572 = CYLINDRICAL_SURFACE ( 'NONE', #779, 7.500000000000000000 ) ;
#573 = ORIENTED_EDGE ( 'NONE', *, *, #206, .F. ) ;
#574 = CARTESIAN_POINT ( 'NONE',  ( 80.00000000000000000, -11.49999999999999645, -22.50000000000000000 ) ) ;
#575 = DIRECTION ( 'NONE',  ( -0.000000000000000000, -0.000000000000000000, 1.000000000000000000 ) ) ;
#576 = ORIENTED_EDGE ( 'NONE', *, *, #341, .F. ) ;
#577 = LOCAL_TIME ( 14, 11, 57.00000000000000000, #336 ) ;
#578 = DIRECTION ( 'NONE',  ( 0.000000000000000000, 0.000000000000000000, -1.000000000000000000 ) ) ;
#579 = ORIENTED_EDGE ( 'NONE', *, *, #164, .T. ) ;
#580 = AXIS2_PLACEMENT_3D ( 'NONE', #923, #308, #842 ) ;
#581 = EDGE_LOOP ( 'NONE', ( #773, #854 ) ) ;
#582 = VERTEX_POINT ( 'NONE', #134 ) ;
#583 = DIRECTION ( 'NONE',  ( -0.000000000000000000, -1.000000000000000000, -0.000000000000000000 ) ) ;
#584 = DIRECTION ( 'NONE',  ( -0.000000000000000000, 1.000000000000000000, -0.000000000000000000 ) ) ;
#585 = AXIS2_PLACEMENT_3D ( 'NONE', #647, #407, #431 ) ;
#586 = EDGE_CURVE ( 'NONE', #131, #553, #807, .T. ) ;
#587 = FACE_BOUND ( 'NONE', #858, .T. ) ;
#588 = FACE_BOUND ( 'NONE', #608, .T. ) ;
#589 = EDGE_CURVE ( 'NONE', #791, #446, #599, .T. ) ;
#590 = AXIS2_PLACEMENT_3D ( 'NONE', #799, #811, #901 ) ;
#591 = DIRECTION ( 'NONE',  ( -1.000000000000000000, 0.000000000000000000, 0.000000000000000000 ) ) ;
#592 = VECTOR ( 'NONE', #96, 1000.000000000000000 ) ;
#593 = DIRECTION ( 'NONE',  ( 0.000000000000000000, -0.000000000000000000, 1.000000000000000000 ) ) ;
#594 = ORIENTED_EDGE ( 'NONE', *, *, #695, .F. ) ;
#595 = CARTESIAN_POINT ( 'NONE',  ( 80.00000000000000000, -11.49999999999999645, -22.50000000000000000 ) ) ;
#596 = DIRECTION ( 'NONE',  ( 0.000000000000000000, 1.000000000000000000, 0.000000000000000000 ) ) ;
#597 = AXIS2_PLACEMENT_3D ( 'NONE', #243, #111, #677 ) ;
#598 = EDGE_CURVE ( 'NONE', #379, #170, #674, .T. ) ;
#599 = CIRCLE ( 'NONE', #348, 4.500000000000001776 ) ;
#600 = CARTESIAN_POINT ( 'NONE',  ( 19.99999999999999289, 7.500000000000003553, 7.500000000000000000 ) ) ;
#601 = EDGE_CURVE ( 'NONE', #524, #777, #133, .T. ) ;
#602 = DIRECTION ( 'NONE',  ( 0.000000000000000000, 0.000000000000000000, -1.000000000000000000 ) ) ;
#603 = CARTESIAN_POINT ( 'NONE',  ( 20.00000000000000355, -22.50099999999999767, -12.00000000000000000 ) ) ;
#604 = AXIS2_PLACEMENT_3D ( 'NONE', #761, #237, #303 ) ;
#605 = ORIENTED_EDGE ( 'NONE', *, *, #519, .T. ) ;
#606 = DIRECTION ( 'NONE',  ( 0.000000000000000000, 0.000000000000000000, 1.000000000000000000 ) ) ;
#607 = DIRECTION ( 'NONE',  ( -1.000000000000000000, 0.000000000000000000, 0.000000000000000000 ) ) ;
#608 = EDGE_LOOP ( 'NONE', ( #729, #45 ) ) ;
#609 = DIRECTION ( 'NONE',  ( 0.000000000000000000, 0.000000000000000000, 1.000000000000000000 ) ) ;
#610 = CIRCLE ( 'NONE', #455, 7.500000000000005329 ) ;
#611 = ADVANCED_FACE ( 'NONE', ( #810 ), #137, .F. ) ;
#612 = SHAPE_DEFINITION_REPRESENTATION ( #670, #824 ) ;
#613 = LINE ( 'NONE', #249, #497 ) ;
#614 = ORIENTED_EDGE ( 'NONE', *, *, #103, .F. ) ;
#615 = DIRECTION ( 'NONE',  ( -1.000000000000000000, 0.000000000000000000, 0.000000000000000000 ) ) ;
#616 = ORIENTED_EDGE ( 'NONE', *, *, #666, .F. ) ;
#617 = APPROVAL_DATE_TIME ( #159, #79 ) ;
#618 = LOCAL_TIME ( 14, 11, 57.00000000000000000, #35 ) ;
#619 = FACE_OUTER_BOUND ( 'NONE', #504, .T. ) ;
#620 = DIRECTION ( 'NONE',  ( -1.000000000000000000, 0.000000000000000000, 0.000000000000000000 ) ) ;
#621 = VERTEX_POINT ( 'NONE', #660 ) ;
#622 = DIRECTION ( 'NONE',  ( -0.000000000000000000, 1.000000000000000000, -0.000000000000000000 ) ) ;
#623 = ADVANCED_FACE ( 'NONE', ( #972, #587, #515 ), #812, .F. ) ;
#624 = DIRECTION ( 'NONE',  ( 0.000000000000000000, 0.7071067811865474617, 0.7071067811865474617 ) ) ;
#625 = EDGE_CURVE ( 'NONE', #913, #917, #538, .T. ) ;
#626 = CARTESIAN_POINT ( 'NONE',  ( 60.00000000000000711, -22.49999999999999645, -7.499999999999996447 ) ) ;
#627 = VERTEX_POINT ( 'NONE', #851 ) ;
#628 = ADVANCED_FACE ( 'NONE', ( #89 ), #29, .T. ) ;
#629 = ORIENTED_EDGE ( 'NONE', *, *, #509, .T. ) ;
#630 = CARTESIAN_POINT ( 'NONE',  ( 60.00000000000000711, -15.49999999999999645, -2.999999999999983569 ) ) ;
#631 = AXIS2_PLACEMENT_3D ( 'NONE', #1, #143, #73 ) ;
#632 = VERTEX_POINT ( 'NONE', #393 ) ;
#633 = PERSON_AND_ORGANIZATION ( #421, #210 ) ;
#634 = LINE ( 'NONE', #727, #8 ) ;
#635 = VECTOR ( 'NONE', #956, 1000.000000000000000 ) ;
#636 = ORIENTED_EDGE ( 'NONE', *, *, #528, .T. ) ;
#637 = DIRECTION ( 'NONE',  ( 0.000000000000000000, 0.7071067811865474617, 0.7071067811865474617 ) ) ;
#638 = CYLINDRICAL_SURFACE ( 'NONE', #974, 4.499999999999997335 ) ;
#639 = CARTESIAN_POINT ( 'NONE',  ( 20.00000000000000355, -15.49999999999999645, -2.999999999999998224 ) ) ;
#640 = ORIENTED_EDGE ( 'NONE', *, *, #906, .T. ) ;
#641 = LINE ( 'NONE', #855, #543 ) ;
#642 = DIRECTION ( 'NONE',  ( 0.000000000000000000, -0.7071067811865474617, -0.7071067811865474617 ) ) ;
#643 =( NAMED_UNIT ( * ) PLANE_ANGLE_UNIT ( ) SI_UNIT ( $, .RADIAN. ) );
#644 = VECTOR ( 'NONE', #535, 1000.000000000000000 ) ;
#645 = PLANE ( 'NONE',  #654 ) ;
#646 = EDGE_LOOP ( 'NONE', ( #897, #861 ) ) ;
#647 = CARTESIAN_POINT ( 'NONE',  ( 20.00000000000000355, -7.499999999999996447, -7.500000000000000000 ) ) ;
#648 = EDGE_CURVE ( 'NONE', #479, #124, #903, .T. ) ;
#649 = FACE_BOUND ( 'NONE', #959, .T. ) ;
#650 = ORIENTED_EDGE ( 'NONE', *, *, #22, .F. ) ;
#651 = ORIENTED_EDGE ( 'NONE', *, *, #586, .F. ) ;
#652 = FACE_OUTER_BOUND ( 'NONE', #414, .T. ) ;
#653 = VERTEX_POINT ( 'NONE', #166 ) ;
#654 = AXIS2_PLACEMENT_3D ( 'NONE', #38, #402, #270 ) ;
#655 = CC_DESIGN_APPROVAL ( #79, ( #821 ) ) ;
#656 = EDGE_LOOP ( 'NONE', ( #650, #808, #287, #564 ) ) ;
#657 = DIRECTION ( 'NONE',  ( 0.000000000000000000, 0.000000000000000000, -1.000000000000000000 ) ) ;
#658 = DIRECTION ( 'NONE',  ( 0.000000000000000000, -0.7071067811865475727, 0.7071067811865475727 ) ) ;
#659 = EDGE_CURVE ( 'NONE', #120, #766, #937, .T. ) ;
#660 = CARTESIAN_POINT ( 'NONE',  ( 0.000000000000000000, -7.499999999999996447, -18.50000000000000000 ) ) ;
#661 = DIRECTION ( 'NONE',  ( -0.000000000000000000, -0.000000000000000000, 1.000000000000000000 ) ) ;
#662 = AXIS2_PLACEMENT_3D ( 'NONE', #545, #171, #470 ) ;
#663 = ORIENTED_EDGE ( 'NONE', *, *, #269, .F. ) ;
#664 = CARTESIAN_POINT ( 'NONE',  ( 0.000000000000000000, -7.499999999999996447, -18.50000000000000000 ) ) ;
#665 = CARTESIAN_POINT ( 'NONE',  ( 60.00000000000000711, -15.49999999999999645, -15.00000000000000178 ) ) ;
#666 = EDGE_CURVE ( 'NONE', #524, #131, #242, .T. ) ;
#667 = DIRECTION ( 'NONE',  ( 0.000000000000000000, 0.000000000000000000, 1.000000000000000000 ) ) ;
#668 = AXIS2_PLACEMENT_3D ( 'NONE', #104, #947, #33 ) ;
#669 = PLANE ( 'NONE',  #43 ) ;
#670 = PRODUCT_DEFINITION_SHAPE ( 'NONE', 'NONE',  #748 ) ;
#671 = LINE ( 'NONE', #664, #54 ) ;
#672 = ORIENTED_EDGE ( 'NONE', *, *, #847, .T. ) ;
#673 = EDGE_CURVE ( 'NONE', #922, #147, #690, .T. ) ;
#674 = CIRCLE ( 'NONE', #248, 4.500000000000012434 ) ;
#675 = DIRECTION ( 'NONE',  ( -0.000000000000000000, -1.000000000000000000, -0.000000000000000000 ) ) ;
#676 = VECTOR ( 'NONE', #984, 1000.000000000000000 ) ;
#677 = DIRECTION ( 'NONE',  ( -1.000000000000000000, 0.000000000000000000, 0.000000000000000000 ) ) ;
#678 = EDGE_LOOP ( 'NONE', ( #116, #594, #663, #853 ) ) ;
#679 = EDGE_CURVE ( 'NONE', #764, #686, #23, .T. ) ;
#680 = CARTESIAN_POINT ( 'NONE',  ( 19.99999999999999289, 7.500000000000003553, 15.50000000000000000 ) ) ;
#681 = EDGE_CURVE ( 'NONE', #102, #398, #238, .T. ) ;
#682 = ORIENTED_EDGE ( 'NONE', *, *, #165, .T. ) ;
#683 = DIRECTION ( 'NONE',  ( 0.000000000000000000, 0.000000000000000000, 1.000000000000000000 ) ) ;
#684 = AXIS2_PLACEMENT_3D ( 'NONE', #760, #185, #459 ) ;
#685 = LINE ( 'NONE', #463, #4 ) ;
#686 = VERTEX_POINT ( 'NONE', #844 ) ;
#687 = CARTESIAN_POINT ( 'NONE',  ( 55.50000000000000000, 7.500000000000003553, 87.50000000000000000 ) ) ;
#688 = EDGE_LOOP ( 'NONE', ( #692, #640 ) ) ;
#689 = LINE ( 'NONE', #767, #490 ) ;
#690 = LINE ( 'NONE', #401, #298 ) ;
#691 = DIRECTION ( 'NONE',  ( 0.000000000000000000, 0.000000000000000000, 1.000000000000000000 ) ) ;
#692 = ORIENTED_EDGE ( 'NONE', *, *, #209, .T. ) ;
#693 = EDGE_CURVE ( 'NONE', #93, #83, #685, .T. ) ;
#694 = CARTESIAN_POINT ( 'NONE',  ( 55.50000000000000000, 7.500000000000003553, 22.49999999999999289 ) ) ;
#695 = EDGE_CURVE ( 'NONE', #478, #547, #613, .T. ) ;
#696 = DATE_AND_TIME ( #468, #27 ) ;
#697 = CC_DESIGN_APPROVAL ( #142, ( #277 ) ) ;
#698 = EDGE_CURVE ( 'NONE', #87, #632, #833, .T. ) ;
#699 = DIRECTION ( 'NONE',  ( -1.000000000000000000, 0.000000000000000000, 0.000000000000000000 ) ) ;
#700 = DIRECTION ( 'NONE',  ( 0.000000000000000000, 1.000000000000000000, 0.000000000000000000 ) ) ;
#701 = ORIENTED_EDGE ( 'NONE', *, *, #528, .F. ) ;
#702 = ORIENTED_EDGE ( 'NONE', *, *, #759, .F. ) ;
#703 = DIRECTION ( 'NONE',  ( 0.000000000000000000, -1.000000000000000000, 0.000000000000000000 ) ) ;
#704 = CIRCLE ( 'NONE', #279, 7.500000000000000000 ) ;
#705 = EDGE_LOOP ( 'NONE', ( #409, #749, #114, #955 ) ) ;
#706 = APPLICATION_PROTOCOL_DEFINITION ( 'international standard', 'config_control_design', 1994, #88 ) ;
#707 = DIRECTION ( 'NONE',  ( 0.000000000000000000, 0.000000000000000000, -1.000000000000000000 ) ) ;
#708 = DIRECTION ( 'NONE',  ( -1.000000000000000000, 0.000000000000000000, 0.000000000000000000 ) ) ;
#709 = PLANE ( 'NONE',  #462 ) ;
#710 = CARTESIAN_POINT ( 'NONE',  ( 60.00000000000000711, -15.49999999999999645, -7.499999999999996447 ) ) ;
#711 = AXIS2_PLACEMENT_3D ( 'NONE', #268, #416, #195 ) ;
#712 = ORIENTED_EDGE ( 'NONE', *, *, #980, .F. ) ;
#713 = CARTESIAN_POINT ( 'NONE',  ( 0.000000000000000000, 0.000000000000000000, 0.000000000000000000 ) ) ;
#714 = FACE_OUTER_BOUND ( 'NONE', #740, .T. ) ;
#715 = AXIS2_PLACEMENT_3D ( 'NONE', #139, #661, #217 ) ;
#716 = ORIENTED_EDGE ( 'NONE', *, *, #673, .T. ) ;
#717 = CARTESIAN_POINT ( 'NONE',  ( 60.00000000000000711, -22.50099999999999767, -7.499999999999996447 ) ) ;
#718 = EDGE_LOOP ( 'NONE', ( #629, #297, #492, #146 ) ) ;
#719 = DIRECTION ( 'NONE',  ( 0.000000000000000000, 0.000000000000000000, -1.000000000000000000 ) ) ;
#720 =( NAMED_UNIT ( * ) SI_UNIT ( $, .STERADIAN. ) SOLID_ANGLE_UNIT ( ) );
#721 = VECTOR ( 'NONE', #465, 1000.000000000000000 ) ;
#722 = CARTESIAN_POINT ( 'NONE',  ( 20.00000000000000355, -15.49999999999999645, -8.673617379884035472E-16 ) ) ;
#723 = ADVANCED_FACE ( 'NONE', ( #109 ), #95, .F. ) ;
#724 = FACE_BOUND ( 'NONE', #646, .T. ) ;
#725 = DATE_AND_TIME ( #796, #64 ) ;
#726 = CIRCLE ( 'NONE', #856, 7.499999999999999112 ) ;
#727 = CARTESIAN_POINT ( 'NONE',  ( 80.00000000000000000, 22.50000000000000355, 22.50000000000000000 ) ) ;
#728 = ORIENTED_EDGE ( 'NONE', *, *, #825, .T. ) ;
#729 = ORIENTED_EDGE ( 'NONE', *, *, #50, .T. ) ;
#730 = DIRECTION ( 'NONE',  ( 0.000000000000000000, 0.000000000000000000, -1.000000000000000000 ) ) ;
#731 = VECTOR ( 'NONE', #17, 1000.000000000000000 ) ;
#732 = CARTESIAN_POINT ( 'NONE',  ( 60.00000000000000000, 7.500000000000003553, 7.500000000000000000 ) ) ;
#733 = EDGE_CURVE ( 'NONE', #124, #479, #830, .T. ) ;
#734 = DIRECTION ( 'NONE',  ( -1.000000000000000000, 0.000000000000000000, 0.000000000000000000 ) ) ;
#735 = ADVANCED_FACE ( 'NONE', ( #619, #931 ), #867, .T. ) ;
#736 = VECTOR ( 'NONE', #900, 1000.000000000000000 ) ;
#737 = CC_DESIGN_PERSON_AND_ORGANIZATION_ASSIGNMENT ( #392, #456, ( #277 ) ) ;
#738 = CARTESIAN_POINT ( 'NONE',  ( 60.00000000000000711, -15.49999999999999645, -7.499999999999996447 ) ) ;
#739 = DIRECTION ( 'NONE',  ( 0.000000000000000000, 0.000000000000000000, -1.000000000000000000 ) ) ;
#740 = EDGE_LOOP ( 'NONE', ( #451, #186, #129, #355 ) ) ;
#741 = ORIENTED_EDGE ( 'NONE', *, *, #486, .F. ) ;
#742 = CARTESIAN_POINT ( 'NONE',  ( 80.00000000000000000, -11.49999999999999645, -22.50000000000000000 ) ) ;
#743 = CARTESIAN_POINT ( 'NONE',  ( 80.00000000000000000, -22.49999999999999645, -22.50000000000000000 ) ) ;
#744 = CIRCLE ( 'NONE', #585, 7.499999999999999112 ) ;
#745 = ORIENTED_EDGE ( 'NONE', *, *, #679, .T. ) ;
#746 = DIRECTION ( 'NONE',  ( -0.000000000000000000, 1.000000000000000000, -0.000000000000000000 ) ) ;
#747 = CARTESIAN_POINT ( 'NONE',  ( 0.000000000000000000, -22.49999999999999645, -22.50000000000000000 ) ) ;
#748 = PRODUCT_DEFINITION ( '未知', '', #277, #909 ) ;
#749 = ORIENTED_EDGE ( 'NONE', *, *, #659, .T. ) ;
#750 = LINE ( 'NONE', #918, #57 ) ;
#751 = LINE ( 'NONE', #893, #809 ) ;
#752 = ADVANCED_FACE ( 'NONE', ( #58, #724, #652 ), #878, .F. ) ;
#753 = ORIENTED_EDGE ( 'NONE', *, *, #315, .F. ) ;
#754 = ORIENTED_EDGE ( 'NONE', *, *, #806, .F. ) ;
#755 = CIRCLE ( 'NONE', #631, 4.499999999999997335 ) ;
#756 = CARTESIAN_POINT ( 'NONE',  ( 19.99999999999999289, 7.500000000000003553, 7.500000000000000000 ) ) ;
#757 = ADVANCED_FACE ( 'NONE', ( #567 ), #125, .F. ) ;
#758 = AXIS2_PLACEMENT_3D ( 'NONE', #713, #52, #400 ) ;
#759 = EDGE_CURVE ( 'NONE', #890, #627, #610, .T. ) ;
#760 = CARTESIAN_POINT ( 'NONE',  ( 19.99999999999999289, 7.500000000000003553, 15.50000000000000000 ) ) ;
#761 = CARTESIAN_POINT ( 'NONE',  ( 60.00000000000000711, -7.499999999999996447, -7.499999999999996447 ) ) ;
#762 = CALENDAR_DATE ( 2026, 4, 9 ) ;
#763 = DIRECTION ( 'NONE',  ( -1.000000000000000000, -0.000000000000000000, -0.000000000000000000 ) ) ;
#764 = VERTEX_POINT ( 'NONE', #574 ) ;
#765 = CARTESIAN_POINT ( 'NONE',  ( 80.00000000000000000, -22.49999999999999645, 22.50000000000000000 ) ) ;
#766 = VERTEX_POINT ( 'NONE', #857 ) ;
#767 = CARTESIAN_POINT ( 'NONE',  ( 27.49999999999999289, 7.500000000000004441, 15.50000000000000000 ) ) ;
#768 = VECTOR ( 'NONE', #845, 1000.000000000000000 ) ;
#769 = ADVANCED_FACE ( 'NONE', ( #883 ), #638, .F. ) ;
#770 = DIRECTION ( 'NONE',  ( -0.000000000000000000, -1.000000000000000000, -0.000000000000000000 ) ) ;
#771 = CARTESIAN_POINT ( 'NONE',  ( 60.00000000000000000, 7.500000000000003553, 15.50000000000000000 ) ) ;
#772 = ORIENTED_EDGE ( 'NONE', *, *, #930, .F. ) ;
#773 = ORIENTED_EDGE ( 'NONE', *, *, #92, .F. ) ;
#774 = APPROVAL ( #800, '未指定' ) ;
#775 = CARTESIAN_POINT ( 'NONE',  ( 80.00000000000000000, -22.49999999999999645, 22.50000000000000000 ) ) ;
#776 = CARTESIAN_POINT ( 'NONE',  ( 24.49999999999998934, 7.500000000000004441, 22.49999999999999289 ) ) ;
#777 = VERTEX_POINT ( 'NONE', #507 ) ;
#778 = DIRECTION ( 'NONE',  ( 0.000000000000000000, 0.000000000000000000, 1.000000000000000000 ) ) ;
#779 = AXIS2_PLACEMENT_3D ( 'NONE', #412, #798, #708 ) ;
#780 = EDGE_CURVE ( 'NONE', #917, #764, #115, .T. ) ;
#781 = ORIENTED_EDGE ( 'NONE', *, *, #825, .F. ) ;
#782 = APPROVAL_DATE_TIME ( #725, #774 ) ;
#783 = DIRECTION ( 'NONE',  ( -0.000000000000000000, 1.000000000000000000, -0.000000000000000000 ) ) ;
#784 = DIRECTION ( 'NONE',  ( 0.000000000000000000, -1.000000000000000000, -0.000000000000000000 ) ) ;
#785 = ORIENTED_EDGE ( 'NONE', *, *, #679, .F. ) ;
#786 = DIRECTION ( 'NONE',  ( 0.000000000000000000, 0.000000000000000000, 1.000000000000000000 ) ) ;
#787 = VECTOR ( 'NONE', #333, 1000.000000000000000 ) ;
#788 = DIRECTION ( 'NONE',  ( 1.000000000000000000, 0.000000000000000000, 0.000000000000000000 ) ) ;
#789 = ORIENTED_EDGE ( 'NONE', *, *, #693, .F. ) ;
#790 = FACE_OUTER_BOUND ( 'NONE', #59, .T. ) ;
#791 = VERTEX_POINT ( 'NONE', #352 ) ;
#792 = DIRECTION ( 'NONE',  ( 0.000000000000000000, -0.000000000000000000, -1.000000000000000000 ) ) ;
#793 = ORIENTED_EDGE ( 'NONE', *, *, #3, .F. ) ;
#794 = CARTESIAN_POINT ( 'NONE',  ( 55.50000000000000000, 7.500000000000003553, 15.50000000000000000 ) ) ;
#795 = VECTOR ( 'NONE', #873, 1000.000000000000000 ) ;
#796 = CALENDAR_DATE ( 2026, 4, 9 ) ;
#797 = EDGE_CURVE ( 'NONE', #420, #379, #803, .T. ) ;
#798 = DIRECTION ( 'NONE',  ( -0.000000000000000000, -0.000000000000000000, -1.000000000000000000 ) ) ;
#799 = CARTESIAN_POINT ( 'NONE',  ( 19.99999999999999289, 7.500000000000003553, 87.50000000000000000 ) ) ;
#800 = APPROVAL_STATUS ( 'not_yet_approved' ) ;
#801 = CIRCLE ( 'NONE', #168, 4.499999999999997335 ) ;
#802 = DIRECTION ( 'NONE',  ( 0.000000000000000000, -0.000000000000000000, 1.000000000000000000 ) ) ;
#803 = LINE ( 'NONE', #805, #795 ) ;
#804 = CARTESIAN_POINT ( 'NONE',  ( 60.00000000000000000, 7.500000000000003553, 15.50000000000000000 ) ) ;
#805 = CARTESIAN_POINT ( 'NONE',  ( 60.00000000000000711, -22.50099999999999767, -12.00000000000000888 ) ) ;
#806 = EDGE_CURVE ( 'NONE', #686, #922, #965, .T. ) ;
#807 = CIRCLE ( 'NONE', #511, 7.500000000000000000 ) ;
#808 = ORIENTED_EDGE ( 'NONE', *, *, #733, .F. ) ;
#809 = VECTOR ( 'NONE', #584, 1000.000000000000000 ) ;
#810 = FACE_OUTER_BOUND ( 'NONE', #536, .T. ) ;
#811 = DIRECTION ( 'NONE',  ( 0.000000000000000000, 0.000000000000000000, -1.000000000000000000 ) ) ;
#812 = PLANE ( 'NONE',  #372 ) ;
#813 = FACE_OUTER_BOUND ( 'NONE', #985, .T. ) ;
#814 = AXIS2_PLACEMENT_3D ( 'NONE', #680, #921, #607 ) ;
#815 = LINE ( 'NONE', #233, #296 ) ;
#816 = CARTESIAN_POINT ( 'NONE',  ( 80.00000000000000000, -7.499999999999996447, 7.500000000000000000 ) ) ;
#817 = ORIENTED_EDGE ( 'NONE', *, *, #906, .F. ) ;
#818 = EDGE_CURVE ( 'NONE', #223, #520, #744, .T. ) ;
#819 = DIRECTION ( 'NONE',  ( 0.000000000000000000, 0.000000000000000000, 1.000000000000000000 ) ) ;
#820 = FACE_BOUND ( 'NONE', #299, .T. ) ;
#821 = SECURITY_CLASSIFICATION ( '', '', #310 ) ;
#822 = DIRECTION ( 'NONE',  ( -1.000000000000000000, 0.000000000000000000, 0.000000000000000000 ) ) ;
#823 = CIRCLE ( 'NONE', #399, 7.500000000000000000 ) ;
#824 = ADVANCED_BREP_SHAPE_REPRESENTATION ( '固定码', ( #423, #758 ), #942 ) ;
#825 = EDGE_CURVE ( 'NONE', #627, #890, #158, .T. ) ;
#826 = ORIENTED_EDGE ( 'NONE', *, *, #37, .F. ) ;
#827 = EDGE_CURVE ( 'NONE', #437, #582, #571, .T. ) ;
#828 = PERSON_AND_ORGANIZATION_ROLE ( 'classification_officer' ) ;
#829 = ORIENTED_EDGE ( 'NONE', *, *, #130, .T. ) ;
#830 = CIRCLE ( 'NONE', #662, 4.499999999999997335 ) ;
#831 = CYLINDRICAL_SURFACE ( 'NONE', #174, 4.500000000000001776 ) ;
#832 = CARTESIAN_POINT ( 'NONE',  ( 20.00000000000000355, -15.49999999999999645, -7.500000000000000000 ) ) ;
#833 = LINE ( 'NONE', #482, #443 ) ;
#834 = CYLINDRICAL_SURFACE ( 'NONE', #957, 7.500000000000000000 ) ;
#835 = ORIENTED_EDGE ( 'NONE', *, *, #554, .F. ) ;
#836 = DIRECTION ( 'NONE',  ( -0.000000000000000000, 1.000000000000000000, -0.000000000000000000 ) ) ;
#837 = AXIS2_PLACEMENT_3D ( 'NONE', #397, #480, #778 ) ;
#838 = ADVANCED_FACE ( 'NONE', ( #40 ), #273, .F. ) ;
#839 = CARTESIAN_POINT ( 'NONE',  ( 80.00000000000000000, -11.49999999999999645, -22.50000000000000000 ) ) ;
#840 = CARTESIAN_POINT ( 'NONE',  ( 60.00000000000000000, 7.500000000000003553, 7.500000000000000000 ) ) ;
#841 = ORIENTED_EDGE ( 'NONE', *, *, #818, .T. ) ;
#842 = DIRECTION ( 'NONE',  ( 0.000000000000000000, 0.000000000000000000, 1.000000000000000000 ) ) ;
#843 = CIRCLE ( 'NONE', #145, 7.500000000000000000 ) ;
#844 = CARTESIAN_POINT ( 'NONE',  ( 80.00000000000000000, -7.499999999999996447, -18.50000000000000000 ) ) ;
#845 = DIRECTION ( 'NONE',  ( -0.000000000000000000, 1.000000000000000000, 0.000000000000000000 ) ) ;
#846 = VECTOR ( 'NONE', #624, 1000.000000000000114 ) ;
#847 = EDGE_CURVE ( 'NONE', #83, #481, #261, .T. ) ;
#848 = ORIENTED_EDGE ( 'NONE', *, *, #37, .T. ) ;
#849 = ORIENTED_EDGE ( 'NONE', *, *, #280, .T. ) ;
#850 = CYLINDRICAL_SURFACE ( 'NONE', #85, 4.500000000000012434 ) ;
#851 = CARTESIAN_POINT ( 'NONE',  ( 60.00000000000000711, -15.49999999999999645, 8.673617379884035472E-15 ) ) ;
#852 = CARTESIAN_POINT ( 'NONE',  ( 80.00000000000000000, 22.50000000000000355, 22.50000000000000000 ) ) ;
#853 = ORIENTED_EDGE ( 'NONE', *, *, #681, .T. ) ;
#854 = ORIENTED_EDGE ( 'NONE', *, *, #818, .F. ) ;
#855 = CARTESIAN_POINT ( 'NONE',  ( 0.000000000000000000, -11.49999999999999645, -22.50000000000000000 ) ) ;
#856 = AXIS2_PLACEMENT_3D ( 'NONE', #343, #491, #870 ) ;
#857 = CARTESIAN_POINT ( 'NONE',  ( 20.00000000000000355, -22.49999999999999645, -2.999999999999998224 ) ) ;
#858 = EDGE_LOOP ( 'NONE', ( #793, #573 ) ) ;
#859 = PERSON_AND_ORGANIZATION ( #421, #210 ) ;
#860 = DIRECTION ( 'NONE',  ( 0.000000000000000000, 0.000000000000000000, 1.000000000000000000 ) ) ;
#861 = ORIENTED_EDGE ( 'NONE', *, *, #76, .F. ) ;
#862 = VERTEX_POINT ( 'NONE', #794 ) ;
#863 = EDGE_CURVE ( 'NONE', #437, #884, #309, .T. ) ;
#864 = LINE ( 'NONE', #551, #929 ) ;
#865 = AXIS2_PLACEMENT_3D ( 'NONE', #832, #836, #683 ) ;
#866 = ORIENTED_EDGE ( 'NONE', *, *, #943, .T. ) ;
#867 = PLANE ( 'NONE',  #198 ) ;
#868 = EDGE_CURVE ( 'NONE', #917, #481, #205, .T. ) ;
#869 = APPROVAL_ROLE ( '' ) ;
#870 = DIRECTION ( 'NONE',  ( 0.000000000000000000, 0.000000000000000000, 1.000000000000000000 ) ) ;
#871 = CARTESIAN_POINT ( 'NONE',  ( 20.00000000000000355, -22.49999999999999645, -12.00000000000000000 ) ) ;
#872 = ORIENTED_EDGE ( 'NONE', *, *, #980, .T. ) ;
#873 = DIRECTION ( 'NONE',  ( -0.000000000000000000, 1.000000000000000000, 0.000000000000000000 ) ) ;
#874 = VECTOR ( 'NONE', #51, 1000.000000000000000 ) ;
#875 = APPLICATION_PROTOCOL_DEFINITION ( 'international standard', 'config_control_design', 1994, #542 ) ;
#876 = CARTESIAN_POINT ( 'NONE',  ( 0.000000000000000000, 22.50000000000000355, 22.50000000000000000 ) ) ;
#877 = ORIENTED_EDGE ( 'NONE', *, *, #182, .T. ) ;
#878 = PLANE ( 'NONE',  #232 ) ;
#879 = ADVANCED_FACE ( 'NONE', ( #200 ), #500, .F. ) ;
#880 = DIRECTION ( 'NONE',  ( -0.000000000000000000, 1.000000000000000000, -0.000000000000000000 ) ) ;
#881 = ADVANCED_FACE ( 'NONE', ( #144 ), #435, .F. ) ;
#882 = ORIENTED_EDGE ( 'NONE', *, *, #868, .T. ) ;
#883 = FACE_OUTER_BOUND ( 'NONE', #489, .T. ) ;
#884 = VERTEX_POINT ( 'NONE', #518 ) ;
#885 = EDGE_LOOP ( 'NONE', ( #566, #183, #826, #772 ) ) ;
#886 = DIRECTION ( 'NONE',  ( 0.000000000000000000, -0.7071067811865475727, 0.7071067811865475727 ) ) ;
#887 = DIRECTION ( 'NONE',  ( -1.000000000000000000, 0.000000000000000000, -0.000000000000000000 ) ) ;
#888 = AXIS2_PLACEMENT_3D ( 'NONE', #322, #184, #330 ) ;
#889 = AXIS2_PLACEMENT_3D ( 'NONE', #318, #783, #924 ) ;
#890 = VERTEX_POINT ( 'NONE', #665 ) ;
#891 = AXIS2_PLACEMENT_3D ( 'NONE', #213, #72, #439 ) ;
#892 = CARTESIAN_POINT ( 'NONE',  ( 0.000000000000000000, -22.49999999999999645, -22.50000000000000000 ) ) ;
#893 = CARTESIAN_POINT ( 'NONE',  ( 60.00000000000000711, -15.49999999999999645, -15.00000000000000178 ) ) ;
#894 = AXIS2_PLACEMENT_3D ( 'NONE', #31, #700, #691 ) ;
#895 = DIRECTION ( 'NONE',  ( 0.000000000000000000, -1.000000000000000000, 0.000000000000000000 ) ) ;
#896 = CARTESIAN_POINT ( 'NONE',  ( 80.00000000000000000, -22.49999999999999645, 22.50000000000000000 ) ) ;
#897 = ORIENTED_EDGE ( 'NONE', *, *, #69, .F. ) ;
#898 = PRODUCT ( '固定码', '固定码', '', ( #417 ) ) ;
#899 = VECTOR ( 'NONE', #484, 1000.000000000000000 ) ;
#900 = DIRECTION ( 'NONE',  ( -1.000000000000000000, -0.000000000000000000, -0.000000000000000000 ) ) ;
#901 = DIRECTION ( 'NONE',  ( -1.000000000000000000, 0.000000000000000000, 0.000000000000000000 ) ) ;
#902 = CIRCLE ( 'NONE', #472, 4.499999999999997335 ) ;
#903 = CIRCLE ( 'NONE', #475, 4.499999999999997335 ) ;
#904 = ORIENTED_EDGE ( 'NONE', *, *, #209, .F. ) ;
#905 = DIRECTION ( 'NONE',  ( 0.000000000000000000, 0.000000000000000000, -1.000000000000000000 ) ) ;
#906 = EDGE_CURVE ( 'NONE', #286, #87, #457, .T. ) ;
#907 = VECTOR ( 'NONE', #575, 1000.000000000000000 ) ;
#908 = ADVANCED_FACE ( 'NONE', ( #523, #820 ), #669, .T. ) ;
#909 = DESIGN_CONTEXT ( 'detailed design', #88, 'design' ) ;
#910 = ORIENTED_EDGE ( 'NONE', *, *, #509, .F. ) ;
#911 = CC_DESIGN_PERSON_AND_ORGANIZATION_ASSIGNMENT ( #380, #375, ( #277 ) ) ;
#912 = AXIS2_PLACEMENT_3D ( 'NONE', #454, #602, #822 ) ;
#913 = VERTEX_POINT ( 'NONE', #973 ) ;
#914 = CARTESIAN_POINT ( 'NONE',  ( 0.000000000000000000, 22.50000000000000355, 11.50000000000000000 ) ) ;
#915 = VERTEX_POINT ( 'NONE', #78 ) ;
#916 = PERSON_AND_ORGANIZATION ( #421, #210 ) ;
#917 = VERTEX_POINT ( 'NONE', #743 ) ;
#918 = CARTESIAN_POINT ( 'NONE',  ( 20.00000000000000355, -15.49999999999999645, -15.00000000000000000 ) ) ;
#919 = ORIENTED_EDGE ( 'NONE', *, *, #527, .T. ) ;
#920 = AXIS2_PLACEMENT_3D ( 'NONE', #357, #658, #642 ) ;
#921 = DIRECTION ( 'NONE',  ( -0.000000000000000000, -0.000000000000000000, 1.000000000000000000 ) ) ;
#922 = VERTEX_POINT ( 'NONE', #816 ) ;
#923 = CARTESIAN_POINT ( 'NONE',  ( 20.00000000000000355, -15.49999999999999645, -7.500000000000000000 ) ) ;
#924 = DIRECTION ( 'NONE',  ( 0.000000000000000000, 0.000000000000000000, 1.000000000000000000 ) ) ;
#925 = EDGE_LOOP ( 'NONE', ( #968, #384 ) ) ;
#926 = LINE ( 'NONE', #178, #469 ) ;
#927 = VERTEX_POINT ( 'NONE', #514 ) ;
#928 = ORIENTED_EDGE ( 'NONE', *, *, #695, .T. ) ;
#929 = VECTOR ( 'NONE', #405, 1000.000000000000000 ) ;
#930 = EDGE_CURVE ( 'NONE', #915, #170, #208, .T. ) ;
#931 = FACE_BOUND ( 'NONE', #382, .T. ) ;
#932 = CARTESIAN_POINT ( 'NONE',  ( 24.49999999999998934, 7.500000000000004441, 15.50000000000000000 ) ) ;
#933 = ORIENTED_EDGE ( 'NONE', *, *, #666, .T. ) ;
#934 = FACE_OUTER_BOUND ( 'NONE', #316, .T. ) ;
#935 = CARTESIAN_POINT ( 'NONE',  ( 80.00000000000000000, 18.50000000000000355, 7.500000000000000000 ) ) ;
#936 = DIRECTION ( 'NONE',  ( 0.000000000000000000, 0.000000000000000000, 1.000000000000000000 ) ) ;
#937 = CIRCLE ( 'NONE', #176, 4.500000000000001776 ) ;
#938 = ORIENTED_EDGE ( 'NONE', *, *, #156, .F. ) ;
#939 = ORIENTED_EDGE ( 'NONE', *, *, #201, .F. ) ;
#940 = DIRECTION ( 'NONE',  ( -0.000000000000000000, 1.000000000000000000, 0.000000000000000000 ) ) ;
#941 = PERSON_AND_ORGANIZATION_ROLE ( 'design_owner' ) ;
#942 =( GEOMETRIC_REPRESENTATION_CONTEXT ( 3 ) GLOBAL_UNCERTAINTY_ASSIGNED_CONTEXT ( ( #98 ) ) GLOBAL_UNIT_ASSIGNED_CONTEXT ( ( #962, #643, #720 ) ) REPRESENTATION_CONTEXT ( 'NONE', 'WORKASPACE' ) );
#943 = EDGE_CURVE ( 'NONE', #862, #41, #977, .T. ) ;
#944 = DIRECTION ( 'NONE',  ( -1.000000000000000000, -0.000000000000000000, -0.000000000000000000 ) ) ;
#945 = ORIENTED_EDGE ( 'NONE', *, *, #373, .F. ) ;
#946 = ORIENTED_EDGE ( 'NONE', *, *, #76, .T. ) ;
#947 = DIRECTION ( 'NONE',  ( 0.000000000000000000, -1.000000000000000000, -0.000000000000000000 ) ) ;
#948 = ADVANCED_FACE ( 'NONE', ( #813, #588 ), #285, .T. ) ;
#949 = ORIENTED_EDGE ( 'NONE', *, *, #827, .F. ) ;
#950 = CARTESIAN_POINT ( 'NONE',  ( 19.99999999999999289, 7.500000000000003553, 87.50000000000000000 ) ) ;
#951 = ORIENTED_EDGE ( 'NONE', *, *, #201, .T. ) ;
#952 = CARTESIAN_POINT ( 'NONE',  ( 60.00000000000000711, -15.49999999999999645, -12.00000000000000888 ) ) ;
#953 = ORIENTED_EDGE ( 'NONE', *, *, #138, .F. ) ;
#954 = DIRECTION ( 'NONE',  ( 1.000000000000000000, 0.000000000000000000, -0.000000000000000000 ) ) ;
#955 = ORIENTED_EDGE ( 'NONE', *, *, #589, .F. ) ;
#956 = DIRECTION ( 'NONE',  ( -1.000000000000000000, -0.000000000000000000, -0.000000000000000000 ) ) ;
#957 = AXIS2_PLACEMENT_3D ( 'NONE', #771, #19, #615 ) ;
#958 = LINE ( 'NONE', #197, #260 ) ;
#959 = EDGE_LOOP ( 'NONE', ( #848, #215 ) ) ;
#960 = EDGE_CURVE ( 'NONE', #890, #179, #751, .T. ) ;
#961 = DIRECTION ( 'NONE',  ( 0.000000000000000000, 1.000000000000000000, 0.000000000000000000 ) ) ;
#962 =( LENGTH_UNIT ( ) NAMED_UNIT ( * ) SI_UNIT ( .MILLI., .METRE. ) );
#963 = DIRECTION ( 'NONE',  ( -1.000000000000000000, 0.000000000000000000, -0.000000000000000000 ) ) ;
#964 = ORIENTED_EDGE ( 'NONE', *, *, #341, .T. ) ;
#965 = LINE ( 'NONE', #488, #874 ) ;
#966 = ORIENTED_EDGE ( 'NONE', *, *, #181, .F. ) ;
#967 = ADVANCED_FACE ( 'NONE', ( #445, #363, #149 ), #289, .F. ) ;
#968 = ORIENTED_EDGE ( 'NONE', *, *, #733, .T. ) ;
#969 = DIRECTION ( 'NONE',  ( 0.000000000000000000, 0.000000000000000000, 1.000000000000000000 ) ) ;
#970 = CARTESIAN_POINT ( 'NONE',  ( 60.00000000000000000, 7.500000000000003553, 15.50000000000000000 ) ) ;
#971 = EDGE_LOOP ( 'NONE', ( #939, #464, #946, #949 ) ) ;
#972 = FACE_BOUND ( 'NONE', #581, .T. ) ;
#973 = CARTESIAN_POINT ( 'NONE',  ( 80.00000000000000000, -22.49999999999999645, 22.50000000000000000 ) ) ;
#974 = AXIS2_PLACEMENT_3D ( 'NONE', #188, #335, #203 ) ;
#975 = EDGE_CURVE ( 'NONE', #481, #466, #526, .T. ) ;
#976 = ORIENTED_EDGE ( 'NONE', *, *, #156, .T. ) ;
#977 = CIRCLE ( 'NONE', #715, 4.499999999999997335 ) ;
#978 = PLANE ( 'NONE',  #300 ) ;
#979 = DIRECTION ( 'NONE',  ( -0.000000000000000000, 1.000000000000000000, 0.000000000000000000 ) ) ;
#980 = EDGE_CURVE ( 'NONE', #777, #553, #152, .T. ) ;
#981 = CIRCLE ( 'NONE', #837, 7.499999999999999112 ) ;
#982 = ORIENTED_EDGE ( 'NONE', *, *, #797, .F. ) ;
#983 = DIRECTION ( 'NONE',  ( 0.000000000000000000, -0.7071067811865474617, -0.7071067811865474617 ) ) ;
#984 = DIRECTION ( 'NONE',  ( 0.000000000000000000, 1.000000000000000000, 0.000000000000000000 ) ) ;
#985 = EDGE_LOOP ( 'NONE', ( #579, #112 ) ) ;
ENDSEC;
END-ISO-10303-21;
