ISO-10303-21;
HEADER;
FILE_DESCRIPTION (( 'STEP AP203' ),
    '1' );
FILE_NAME ('底座.STEP',
    '2026-09-03T06:55:49',
    ( 'YSGS' ),
    ( 'HP' ),
    'SwSTEP 2.0',
    'SolidWorks 2021',
    '' );
FILE_SCHEMA (( 'CONFIG_CONTROL_DESIGN' ));
ENDSEC;

DATA;
#1 = CARTESIAN_POINT ( 'NONE',  ( 19.99999999999996092, 20.00000000000000000, 74.09999999999995168 ) ) ;
#2 = DIRECTION ( 'NONE',  ( -0.000000000000000000, -1.000000000000000000, -0.000000000000000000 ) ) ;
#3 = DIRECTION ( 'NONE',  ( -0.000000000000000000, -1.000000000000000000, -0.000000000000000000 ) ) ;
#4 = LINE ( 'NONE', #188, #791 ) ;
#5 = AXIS2_PLACEMENT_3D ( 'NONE', #173, #918, #904 ) ;
#6 = FACE_OUTER_BOUND ( 'NONE', #622, .T. ) ;
#7 = EDGE_CURVE ( 'NONE', #75, #655, #999, .T. ) ;
#8 = CIRCLE ( 'NONE', #519, 110.0000000000000000 ) ;
#9 = VERTEX_POINT ( 'NONE', #515 ) ;
#10 = CARTESIAN_POINT ( 'NONE',  ( 19.99999999999996092, 20.00000000000000000, 69.99999999999997158 ) ) ;
#11 = VERTEX_POINT ( 'NONE', #1043 ) ;
#12 = DIRECTION ( 'NONE',  ( 0.000000000000000000, 1.000000000000000000, -0.000000000000000000 ) ) ;
#13 = DIRECTION ( 'NONE',  ( 0.000000000000000000, 0.000000000000000000, 1.000000000000000000 ) ) ;
#14 = ORIENTED_EDGE ( 'NONE', *, *, #398, .F. ) ;
#15 = DIRECTION ( 'NONE',  ( -0.000000000000000000, -1.000000000000000000, -0.000000000000000000 ) ) ;
#16 = DIRECTION ( 'NONE',  ( 0.000000000000000000, 0.000000000000000000, 1.000000000000000000 ) ) ;
#17 = APPROVAL ( #605, '未指定' ) ;
#18 = FACE_OUTER_BOUND ( 'NONE', #742, .T. ) ;
#19 = ORIENTED_EDGE ( 'NONE', *, *, #586, .T. ) ;
#20 = ADVANCED_FACE ( 'NONE', ( #68 ), #799, .F. ) ;
#21 = DIRECTION ( 'NONE',  ( 0.000000000000000000, 0.000000000000000000, 1.000000000000000000 ) ) ;
#22 = CONICAL_SURFACE ( 'NONE', #134, 99.99999999999998579, 0.7853981633974447263 ) ;
#23 = AXIS2_PLACEMENT_3D ( 'NONE', #701, #687, #1051 ) ;
#24 = AXIS2_PLACEMENT_3D ( 'NONE', #1036, #383, #570 ) ;
#25 = AXIS2_PLACEMENT_3D ( 'NONE', #1007, #169, #539 ) ;
#26 = EDGE_CURVE ( 'NONE', #1086, #1177, #614, .T. ) ;
#27 = CARTESIAN_POINT ( 'NONE',  ( -50.00000000000000711, 20.00000000000000000, 50.00000000000000000 ) ) ;
#28 = ORIENTED_EDGE ( 'NONE', *, *, #26, .F. ) ;
#29 = ADVANCED_FACE ( 'NONE', ( #522 ), #890, .F. ) ;
#30 = DIRECTION ( 'NONE',  ( -0.000000000000000000, -1.000000000000000000, 0.000000000000000000 ) ) ;
#31 = CARTESIAN_POINT ( 'NONE',  ( 69.99999999999997158, 20.00000000000000000, -15.89999999999994884 ) ) ;
#32 = ADVANCED_FACE ( 'NONE', ( #137 ), #980, .T. ) ;
#33 = CYLINDRICAL_SURFACE ( 'NONE', #1055, 110.0000000000000000 ) ;
#34 = DATE_AND_TIME ( #591, #674 ) ;
#35 = EDGE_CURVE ( 'NONE', #329, #1086, #957, .T. ) ;
#36 = DIRECTION ( 'NONE',  ( -0.000000000000000000, -1.000000000000000000, 0.000000000000000000 ) ) ;
#37 = DIRECTION ( 'NONE',  ( -0.000000000000000000, -1.000000000000000000, -0.000000000000000000 ) ) ;
#38 = ORGANIZATION ( '未指定', '未指定', '' ) ;
#39 = CIRCLE ( 'NONE', #306, 110.0000000000000000 ) ;
#40 = CIRCLE ( 'NONE', #981, 5.499999999999998224 ) ;
#41 = ORIENTED_EDGE ( 'NONE', *, *, #1191, .T. ) ;
#42 = CIRCLE ( 'NONE', #716, 4.100000000000006750 ) ;
#43 = PERSON_AND_ORGANIZATION ( #384, #38 ) ;
#44 = DIRECTION ( 'NONE',  ( -0.000000000000000000, -1.000000000000000000, -0.000000000000000000 ) ) ;
#45 = FACE_OUTER_BOUND ( 'NONE', #1006, .T. ) ;
#46 = CARTESIAN_POINT ( 'NONE',  ( 19.99999999999996092, 2.000000000000000000, 69.99999999999997158 ) ) ;
#47 = ORIENTED_EDGE ( 'NONE', *, *, #321, .F. ) ;
#48 = VERTEX_POINT ( 'NONE', #1004 ) ;
#49 = APPROVAL_ROLE ( '' ) ;
#50 = CARTESIAN_POINT ( 'NONE',  ( 49.99999999999999289, 20.00000000000000000, 55.50000000000000000 ) ) ;
#51 = DIRECTION ( 'NONE',  ( -0.000000000000000000, -1.000000000000000000, -0.000000000000000000 ) ) ;
#52 = EDGE_LOOP ( 'NONE', ( #906, #638, #610, #160 ) ) ;
#53 = VERTEX_POINT ( 'NONE', #550 ) ;
#54 = SECURITY_CLASSIFICATION_LEVEL ( 'unclassified' ) ;
#55 = DIRECTION ( 'NONE',  ( -0.000000000000000000, -1.000000000000000000, 0.000000000000000000 ) ) ;
#56 = CIRCLE ( 'NONE', #940, 4.100000000000020073 ) ;
#57 = VERTEX_POINT ( 'NONE', #895 ) ;
#58 = EDGE_CURVE ( 'NONE', #1025, #208, #461, .T. ) ;
#59 = EDGE_LOOP ( 'NONE', ( #344, #446, #569, #401 ) ) ;
#60 = APPROVAL_ROLE ( '' ) ;
#61 = VECTOR ( 'NONE', #738, 1000.000000000000000 ) ;
#62 = ORIENTED_EDGE ( 'NONE', *, *, #699, .F. ) ;
#63 = CIRCLE ( 'NONE', #1079, 4.100000000000020073 ) ;
#64 = ADVANCED_FACE ( 'NONE', ( #256 ), #1185, .F. ) ;
#65 = FACE_BOUND ( 'NONE', #977, .T. ) ;
#66 = CYLINDRICAL_SURFACE ( 'NONE', #1133, 5.499999999999998224 ) ;
#67 = FACE_BOUND ( 'NONE', #927, .T. ) ;
#68 = FACE_OUTER_BOUND ( 'NONE', #1103, .T. ) ;
#69 = ORIENTED_EDGE ( 'NONE', *, *, #211, .F. ) ;
#70 = ORIENTED_EDGE ( 'NONE', *, *, #829, .F. ) ;
#71 = ADVANCED_FACE ( 'NONE', ( #641 ), #73, .F. ) ;
#72 = CARTESIAN_POINT ( 'NONE',  ( -70.00000000000000000, 20.00000000000000000, 19.99999999999998934 ) ) ;
#73 = CYLINDRICAL_SURFACE ( 'NONE', #833, 5.500000000000005329 ) ;
#74 = ORIENTED_EDGE ( 'NONE', *, *, #779, .F. ) ;
#75 = VERTEX_POINT ( 'NONE', #995 ) ;
#76 = CARTESIAN_POINT ( 'NONE',  ( 1.224646799147353217E-14, 2.000000000000000000, 100.0000000000000000 ) ) ;
#77 = EDGE_CURVE ( 'NONE', #166, #459, #627, .T. ) ;
#78 = DIRECTION ( 'NONE',  ( 0.000000000000000000, 0.000000000000000000, -1.000000000000000000 ) ) ;
#79 = DIRECTION ( 'NONE',  ( -0.000000000000000000, -1.000000000000000000, -0.000000000000000000 ) ) ;
#80 = DIRECTION ( 'NONE',  ( 0.000000000000000000, 0.000000000000000000, -1.000000000000000000 ) ) ;
#81 = ORIENTED_EDGE ( 'NONE', *, *, #382, .T. ) ;
#82 = AXIS2_PLACEMENT_3D ( 'NONE', #565, #472, #1028 ) ;
#83 = LOCAL_TIME ( 14, 55, 49.00000000000000000, #883 ) ;
#84 = CARTESIAN_POINT ( 'NONE',  ( -19.99999999999999645, 20.00000000000000000, -74.09999999999999432 ) ) ;
#85 = AXIS2_PLACEMENT_3D ( 'NONE', #410, #146, #786 ) ;
#86 = EDGE_LOOP ( 'NONE', ( #885, #509, #559, #652 ) ) ;
#87 = CARTESIAN_POINT ( 'NONE',  ( 0.000000000000000000, 9.999999999999921840, 0.000000000000000000 ) ) ;
#88 = EDGE_CURVE ( 'NONE', #459, #57, #887, .T. ) ;
#89 = DIRECTION ( 'NONE',  ( -0.000000000000000000, -1.000000000000000000, -0.000000000000000000 ) ) ;
#90 = CARTESIAN_POINT ( 'NONE',  ( -19.99999999999999645, 2.000000000000000000, -69.99999999999998579 ) ) ;
#91 = DIRECTION ( 'NONE',  ( 0.000000000000000000, 0.000000000000000000, 1.000000000000000000 ) ) ;
#92 = ORIENTED_EDGE ( 'NONE', *, *, #968, .F. ) ;
#93 = UNCERTAINTY_MEASURE_WITH_UNIT (LENGTH_MEASURE( 1.000000000000000082E-05 ), #587, 'distance_accuracy_value', 'NONE');
#94 = CARTESIAN_POINT ( 'NONE',  ( -19.99999999999999645, 20.00000000000000000, -74.09999999999999432 ) ) ;
#95 = DIRECTION ( 'NONE',  ( 0.000000000000000000, 1.000000000000000000, -0.000000000000000000 ) ) ;
#96 = DIRECTION ( 'NONE',  ( 0.000000000000000000, 0.000000000000000000, 1.000000000000000000 ) ) ;
#97 = DIRECTION ( 'NONE',  ( 0.000000000000000000, 0.000000000000000000, 1.000000000000000000 ) ) ;
#98 = ORIENTED_EDGE ( 'NONE', *, *, #77, .T. ) ;
#99 = DIRECTION ( 'NONE',  ( 0.000000000000000000, 1.000000000000000000, -0.000000000000000000 ) ) ;
#100 = DIRECTION ( 'NONE',  ( 0.000000000000000000, -1.000000000000000000, 0.000000000000000000 ) ) ;
#101 = AXIS2_PLACEMENT_3D ( 'NONE', #1097, #996, #91 ) ;
#102 = CARTESIAN_POINT ( 'NONE',  ( 49.99999999999999289, 20.00000000000000000, -50.00000000000000000 ) ) ;
#103 = ORIENTED_EDGE ( 'NONE', *, *, #875, .F. ) ;
#104 = VECTOR ( 'NONE', #3, 1000.000000000000000 ) ;
#105 = EDGE_CURVE ( 'NONE', #912, #107, #358, .T. ) ;
#106 = CIRCLE ( 'NONE', #818, 4.100000000000003197 ) ;
#107 = VERTEX_POINT ( 'NONE', #739 ) ;
#108 = APPROVAL ( #402, '未指定' ) ;
#109 = DIRECTION ( 'NONE',  ( -0.000000000000000000, -1.000000000000000000, -0.000000000000000000 ) ) ;
#110 = CARTESIAN_POINT ( 'NONE',  ( -50.00000000000000711, 20.00000000000000000, -50.00000000000000000 ) ) ;
#111 = CARTESIAN_POINT ( 'NONE',  ( -70.00000000000000000, 20.00000000000000000, -15.89999999999998970 ) ) ;
#112 = ORIENTED_EDGE ( 'NONE', *, *, #1191, .F. ) ;
#113 = EDGE_LOOP ( 'NONE', ( #783, #62 ) ) ;
#114 = DIRECTION ( 'NONE',  ( 0.000000000000000000, 0.000000000000000000, 1.000000000000000000 ) ) ;
#115 = DIRECTION ( 'NONE',  ( 0.000000000000000000, 0.000000000000000000, -1.000000000000000000 ) ) ;
#116 = EDGE_CURVE ( 'NONE', #935, #418, #340, .T. ) ;
#117 = ADVANCED_FACE ( 'NONE', ( #990 ), #730, .T. ) ;
#118 = CYLINDRICAL_SURFACE ( 'NONE', #82, 4.100000000000006750 ) ;
#119 = DIRECTION ( 'NONE',  ( 0.000000000000000000, 0.000000000000000000, 1.000000000000000000 ) ) ;
#120 = AXIS2_PLACEMENT_3D ( 'NONE', #449, #192, #555 ) ;
#121 = AXIS2_PLACEMENT_3D ( 'NONE', #633, #2, #729 ) ;
#122 = CIRCLE ( 'NONE', #466, 4.100000000000027178 ) ;
#123 = VERTEX_POINT ( 'NONE', #268 ) ;
#124 = CARTESIAN_POINT ( 'NONE',  ( 69.99999999999998579, 20.00000000000000000, 20.00000000000000355 ) ) ;
#125 = DIRECTION ( 'NONE',  ( 0.000000000000000000, 0.000000000000000000, 1.000000000000000000 ) ) ;
#126 = ORIENTED_EDGE ( 'NONE', *, *, #1044, .F. ) ;
#127 = EDGE_CURVE ( 'NONE', #351, #331, #39, .T. ) ;
#128 = CARTESIAN_POINT ( 'NONE',  ( -70.00000000000000000, 2.000000000000000000, 19.99999999999998934 ) ) ;
#129 = ORIENTED_EDGE ( 'NONE', *, *, #231, .T. ) ;
#130 = CARTESIAN_POINT ( 'NONE',  ( 49.99999999999999289, 20.00000000000000000, -50.00000000000000000 ) ) ;
#131 = ORIENTED_EDGE ( 'NONE', *, *, #954, .T. ) ;
#132 = DATE_TIME_ROLE ( 'classification_date' ) ;
#133 = CARTESIAN_POINT ( 'NONE',  ( -70.00000000000000000, 20.00000000000000000, 24.10000000000000853 ) ) ;
#134 = AXIS2_PLACEMENT_3D ( 'NONE', #291, #1030, #943 ) ;
#135 = DIRECTION ( 'NONE',  ( 0.000000000000000000, 1.000000000000000000, -0.000000000000000000 ) ) ;
#136 = AXIS2_PLACEMENT_3D ( 'NONE', #669, #494, #743 ) ;
#137 = FACE_OUTER_BOUND ( 'NONE', #86, .T. ) ;
#138 = ORIENTED_EDGE ( 'NONE', *, *, #222, .F. ) ;
#139 = APPROVAL_DATE_TIME ( #34, #17 ) ;
#140 = CARTESIAN_POINT ( 'NONE',  ( 0.000000000000000000, 2.000000000000000000, 0.000000000000000000 ) ) ;
#141 = CARTESIAN_POINT ( 'NONE',  ( 0.000000000000000000, 20.00000000000000000, 0.000000000000000000 ) ) ;
#142 = DIRECTION ( 'NONE',  ( 0.000000000000000000, 0.000000000000000000, 1.000000000000000000 ) ) ;
#143 = ORIENTED_EDGE ( 'NONE', *, *, #757, .T. ) ;
#144 = VERTEX_POINT ( 'NONE', #250 ) ;
#145 = EDGE_CURVE ( 'NONE', #816, #802, #378, .T. ) ;
#146 = DIRECTION ( 'NONE',  ( -0.000000000000000000, -1.000000000000000000, -0.000000000000000000 ) ) ;
#147 = DIRECTION ( 'NONE',  ( 0.000000000000000000, 0.000000000000000000, 1.000000000000000000 ) ) ;
#148 = ORIENTED_EDGE ( 'NONE', *, *, #422, .F. ) ;
#149 = PERSON_AND_ORGANIZATION ( #384, #38 ) ;
#150 = ORIENTED_EDGE ( 'NONE', *, *, #829, .T. ) ;
#151 = CC_DESIGN_PERSON_AND_ORGANIZATION_ASSIGNMENT ( #1041, #393, ( #1053 ) ) ;
#152 = CC_DESIGN_PERSON_AND_ORGANIZATION_ASSIGNMENT ( #679, #158, ( #636 ) ) ;
#153 = CARTESIAN_POINT ( 'NONE',  ( 49.99999999999999289, 20.00000000000000000, -55.50000000000000000 ) ) ;
#154 = CIRCLE ( 'NONE', #323, 4.100000000000006750 ) ;
#155 = AXIS2_PLACEMENT_3D ( 'NONE', #620, #1175, #164 ) ;
#156 = ORIENTED_EDGE ( 'NONE', *, *, #127, .F. ) ;
#157 = EDGE_LOOP ( 'NONE', ( #92, #1150, #184, #243 ) ) ;
#158 = PERSON_AND_ORGANIZATION_ROLE ( 'design_owner' ) ;
#159 = AXIS2_PLACEMENT_3D ( 'NONE', #764, #300, #1031 ) ;
#160 = ORIENTED_EDGE ( 'NONE', *, *, #116, .F. ) ;
#161 = CIRCLE ( 'NONE', #1033, 4.099999999999999645 ) ;
#162 = EDGE_LOOP ( 'NONE', ( #945, #286, #19, #502 ) ) ;
#163 = DIRECTION ( 'NONE',  ( -0.000000000000000000, -1.000000000000000000, -0.000000000000000000 ) ) ;
#164 = DIRECTION ( 'NONE',  ( 0.000000000000000000, 0.000000000000000000, 1.000000000000000000 ) ) ;
#165 = EDGE_LOOP ( 'NONE', ( #787, #205, #671, #806 ) ) ;
#166 = VERTEX_POINT ( 'NONE', #276 ) ;
#167 = EDGE_CURVE ( 'NONE', #53, #820, #1149, .T. ) ;
#168 = FACE_OUTER_BOUND ( 'NONE', #830, .T. ) ;
#169 = DIRECTION ( 'NONE',  ( 0.000000000000000000, 1.000000000000000000, -0.000000000000000000 ) ) ;
#170 = CARTESIAN_POINT ( 'NONE',  ( 20.00000000000000355, 20.00000000000000000, -69.99999999999998579 ) ) ;
#171 = DIRECTION ( 'NONE',  ( 0.000000000000000000, 0.000000000000000000, -1.000000000000000000 ) ) ;
#172 = ORIENTED_EDGE ( 'NONE', *, *, #629, .F. ) ;
#173 = CARTESIAN_POINT ( 'NONE',  ( 0.000000000000000000, 0.000000000000000000, 0.000000000000000000 ) ) ;
#174 = ORIENTED_EDGE ( 'NONE', *, *, #661, .F. ) ;
#175 = EDGE_CURVE ( 'NONE', #998, #839, #540, .T. ) ;
#176 = DIRECTION ( 'NONE',  ( -0.000000000000000000, -1.000000000000000000, -0.000000000000000000 ) ) ;
#177 = CARTESIAN_POINT ( 'NONE',  ( 0.000000000000000000, 20.00000000000000000, 0.000000000000000000 ) ) ;
#178 = CIRCLE ( 'NONE', #247, 5.500000000000005329 ) ;
#179 = VECTOR ( 'NONE', #976, 1000.000000000000000 ) ;
#180 = CIRCLE ( 'NONE', #463, 4.100000000000003197 ) ;
#181 = CIRCLE ( 'NONE', #397, 100.0000000000000000 ) ;
#182 = CARTESIAN_POINT ( 'NONE',  ( -20.00000000000000355, 20.00000000000000000, 69.99999999999994316 ) ) ;
#183 = CIRCLE ( 'NONE', #619, 100.0000000000000000 ) ;
#184 = ORIENTED_EDGE ( 'NONE', *, *, #222, .T. ) ;
#185 = DIRECTION ( 'NONE',  ( 0.000000000000000000, 0.000000000000000000, 1.000000000000000000 ) ) ;
#186 = APPLICATION_CONTEXT ( 'configuration controlled 3d designs of mechanical parts and assemblies' ) ;
#187 = DIRECTION ( 'NONE',  ( 0.000000000000000000, 1.000000000000000000, -0.000000000000000000 ) ) ;
#188 = CARTESIAN_POINT ( 'NONE',  ( 69.99999999999998579, 20.00000000000000000, 15.90000000000000036 ) ) ;
#189 = CARTESIAN_POINT ( 'NONE',  ( -50.00000000000000711, 20.00000000000000000, 44.50000000000000000 ) ) ;
#190 = ORIENTED_EDGE ( 'NONE', *, *, #175, .T. ) ;
#191 = DIRECTION ( 'NONE',  ( -0.000000000000000000, -1.000000000000000000, -0.000000000000000000 ) ) ;
#192 = DIRECTION ( 'NONE',  ( 0.000000000000000000, 1.000000000000000000, -0.000000000000000000 ) ) ;
#193 = CARTESIAN_POINT ( 'NONE',  ( 69.99999999999998579, 20.00000000000000000, 24.10000000000000853 ) ) ;
#194 = ADVANCED_FACE ( 'NONE', ( #836 ), #916, .F. ) ;
#195 = DIRECTION ( 'NONE',  ( 0.000000000000000000, 0.000000000000000000, 1.000000000000000000 ) ) ;
#196 = ORIENTED_EDGE ( 'NONE', *, *, #35, .F. ) ;
#197 = EDGE_LOOP ( 'NONE', ( #237, #780, #433, #138 ) ) ;
#198 = CARTESIAN_POINT ( 'NONE',  ( 49.99999999999999289, 20.00000000000000000, 50.00000000000000000 ) ) ;
#199 = CARTESIAN_POINT ( 'NONE',  ( 19.99999999999996092, 20.00000000000000000, 69.99999999999997158 ) ) ;
#200 = CARTESIAN_POINT ( 'NONE',  ( 0.000000000000000000, 2.000000000000000000, -100.0000000000000000 ) ) ;
#201 = EDGE_CURVE ( 'NONE', #265, #208, #640, .T. ) ;
#202 = AXIS2_PLACEMENT_3D ( 'NONE', #556, #15, #80 ) ;
#203 = CARTESIAN_POINT ( 'NONE',  ( 69.99999999999998579, 20.00000000000000000, 24.10000000000000853 ) ) ;
#204 = AXIS2_PLACEMENT_3D ( 'NONE', #420, #801, #308 ) ;
#205 = ORIENTED_EDGE ( 'NONE', *, *, #769, .T. ) ;
#206 = AXIS2_PLACEMENT_3D ( 'NONE', #1139, #135, #240 ) ;
#207 = CIRCLE ( 'NONE', #831, 4.100000000000027178 ) ;
#208 = VERTEX_POINT ( 'NONE', #920 ) ;
#209 = DIRECTION ( 'NONE',  ( 0.000000000000000000, 0.000000000000000000, 1.000000000000000000 ) ) ;
#210 = CARTESIAN_POINT ( 'NONE',  ( -70.00000000000000000, 20.00000000000000000, -19.99999999999998934 ) ) ;
#211 = EDGE_CURVE ( 'NONE', #1086, #329, #792, .T. ) ;
#212 = CARTESIAN_POINT ( 'NONE',  ( 0.000000000000000000, 9.999999999999921840, -110.0000000000000000 ) ) ;
#213 = DIRECTION ( 'NONE',  ( -0.000000000000000000, -1.000000000000000000, -0.000000000000000000 ) ) ;
#214 = CARTESIAN_POINT ( 'NONE',  ( 20.00000000000000355, 20.00000000000000000, -65.89999999999999147 ) ) ;
#215 = AXIS2_PLACEMENT_3D ( 'NONE', #102, #922, #898 ) ;
#216 = EDGE_CURVE ( 'NONE', #796, #1012, #415, .T. ) ;
#217 = EDGE_LOOP ( 'NONE', ( #348, #1034, #1151, #474 ) ) ;
#218 = FACE_BOUND ( 'NONE', #805, .T. ) ;
#219 = DIRECTION ( 'NONE',  ( 0.000000000000000000, 0.000000000000000000, 1.000000000000000000 ) ) ;
#220 = VERTEX_POINT ( 'NONE', #930 ) ;
#221 = CALENDAR_DATE ( 2026, 3, 9 ) ;
#222 = EDGE_CURVE ( 'NONE', #722, #816, #1106, .T. ) ;
#223 = CARTESIAN_POINT ( 'NONE',  ( 69.99999999999998579, 2.000000000000000000, 24.10000000000000853 ) ) ;
#224 = CARTESIAN_POINT ( 'NONE',  ( 20.00000000000000355, 20.00000000000000000, -74.09999999999999432 ) ) ;
#225 = EDGE_LOOP ( 'NONE', ( #81, #1136 ) ) ;
#226 = EDGE_CURVE ( 'NONE', #951, #333, #40, .T. ) ;
#227 = AXIS2_PLACEMENT_3D ( 'NONE', #964, #709, #432 ) ;
#228 = DIRECTION ( 'NONE',  ( 0.000000000000000000, 0.000000000000000000, 1.000000000000000000 ) ) ;
#229 = DIRECTION ( 'NONE',  ( 0.000000000000000000, 0.000000000000000000, -1.000000000000000000 ) ) ;
#230 = ORIENTED_EDGE ( 'NONE', *, *, #526, .F. ) ;
#231 = EDGE_CURVE ( 'NONE', #655, #144, #969, .T. ) ;
#232 = DIRECTION ( 'NONE',  ( -0.000000000000000000, -1.000000000000000000, 0.000000000000000000 ) ) ;
#233 = LINE ( 'NONE', #224, #601 ) ;
#234 = ORIENTED_EDGE ( 'NONE', *, *, #933, .F. ) ;
#235 = APPLICATION_CONTEXT ( 'configuration controlled 3d designs of mechanical parts and assemblies' ) ;
#236 = EDGE_LOOP ( 'NONE', ( #607, #41 ) ) ;
#237 = ORIENTED_EDGE ( 'NONE', *, *, #1154, .T. ) ;
#238 = CALENDAR_DATE ( 2026, 3, 9 ) ;
#239 = ORIENTED_EDGE ( 'NONE', *, *, #448, .T. ) ;
#240 = DIRECTION ( 'NONE',  ( 0.000000000000000000, 0.000000000000000000, 1.000000000000000000 ) ) ;
#241 = ADVANCED_FACE ( 'NONE', ( #823 ), #549, .F. ) ;
#242 = EDGE_LOOP ( 'NONE', ( #812, #592 ) ) ;
#243 = ORIENTED_EDGE ( 'NONE', *, *, #853, .F. ) ;
#244 = EDGE_LOOP ( 'NONE', ( #527, #993 ) ) ;
#245 = DIRECTION ( 'NONE',  ( -0.000000000000000000, -1.000000000000000000, 0.000000000000000000 ) ) ;
#246 = DIRECTION ( 'NONE',  ( -0.000000000000000000, -1.000000000000000000, -0.000000000000000000 ) ) ;
#247 = AXIS2_PLACEMENT_3D ( 'NONE', #285, #546, #195 ) ;
#248 = ADVANCED_FACE ( 'NONE', ( #1095 ), #267, .F. ) ;
#249 = AXIS2_PLACEMENT_3D ( 'NONE', #170, #363, #647 ) ;
#250 = CARTESIAN_POINT ( 'NONE',  ( -20.00000000000000355, 2.000000000000000000, 74.09999999999999432 ) ) ;
#251 = EDGE_LOOP ( 'NONE', ( #322, #70 ) ) ;
#252 = VECTOR ( 'NONE', #593, 1000.000000000000000 ) ;
#253 = ORIENTED_EDGE ( 'NONE', *, *, #371, .T. ) ;
#254 = VECTOR ( 'NONE', #518, 1000.000000000000000 ) ;
#255 = CARTESIAN_POINT ( 'NONE',  ( -70.00000000000000000, 20.00000000000000000, 19.99999999999998934 ) ) ;
#256 = FACE_OUTER_BOUND ( 'NONE', #589, .T. ) ;
#257 = ORIENTED_EDGE ( 'NONE', *, *, #1100, .T. ) ;
#258 = CYLINDRICAL_SURFACE ( 'NONE', #1178, 5.500000000000005329 ) ;
#259 = DIRECTION ( 'NONE',  ( 0.000000000000000000, 1.000000000000000000, -0.000000000000000000 ) ) ;
#260 = ORIENTED_EDGE ( 'NONE', *, *, #145, .T. ) ;
#261 = CARTESIAN_POINT ( 'NONE',  ( 49.99999999999999289, 2.000000000000000000, 50.00000000000000000 ) ) ;
#262 = CARTESIAN_POINT ( 'NONE',  ( -70.00000000000000000, 20.00000000000000000, 15.89999999999997016 ) ) ;
#263 = FACE_BOUND ( 'NONE', #225, .T. ) ;
#264 = EDGE_CURVE ( 'NONE', #560, #144, #675, .T. ) ;
#265 = VERTEX_POINT ( 'NONE', #856 ) ;
#266 = CARTESIAN_POINT ( 'NONE',  ( -70.00000000000000000, 2.000000000000000000, -19.99999999999998934 ) ) ;
#267 = CYLINDRICAL_SURFACE ( 'NONE', #737, 4.099999999999992539 ) ;
#268 = CARTESIAN_POINT ( 'NONE',  ( 1.347111479062088523E-14, 9.999999999999921840, 110.0000000000000000 ) ) ;
#269 = CIRCLE ( 'NONE', #997, 110.0000000000000000 ) ;
#270 = LOCAL_TIME ( 14, 55, 49.00000000000000000, #683 ) ;
#271 = AXIS2_PLACEMENT_3D ( 'NONE', #130, #588, #491 ) ;
#272 = CYLINDRICAL_SURFACE ( 'NONE', #215, 5.499999999999998224 ) ;
#273 = VERTEX_POINT ( 'NONE', #223 ) ;
#274 = EDGE_CURVE ( 'NONE', #998, #1168, #925, .T. ) ;
#275 = DIRECTION ( 'NONE',  ( 0.000000000000000000, 0.000000000000000000, 1.000000000000000000 ) ) ;
#276 = CARTESIAN_POINT ( 'NONE',  ( 69.99999999999997158, 20.00000000000000000, -24.10000000000000497 ) ) ;
#277 = DIRECTION ( 'NONE',  ( -0.000000000000000000, -1.000000000000000000, 0.000000000000000000 ) ) ;
#278 = EDGE_CURVE ( 'NONE', #1012, #796, #1132, .T. ) ;
#279 = DIRECTION ( 'NONE',  ( 8.659560562354903276E-17, -0.7071067811865500152, 0.7071067811865451302 ) ) ;
#280 = ORIENTED_EDGE ( 'NONE', *, *, #899, .T. ) ;
#281 = ORIENTED_EDGE ( 'NONE', *, *, #289, .T. ) ;
#282 = ORIENTED_EDGE ( 'NONE', *, *, #1093, .F. ) ;
#283 = DIRECTION ( 'NONE',  ( 0.000000000000000000, 0.000000000000000000, 1.000000000000000000 ) ) ;
#284 = DIRECTION ( 'NONE',  ( 0.000000000000000000, 0.000000000000000000, 1.000000000000000000 ) ) ;
#285 = CARTESIAN_POINT ( 'NONE',  ( -50.00000000000000711, 20.00000000000000000, -50.00000000000000000 ) ) ;
#286 = ORIENTED_EDGE ( 'NONE', *, *, #612, .T. ) ;
#287 = VERTEX_POINT ( 'NONE', #385 ) ;
#288 = CARTESIAN_POINT ( 'NONE',  ( -70.00000000000000000, 20.00000000000000000, -24.09999999999999076 ) ) ;
#289 = EDGE_CURVE ( 'NONE', #208, #265, #364, .T. ) ;
#290 = CIRCLE ( 'NONE', #956, 5.500000000000005329 ) ;
#291 = CARTESIAN_POINT ( 'NONE',  ( 0.000000000000000000, 20.00000000000000000, 0.000000000000000000 ) ) ;
#292 = AXIS2_PLACEMENT_3D ( 'NONE', #594, #958, #229 ) ;
#293 = VECTOR ( 'NONE', #852, 1000.000000000000000 ) ;
#294 = CIRCLE ( 'NONE', #443, 110.0000000000000000 ) ;
#295 = DIRECTION ( 'NONE',  ( 0.000000000000000000, 0.000000000000000000, -1.000000000000000000 ) ) ;
#296 = CARTESIAN_POINT ( 'NONE',  ( 49.99999999999999289, 20.00000000000000000, -44.50000000000000711 ) ) ;
#297 = ADVANCED_FACE ( 'NONE', ( #45 ), #316, .F. ) ;
#298 = CARTESIAN_POINT ( 'NONE',  ( 0.000000000000000000, 2.000000000000000000, 0.000000000000000000 ) ) ;
#299 = FACE_BOUND ( 'NONE', #603, .T. ) ;
#300 = DIRECTION ( 'NONE',  ( 0.000000000000000000, 1.000000000000000000, -0.000000000000000000 ) ) ;
#301 = EDGE_LOOP ( 'NONE', ( #897, #1170 ) ) ;
#302 = DIRECTION ( 'NONE',  ( 0.000000000000000000, 0.000000000000000000, 1.000000000000000000 ) ) ;
#303 = DIRECTION ( 'NONE',  ( 0.000000000000000000, 0.000000000000000000, -1.000000000000000000 ) ) ;
#304 = AXIS2_PLACEMENT_3D ( 'NONE', #531, #637, #97 ) ;
#305 = AXIS2_PLACEMENT_3D ( 'NONE', #210, #377, #16 ) ;
#306 = AXIS2_PLACEMENT_3D ( 'NONE', #1008, #187, #1081 ) ;
#307 = CARTESIAN_POINT ( 'NONE',  ( 0.000000000000000000, 0.000000000000000000, 0.000000000000000000 ) ) ;
#308 = DIRECTION ( 'NONE',  ( 1.000000000000000000, 0.000000000000000000, 0.000000000000000000 ) ) ;
#309 = CARTESIAN_POINT ( 'NONE',  ( 0.000000000000000000, 20.00000000000000000, -110.0000000000000000 ) ) ;
#310 = EDGE_CURVE ( 'NONE', #532, #1099, #542, .T. ) ;
#311 = VERTEX_POINT ( 'NONE', #871 ) ;
#312 = CARTESIAN_POINT ( 'NONE',  ( -20.00000000000000355, 2.000000000000000000, 69.99999999999994316 ) ) ;
#313 = DIRECTION ( 'NONE',  ( 0.000000000000000000, 0.000000000000000000, 1.000000000000000000 ) ) ;
#314 = DATE_AND_TIME ( #238, #395 ) ;
#315 = FACE_BOUND ( 'NONE', #891, .T. ) ;
#316 = CYLINDRICAL_SURFACE ( 'NONE', #499, 4.099999999999992539 ) ;
#317 = CARTESIAN_POINT ( 'NONE',  ( -20.00000000000000355, 20.00000000000000000, 69.99999999999994316 ) ) ;
#318 = EDGE_CURVE ( 'NONE', #845, #220, #835, .T. ) ;
#319 = ORIENTED_EDGE ( 'NONE', *, *, #1154, .F. ) ;
#320 = APPLICATION_PROTOCOL_DEFINITION ( 'international standard', 'config_control_design', 1994, #186 ) ;
#321 = EDGE_CURVE ( 'NONE', #841, #796, #578, .T. ) ;
#322 = ORIENTED_EDGE ( 'NONE', *, *, #7, .F. ) ;
#323 = AXIS2_PLACEMENT_3D ( 'NONE', #825, #571, #753 ) ;
#324 = DIRECTION ( 'NONE',  ( 0.000000000000000000, 1.000000000000000000, -0.000000000000000000 ) ) ;
#325 = CC_DESIGN_APPROVAL ( #108, ( #1053 ) ) ;
#326 = CIRCLE ( 'NONE', #206, 4.100000000000061817 ) ;
#327 = VECTOR ( 'NONE', #974, 1000.000000000000000 ) ;
#328 = ORIENTED_EDGE ( 'NONE', *, *, #167, .F. ) ;
#329 = VERTEX_POINT ( 'NONE', #1118 ) ;
#330 = DATE_TIME_ROLE ( 'creation_date' ) ;
#331 = VERTEX_POINT ( 'NONE', #386 ) ;
#332 = DIRECTION ( 'NONE',  ( 0.000000000000000000, 0.000000000000000000, -1.000000000000000000 ) ) ;
#333 = VERTEX_POINT ( 'NONE', #766 ) ;
#334 = EDGE_LOOP ( 'NONE', ( #342, #621, #1110, #567 ) ) ;
#335 = ORIENTED_EDGE ( 'NONE', *, *, #586, .F. ) ;
#336 = FACE_BOUND ( 'NONE', #827, .T. ) ;
#337 = ADVANCED_FACE ( 'NONE', ( #390 ), #1013, .F. ) ;
#338 = DIRECTION ( 'NONE',  ( 0.000000000000000000, -1.000000000000000000, 0.000000000000000000 ) ) ;
#339 = CARTESIAN_POINT ( 'NONE',  ( 0.000000000000000000, 20.00000000000000000, -99.99999999999998579 ) ) ;
#340 = LINE ( 'NONE', #441, #104 ) ;
#341 = ORIENTED_EDGE ( 'NONE', *, *, #717, .T. ) ;
#342 = ORIENTED_EDGE ( 'NONE', *, *, #1127, .T. ) ;
#343 = CARTESIAN_POINT ( 'NONE',  ( 0.000000000000000000, 2.000000000000000000, 0.000000000000000000 ) ) ;
#344 = ORIENTED_EDGE ( 'NONE', *, *, #310, .T. ) ;
#345 = VECTOR ( 'NONE', #708, 1000.000000000000000 ) ;
#346 = AXIS2_PLACEMENT_3D ( 'NONE', #672, #488, #209 ) ;
#347 = DIRECTION ( 'NONE',  ( 0.000000000000000000, 0.000000000000000000, -1.000000000000000000 ) ) ;
#348 = ORIENTED_EDGE ( 'NONE', *, *, #914, .T. ) ;
#349 = ORIENTED_EDGE ( 'NONE', *, *, #677, .T. ) ;
#350 = CARTESIAN_POINT ( 'NONE',  ( -50.00000000000000711, 2.000000000000000000, 44.50000000000000000 ) ) ;
#351 = VERTEX_POINT ( 'NONE', #1143 ) ;
#352 = DIRECTION ( 'NONE',  ( -0.000000000000000000, -1.000000000000000000, -0.000000000000000000 ) ) ;
#353 = DIRECTION ( 'NONE',  ( 0.000000000000000000, 0.000000000000000000, -1.000000000000000000 ) ) ;
#354 = ORIENTED_EDGE ( 'NONE', *, *, #699, .T. ) ;
#355 = DIRECTION ( 'NONE',  ( -0.000000000000000000, -1.000000000000000000, 0.000000000000000000 ) ) ;
#356 = ORIENTED_EDGE ( 'NONE', *, *, #526, .T. ) ;
#357 = CARTESIAN_POINT ( 'NONE',  ( -50.00000000000000711, 20.00000000000000000, -44.50000000000000000 ) ) ;
#358 = LINE ( 'NONE', #634, #1114 ) ;
#359 = EDGE_CURVE ( 'NONE', #1099, #532, #440, .T. ) ;
#360 = CARTESIAN_POINT ( 'NONE',  ( 20.00000000000000355, 20.00000000000000000, -74.09999999999999432 ) ) ;
#361 = ORIENTED_EDGE ( 'NONE', *, *, #116, .T. ) ;
#362 = CARTESIAN_POINT ( 'NONE',  ( -50.00000000000000711, 20.00000000000000000, 55.50000000000000711 ) ) ;
#363 = DIRECTION ( 'NONE',  ( 0.000000000000000000, 1.000000000000000000, -0.000000000000000000 ) ) ;
#364 = CIRCLE ( 'NONE', #159, 5.500000000000005329 ) ;
#365 = CYLINDRICAL_SURFACE ( 'NONE', #1098, 4.100000000000006750 ) ;
#366 = VECTOR ( 'NONE', #191, 1000.000000000000000 ) ;
#367 = ORIENTED_EDGE ( 'NONE', *, *, #507, .T. ) ;
#368 = DIRECTION ( 'NONE',  ( 0.000000000000000000, 1.000000000000000000, -0.000000000000000000 ) ) ;
#369 = DIRECTION ( 'NONE',  ( 0.000000000000000000, 1.000000000000000000, -0.000000000000000000 ) ) ;
#370 = ORIENTED_EDGE ( 'NONE', *, *, #226, .T. ) ;
#371 = EDGE_CURVE ( 'NONE', #892, #845, #608, .T. ) ;
#372 = DIRECTION ( 'NONE',  ( -0.000000000000000000, -1.000000000000000000, 0.000000000000000000 ) ) ;
#373 = ORIENTED_EDGE ( 'NONE', *, *, #576, .T. ) ;
#374 = CARTESIAN_POINT ( 'NONE',  ( 0.000000000000000000, 0.000000000000000000, 0.000000000000000000 ) ) ;
#375 = EDGE_CURVE ( 'NONE', #287, #934, #1021, .T. ) ;
#376 = AXIS2_PLACEMENT_3D ( 'NONE', #946, #1108, #1024 ) ;
#377 = DIRECTION ( 'NONE',  ( -0.000000000000000000, -1.000000000000000000, 0.000000000000000000 ) ) ;
#378 = CIRCLE ( 'NONE', #774, 5.499999999999998224 ) ;
#379 =( GEOMETRIC_REPRESENTATION_CONTEXT ( 3 ) GLOBAL_UNCERTAINTY_ASSIGNED_CONTEXT ( ( #93 ) ) GLOBAL_UNIT_ASSIGNED_CONTEXT ( ( #587, #857, #654 ) ) REPRESENTATION_CONTEXT ( 'NONE', 'WORKASPACE' ) );
#380 = AXIS2_PLACEMENT_3D ( 'NONE', #1068, #389, #490 ) ;
#381 = DIRECTION ( 'NONE',  ( 0.000000000000000000, 0.000000000000000000, 1.000000000000000000 ) ) ;
#382 = EDGE_CURVE ( 'NONE', #220, #845, #181, .T. ) ;
#383 = DIRECTION ( 'NONE',  ( 0.000000000000000000, 1.000000000000000000, -0.000000000000000000 ) ) ;
#384 = PERSON ( '未指定', '未指定', '未指定', ('未指定'), ('未指定'), ('未指定') ) ;
#385 = CARTESIAN_POINT ( 'NONE',  ( 69.99999999999998579, 20.00000000000000000, 15.90000000000000036 ) ) ;
#386 = CARTESIAN_POINT ( 'NONE',  ( 0.000000000000000000, 0.000000000000000000, -110.0000000000000000 ) ) ;
#387 = DIRECTION ( 'NONE',  ( 0.000000000000000000, 0.000000000000000000, 1.000000000000000000 ) ) ;
#388 = CARTESIAN_POINT ( 'NONE',  ( -50.00000000000000711, 20.00000000000000000, -55.50000000000000711 ) ) ;
#389 = DIRECTION ( 'NONE',  ( 0.000000000000000000, 1.000000000000000000, -0.000000000000000000 ) ) ;
#390 = FACE_OUTER_BOUND ( 'NONE', #197, .T. ) ;
#391 = CC_DESIGN_PERSON_AND_ORGANIZATION_ASSIGNMENT ( #773, #1160, ( #1053 ) ) ;
#392 = PRODUCT_DEFINITION ( '未知', '', #1053, #1026 ) ;
#393 = PERSON_AND_ORGANIZATION_ROLE ( 'creator' ) ;
#394 = PLANE ( 'NONE',  #735 ) ;
#395 = LOCAL_TIME ( 14, 55, 49.00000000000000000, #1141 ) ;
#396 = CARTESIAN_POINT ( 'NONE',  ( -50.00000000000000711, 20.00000000000000000, -50.00000000000000000 ) ) ;
#397 = AXIS2_PLACEMENT_3D ( 'NONE', #307, #778, #889 ) ;
#398 = EDGE_CURVE ( 'NONE', #11, #418, #1115, .T. ) ;
#399 = CIRCLE ( 'NONE', #797, 4.100000000000020073 ) ;
#400 = CARTESIAN_POINT ( 'NONE',  ( -70.00000000000000000, 2.000000000000000000, -24.09999999999999076 ) ) ;
#401 = ORIENTED_EDGE ( 'NONE', *, *, #954, .F. ) ;
#402 = APPROVAL_STATUS ( 'not_yet_approved' ) ;
#403 = FACE_BOUND ( 'NONE', #1187, .T. ) ;
#404 = ADVANCED_FACE ( 'NONE', ( #501 ), #520, .F. ) ;
#405 = CARTESIAN_POINT ( 'NONE',  ( 20.00000000000000355, 2.000000000000000000, -69.99999999999998579 ) ) ;
#406 = DIRECTION ( 'NONE',  ( 0.000000000000000000, 1.000000000000000000, -0.000000000000000000 ) ) ;
#407 = EDGE_LOOP ( 'NONE', ( #530, #150, #356, #1105 ) ) ;
#408 = DATE_AND_TIME ( #1064, #270 ) ;
#409 = DIRECTION ( 'NONE',  ( 0.000000000000000000, 0.000000000000000000, 1.000000000000000000 ) ) ;
#410 = CARTESIAN_POINT ( 'NONE',  ( 69.99999999999998579, 20.00000000000000000, 20.00000000000000355 ) ) ;
#411 = EDGE_LOOP ( 'NONE', ( #434, #156 ) ) ;
#412 = SHAPE_DEFINITION_REPRESENTATION ( #451, #879 ) ;
#413 = DIRECTION ( 'NONE',  ( 0.000000000000000000, 0.000000000000000000, 1.000000000000000000 ) ) ;
#414 = VECTOR ( 'NONE', #544, 1000.000000000000000 ) ;
#415 = CIRCLE ( 'NONE', #618, 5.500000000000005329 ) ;
#416 = DIRECTION ( 'NONE',  ( 0.000000000000000000, 1.000000000000000000, -0.000000000000000000 ) ) ;
#417 = AXIS2_PLACEMENT_3D ( 'NONE', #817, #1183, #907 ) ;
#418 = VERTEX_POINT ( 'NONE', #400 ) ;
#419 = ORIENTED_EDGE ( 'NONE', *, *, #1145, .T. ) ;
#420 = CARTESIAN_POINT ( 'NONE',  ( 0.000000000000000000, 0.000000000000000000, 0.000000000000000000 ) ) ;
#421 = ORIENTED_EDGE ( 'NONE', *, *, #278, .T. ) ;
#422 = EDGE_CURVE ( 'NONE', #820, #575, #233, .T. ) ;
#423 = FACE_BOUND ( 'NONE', #537, .T. ) ;
#424 = ORIENTED_EDGE ( 'NONE', *, *, #216, .T. ) ;
#425 = CARTESIAN_POINT ( 'NONE',  ( -19.99999999999999645, 20.00000000000000000, -65.89999999999999147 ) ) ;
#426 = FACE_BOUND ( 'NONE', #656, .T. ) ;
#427 = ORIENTED_EDGE ( 'NONE', *, *, #264, .F. ) ;
#428 = ORIENTED_EDGE ( 'NONE', *, *, #568, .F. ) ;
#429 = ORIENTED_EDGE ( 'NONE', *, *, #507, .F. ) ;
#430 = CARTESIAN_POINT ( 'NONE',  ( -50.00000000000000711, 20.00000000000000000, 55.50000000000000711 ) ) ;
#431 = LINE ( 'NONE', #94, #908 ) ;
#432 = DIRECTION ( 'NONE',  ( 0.000000000000000000, 0.000000000000000000, -1.000000000000000000 ) ) ;
#433 = ORIENTED_EDGE ( 'NONE', *, *, #145, .F. ) ;
#434 = ORIENTED_EDGE ( 'NONE', *, *, #1040, .F. ) ;
#435 = DIRECTION ( 'NONE',  ( -0.000000000000000000, -1.000000000000000000, -0.000000000000000000 ) ) ;
#436 = EDGE_LOOP ( 'NONE', ( #1092, #1146, #280, #419 ) ) ;
#437 = CARTESIAN_POINT ( 'NONE',  ( -20.00000000000000355, 20.00000000000000000, 74.09999999999999432 ) ) ;
#438 = CIRCLE ( 'NONE', #1035, 4.100000000000061817 ) ;
#439 = VECTOR ( 'NONE', #824, 1000.000000000000000 ) ;
#440 = CIRCLE ( 'NONE', #271, 5.499999999999998224 ) ;
#441 = CARTESIAN_POINT ( 'NONE',  ( -70.00000000000000000, 20.00000000000000000, -24.09999999999999076 ) ) ;
#442 = LINE ( 'NONE', #635, #414 ) ;
#443 = AXIS2_PLACEMENT_3D ( 'NONE', #87, #338, #706 ) ;
#444 = ORIENTED_EDGE ( 'NONE', *, *, #1184, .T. ) ;
#445 = DIRECTION ( 'NONE',  ( -0.000000000000000000, -1.000000000000000000, -0.000000000000000000 ) ) ;
#446 = ORIENTED_EDGE ( 'NONE', *, *, #875, .T. ) ;
#447 = FACE_OUTER_BOUND ( 'NONE', #52, .T. ) ;
#448 = EDGE_CURVE ( 'NONE', #973, #1177, #759, .T. ) ;
#449 = CARTESIAN_POINT ( 'NONE',  ( -50.00000000000000711, 2.000000000000000000, -50.00000000000000000 ) ) ;
#450 = CARTESIAN_POINT ( 'NONE',  ( -70.00000000000000000, 2.000000000000000000, 19.99999999999998934 ) ) ;
#451 = PRODUCT_DEFINITION_SHAPE ( 'NONE', 'NONE',  #392 ) ;
#452 = FACE_OUTER_BOUND ( 'NONE', #59, .T. ) ;
#453 = VERTEX_POINT ( 'NONE', #881 ) ;
#454 = LINE ( 'NONE', #1, #366 ) ;
#455 = CARTESIAN_POINT ( 'NONE',  ( -50.00000000000000711, 20.00000000000000000, -55.50000000000000711 ) ) ;
#456 = CYLINDRICAL_SURFACE ( 'NONE', #886, 4.100000000000003197 ) ;
#457 = EDGE_CURVE ( 'NONE', #144, #560, #326, .T. ) ;
#458 = DIRECTION ( 'NONE',  ( -0.000000000000000000, -1.000000000000000000, -0.000000000000000000 ) ) ;
#459 = VERTEX_POINT ( 'NONE', #867 ) ;
#460 = CIRCLE ( 'NONE', #617, 4.099999999999992539 ) ;
#461 = LINE ( 'NONE', #455, #439 ) ;
#462 = CYLINDRICAL_SURFACE ( 'NONE', #673, 100.0000000000000000 ) ;
#463 = AXIS2_PLACEMENT_3D ( 'NONE', #1125, #372, #1113 ) ;
#464 = VECTOR ( 'NONE', #851, 1000.000000000000114 ) ;
#465 = LINE ( 'NONE', #643, #756 ) ;
#466 = AXIS2_PLACEMENT_3D ( 'NONE', #803, #723, #275 ) ;
#467 = EDGE_CURVE ( 'NONE', #575, #703, #660, .T. ) ;
#468 = EDGE_LOOP ( 'NONE', ( #1189, #1070 ) ) ;
#469 = ORIENTED_EDGE ( 'NONE', *, *, #489, .F. ) ;
#470 = CARTESIAN_POINT ( 'NONE',  ( -50.00000000000000711, 2.000000000000000000, 50.00000000000000000 ) ) ;
#471 = CARTESIAN_POINT ( 'NONE',  ( 69.99999999999998579, 20.00000000000000000, 20.00000000000000355 ) ) ;
#472 = DIRECTION ( 'NONE',  ( -0.000000000000000000, -1.000000000000000000, -0.000000000000000000 ) ) ;
#473 = ORIENTED_EDGE ( 'NONE', *, *, #853, .T. ) ;
#474 = ORIENTED_EDGE ( 'NONE', *, *, #1000, .F. ) ;
#475 = DIRECTION ( 'NONE',  ( -0.000000000000000000, -1.000000000000000000, -0.000000000000000000 ) ) ;
#476 = CIRCLE ( 'NONE', #861, 4.100000000000020073 ) ;
#477 = CARTESIAN_POINT ( 'NONE',  ( 19.99999999999996092, 2.000000000000000000, 65.89999999999997726 ) ) ;
#478 = AXIS2_PLACEMENT_3D ( 'NONE', #177, #95, #534 ) ;
#479 = FACE_BOUND ( 'NONE', #468, .T. ) ;
#480 = AXIS2_PLACEMENT_3D ( 'NONE', #798, #324, #1048 ) ;
#481 = ORIENTED_EDGE ( 'NONE', *, *, #105, .T. ) ;
#482 = ADVANCED_FACE ( 'NONE', ( #782 ), #66, .F. ) ;
#483 = CARTESIAN_POINT ( 'NONE',  ( -19.99999999999999645, 2.000000000000000000, -65.89999999999999147 ) ) ;
#484 = DIRECTION ( 'NONE',  ( -0.000000000000000000, -1.000000000000000000, 0.000000000000000000 ) ) ;
#485 = DIRECTION ( 'NONE',  ( 0.000000000000000000, 0.000000000000000000, 1.000000000000000000 ) ) ;
#486 = DIRECTION ( 'NONE',  ( -0.000000000000000000, -1.000000000000000000, -0.000000000000000000 ) ) ;
#487 = EDGE_LOOP ( 'NONE', ( #923, #663, #813, #28 ) ) ;
#488 = DIRECTION ( 'NONE',  ( 0.000000000000000000, 1.000000000000000000, -0.000000000000000000 ) ) ;
#489 = EDGE_CURVE ( 'NONE', #841, #595, #1002, .T. ) ;
#490 = DIRECTION ( 'NONE',  ( 0.000000000000000000, 0.000000000000000000, 1.000000000000000000 ) ) ;
#491 = DIRECTION ( 'NONE',  ( 0.000000000000000000, 0.000000000000000000, 1.000000000000000000 ) ) ;
#492 = EDGE_LOOP ( 'NONE', ( #319, #1144 ) ) ;
#493 = FACE_BOUND ( 'NONE', #1067, .T. ) ;
#494 = DIRECTION ( 'NONE',  ( 0.000000000000000000, 1.000000000000000000, -0.000000000000000000 ) ) ;
#495 = AXIS2_PLACEMENT_3D ( 'NONE', #1140, #406, #147 ) ;
#496 = EDGE_CURVE ( 'NONE', #719, #722, #942, .T. ) ;
#497 = CIRCLE ( 'NONE', #305, 4.099999999999999645 ) ;
#498 = CARTESIAN_POINT ( 'NONE',  ( -70.00000000000000000, 20.00000000000000000, 19.99999999999998934 ) ) ;
#499 = AXIS2_PLACEMENT_3D ( 'NONE', #10, #768, #303 ) ;
#500 = CIRCLE ( 'NONE', #380, 4.100000000000006750 ) ;
#501 = FACE_OUTER_BOUND ( 'NONE', #407, .T. ) ;
#502 = ORIENTED_EDGE ( 'NONE', *, *, #962, .F. ) ;
#503 = ORIENTED_EDGE ( 'NONE', *, *, #226, .F. ) ;
#504 = APPROVAL_DATE_TIME ( #408, #108 ) ;
#505 = FACE_BOUND ( 'NONE', #1071, .T. ) ;
#506 = FACE_OUTER_BOUND ( 'NONE', #436, .T. ) ;
#507 = EDGE_CURVE ( 'NONE', #892, #48, #183, .T. ) ;
#508 = ORIENTED_EDGE ( 'NONE', *, *, #702, .T. ) ;
#509 = ORIENTED_EDGE ( 'NONE', *, *, #175, .F. ) ;
#510 = COORDINATED_UNIVERSAL_TIME_OFFSET ( 8, 0, .AHEAD. ) ;
#511 = FACE_BOUND ( 'NONE', #1082, .T. ) ;
#512 = ORIENTED_EDGE ( 'NONE', *, *, #467, .F. ) ;
#513 = CARTESIAN_POINT ( 'NONE',  ( -20.00000000000000355, 20.00000000000000000, 65.89999999999987779 ) ) ;
#514 = ADVANCED_FACE ( 'NONE', ( #506 ), #874, .F. ) ;
#515 = CARTESIAN_POINT ( 'NONE',  ( -19.99999999999999645, 2.000000000000000000, -74.09999999999999432 ) ) ;
#516 = ORIENTED_EDGE ( 'NONE', *, *, #88, .F. ) ;
#517 = EDGE_LOOP ( 'NONE', ( #728, #877, #1065, #720 ) ) ;
#518 = DIRECTION ( 'NONE',  ( -0.000000000000000000, -1.000000000000000000, -0.000000000000000000 ) ) ;
#519 = AXIS2_PLACEMENT_3D ( 'NONE', #374, #1138, #96 ) ;
#520 = CYLINDRICAL_SURFACE ( 'NONE', #564, 4.100000000000061817 ) ;
#521 = CARTESIAN_POINT ( 'NONE',  ( -20.00000000000000355, 20.00000000000000000, 74.09999999999999432 ) ) ;
#522 = FACE_OUTER_BOUND ( 'NONE', #157, .T. ) ;
#523 = VERTEX_POINT ( 'NONE', #694 ) ;
#524 = APPLICATION_PROTOCOL_DEFINITION ( 'international standard', 'config_control_design', 1994, #235 ) ;
#525 = ORIENTED_EDGE ( 'NONE', *, *, #1119, .F. ) ;
#526 = EDGE_CURVE ( 'NONE', #75, #560, #1057, .T. ) ;
#527 = ORIENTED_EDGE ( 'NONE', *, *, #1127, .F. ) ;
#528 = DIRECTION ( 'NONE',  ( -0.000000000000000000, -1.000000000000000000, -0.000000000000000000 ) ) ;
#529 = ORIENTED_EDGE ( 'NONE', *, *, #557, .T. ) ;
#530 = ORIENTED_EDGE ( 'NONE', *, *, #231, .F. ) ;
#531 = CARTESIAN_POINT ( 'NONE',  ( 49.99999999999999289, 2.000000000000000000, 50.00000000000000000 ) ) ;
#532 = VERTEX_POINT ( 'NONE', #153 ) ;
#533 = CARTESIAN_POINT ( 'NONE',  ( -20.00000000000000355, 20.00000000000000000, 69.99999999999994316 ) ) ;
#534 = DIRECTION ( 'NONE',  ( 0.000000000000000000, 0.000000000000000000, 1.000000000000000000 ) ) ;
#535 = ORIENTED_EDGE ( 'NONE', *, *, #1016, .F. ) ;
#536 = CARTESIAN_POINT ( 'NONE',  ( 1.224646799147353059E-14, 20.00000000000000000, 99.99999999999998579 ) ) ;
#537 = EDGE_LOOP ( 'NONE', ( #1062, #624 ) ) ;
#538 = ADVANCED_FACE ( 'NONE', ( #770 ), #678, .F. ) ;
#539 = DIRECTION ( 'NONE',  ( 0.000000000000000000, 0.000000000000000000, 1.000000000000000000 ) ) ;
#540 = CIRCLE ( 'NONE', #478, 99.99999999999998579 ) ;
#541 = LOCAL_TIME ( 14, 55, 49.00000000000000000, #1134 ) ;
#542 = CIRCLE ( 'NONE', #795, 5.499999999999998224 ) ;
#543 = CARTESIAN_POINT ( 'NONE',  ( -50.00000000000000711, 20.00000000000000000, 50.00000000000000000 ) ) ;
#544 = DIRECTION ( 'NONE',  ( -0.000000000000000000, -1.000000000000000000, -0.000000000000000000 ) ) ;
#545 = CIRCLE ( 'NONE', #693, 4.099999999999999645 ) ;
#546 = DIRECTION ( 'NONE',  ( 0.000000000000000000, 1.000000000000000000, -0.000000000000000000 ) ) ;
#547 = ORIENTED_EDGE ( 'NONE', *, *, #732, .T. ) ;
#548 = LINE ( 'NONE', #357, #1153 ) ;
#549 = CYLINDRICAL_SURFACE ( 'NONE', #121, 4.100000000000027178 ) ;
#550 = CARTESIAN_POINT ( 'NONE',  ( 20.00000000000000355, 20.00000000000000000, -65.89999999999999147 ) ) ;
#551 = DIRECTION ( 'NONE',  ( -0.000000000000000000, -1.000000000000000000, -0.000000000000000000 ) ) ;
#552 = DIRECTION ( 'NONE',  ( 0.000000000000000000, 1.000000000000000000, -0.000000000000000000 ) ) ;
#553 = ORIENTED_EDGE ( 'NONE', *, *, #717, .F. ) ;
#554 = DIRECTION ( 'NONE',  ( -0.000000000000000000, -1.000000000000000000, 0.000000000000000000 ) ) ;
#555 = DIRECTION ( 'NONE',  ( 0.000000000000000000, 0.000000000000000000, 1.000000000000000000 ) ) ;
#556 = CARTESIAN_POINT ( 'NONE',  ( -50.00000000000000711, 20.00000000000000000, 50.00000000000000000 ) ) ;
#557 = EDGE_CURVE ( 'NONE', #418, #11, #161, .T. ) ;
#558 = CARTESIAN_POINT ( 'NONE',  ( 19.99999999999996092, 2.000000000000000000, 69.99999999999997158 ) ) ;
#559 = ORIENTED_EDGE ( 'NONE', *, *, #274, .T. ) ;
#560 = VERTEX_POINT ( 'NONE', #983 ) ;
#561 = CIRCLE ( 'NONE', #101, 99.99999999999998579 ) ;
#562 = DIRECTION ( 'NONE',  ( 0.000000000000000000, 1.000000000000000000, -0.000000000000000000 ) ) ;
#563 = DIRECTION ( 'NONE',  ( 0.000000000000000000, -1.000000000000000000, 0.000000000000000000 ) ) ;
#564 = AXIS2_PLACEMENT_3D ( 'NONE', #317, #1157, #332 ) ;
#565 = CARTESIAN_POINT ( 'NONE',  ( -19.99999999999999645, 20.00000000000000000, -69.99999999999998579 ) ) ;
#566 = VECTOR ( 'NONE', #279, 1000.000000000000114 ) ;
#567 = ORIENTED_EDGE ( 'NONE', *, *, #58, .F. ) ;
#568 = EDGE_CURVE ( 'NONE', #311, #265, #548, .T. ) ;
#569 = ORIENTED_EDGE ( 'NONE', *, *, #893, .F. ) ;
#570 = DIRECTION ( 'NONE',  ( 0.000000000000000000, 0.000000000000000000, 1.000000000000000000 ) ) ;
#571 = DIRECTION ( 'NONE',  ( 0.000000000000000000, 1.000000000000000000, -0.000000000000000000 ) ) ;
#572 = CARTESIAN_POINT ( 'NONE',  ( 0.000000000000000000, 20.00000000000000000, 0.000000000000000000 ) ) ;
#573 = DIRECTION ( 'NONE',  ( 0.000000000000000000, 1.000000000000000000, -0.000000000000000000 ) ) ;
#574 = LINE ( 'NONE', #309, #345 ) ;
#575 = VERTEX_POINT ( 'NONE', #1165 ) ;
#576 = EDGE_CURVE ( 'NONE', #585, #1059, #715, .T. ) ;
#577 = ORIENTED_EDGE ( 'NONE', *, *, #788, .F. ) ;
#578 = LINE ( 'NONE', #929, #293 ) ;
#579 = VECTOR ( 'NONE', #731, 1000.000000000000000 ) ;
#580 = DIRECTION ( 'NONE',  ( -0.000000000000000000, -1.000000000000000000, -0.000000000000000000 ) ) ;
#581 = CC_DESIGN_PERSON_AND_ORGANIZATION_ASSIGNMENT ( #43, #960, ( #392 ) ) ;
#582 = AXIS2_PLACEMENT_3D ( 'NONE', #46, #416, #1147 ) ;
#583 = VECTOR ( 'NONE', #486, 1000.000000000000000 ) ;
#584 = CYLINDRICAL_SURFACE ( 'NONE', #777, 5.500000000000005329 ) ;
#585 = VERTEX_POINT ( 'NONE', #425 ) ;
#586 = EDGE_CURVE ( 'NONE', #894, #9, #431, .T. ) ;
#587 =( LENGTH_UNIT ( ) NAMED_UNIT ( * ) SI_UNIT ( .MILLI., .METRE. ) );
#588 = DIRECTION ( 'NONE',  ( 0.000000000000000000, 1.000000000000000000, -0.000000000000000000 ) ) ;
#589 = EDGE_LOOP ( 'NONE', ( #985, #553, #361, #529 ) ) ;
#590 = ADVANCED_FACE ( 'NONE', ( #447 ), #810, .F. ) ;
#591 = CALENDAR_DATE ( 2026, 3, 9 ) ;
#592 = ORIENTED_EDGE ( 'NONE', *, *, #359, .F. ) ;
#593 = DIRECTION ( 'NONE',  ( 0.000000000000000000, -1.000000000000000000, 0.000000000000000000 ) ) ;
#594 = CARTESIAN_POINT ( 'NONE',  ( 49.99999999999999289, 20.00000000000000000, 50.00000000000000000 ) ) ;
#595 = VERTEX_POINT ( 'NONE', #362 ) ;
#596 = CALENDAR_DATE ( 2026, 3, 9 ) ;
#597 = FACE_BOUND ( 'NONE', #301, .T. ) ;
#598 = CIRCLE ( 'NONE', #376, 4.100000000000006750 ) ;
#599 = APPROVAL_PERSON_ORGANIZATION ( #781, #1124, #689 ) ;
#600 = FACE_BOUND ( 'NONE', #251, .T. ) ;
#601 = VECTOR ( 'NONE', #37, 1000.000000000000000 ) ;
#602 = DIRECTION ( 'NONE',  ( 0.000000000000000000, 1.000000000000000000, -0.000000000000000000 ) ) ;
#603 = EDGE_LOOP ( 'NONE', ( #726, #14 ) ) ;
#604 = ORIENTED_EDGE ( 'NONE', *, *, #670, .T. ) ;
#605 = APPROVAL_STATUS ( 'not_yet_approved' ) ;
#606 = DIRECTION ( 'NONE',  ( 0.000000000000000000, 0.000000000000000000, 1.000000000000000000 ) ) ;
#607 = ORIENTED_EDGE ( 'NONE', *, *, #375, .T. ) ;
#608 = LINE ( 'NONE', #1061, #252 ) ;
#609 = ORIENTED_EDGE ( 'NONE', *, *, #860, .T. ) ;
#610 = ORIENTED_EDGE ( 'NONE', *, *, #398, .T. ) ;
#611 = ORIENTED_EDGE ( 'NONE', *, *, #489, .T. ) ;
#612 = EDGE_CURVE ( 'NONE', #585, #894, #982, .T. ) ;
#613 = CARTESIAN_POINT ( 'NONE',  ( 49.99999999999999289, 20.00000000000000000, -50.00000000000000000 ) ) ;
#614 = LINE ( 'NONE', #682, #179 ) ;
#615 = ORIENTED_EDGE ( 'NONE', *, *, #58, .T. ) ;
#616 = ORIENTED_EDGE ( 'NONE', *, *, #77, .F. ) ;
#617 = AXIS2_PLACEMENT_3D ( 'NONE', #558, #369, #1085 ) ;
#618 = AXIS2_PLACEMENT_3D ( 'NONE', #470, #368, #283 ) ;
#619 = AXIS2_PLACEMENT_3D ( 'NONE', #967, #602, #142 ) ;
#620 = CARTESIAN_POINT ( 'NONE',  ( 69.99999999999997158, 2.000000000000000000, -19.99999999999997513 ) ) ;
#621 = ORIENTED_EDGE ( 'NONE', *, *, #568, .T. ) ;
#622 = EDGE_LOOP ( 'NONE', ( #822, #444, #512, #148 ) ) ;
#623 = DIRECTION ( 'NONE',  ( 0.000000000000000000, 0.000000000000000000, -1.000000000000000000 ) ) ;
#624 = ORIENTED_EDGE ( 'NONE', *, *, #665, .T. ) ;
#625 = DIRECTION ( 'NONE',  ( 0.000000000000000000, 0.000000000000000000, -1.000000000000000000 ) ) ;
#626 = DIRECTION ( 'NONE',  ( 0.000000000000000000, 0.000000000000000000, -1.000000000000000000 ) ) ;
#627 = LINE ( 'NONE', #811, #849 ) ;
#628 = ORIENTED_EDGE ( 'NONE', *, *, #690, .F. ) ;
#629 = EDGE_CURVE ( 'NONE', #329, #973, #454, .T. ) ;
#630 = CARTESIAN_POINT ( 'NONE',  ( 1.224646799147353217E-14, 0.000000000000000000, 100.0000000000000000 ) ) ;
#631 = ORIENTED_EDGE ( 'NONE', *, *, #201, .F. ) ;
#632 = DIRECTION ( 'NONE',  ( 0.000000000000000000, 0.000000000000000000, -1.000000000000000000 ) ) ;
#633 = CARTESIAN_POINT ( 'NONE',  ( 69.99999999999997158, 20.00000000000000000, -19.99999999999997513 ) ) ;
#634 = CARTESIAN_POINT ( 'NONE',  ( -70.00000000000000000, 20.00000000000000000, 15.89999999999997016 ) ) ;
#635 = CARTESIAN_POINT ( 'NONE',  ( 49.99999999999999289, 20.00000000000000000, -55.50000000000000000 ) ) ;
#636 = PRODUCT ( '底座', '底座', '', ( #971 ) ) ;
#637 = DIRECTION ( 'NONE',  ( 0.000000000000000000, 1.000000000000000000, -0.000000000000000000 ) ) ;
#638 = ORIENTED_EDGE ( 'NONE', *, *, #809, .T. ) ;
#639 = AXIS2_PLACEMENT_3D ( 'NONE', #762, #846, #114 ) ;
#640 = CIRCLE ( 'NONE', #120, 5.500000000000005329 ) ;
#641 = FACE_OUTER_BOUND ( 'NONE', #1176, .T. ) ;
#642 = CIRCLE ( 'NONE', #417, 4.100000000000027178 ) ;
#643 = CARTESIAN_POINT ( 'NONE',  ( 49.99999999999999289, 20.00000000000000000, -44.50000000000000711 ) ) ;
#644 = ORIENTED_EDGE ( 'NONE', *, *, #665, .F. ) ;
#645 = FACE_OUTER_BOUND ( 'NONE', #698, .T. ) ;
#646 = ADVANCED_FACE ( 'NONE', ( #645 ), #734, .F. ) ;
#647 = DIRECTION ( 'NONE',  ( 0.000000000000000000, 0.000000000000000000, 1.000000000000000000 ) ) ;
#648 = FACE_OUTER_BOUND ( 'NONE', #733, .T. ) ;
#649 = CARTESIAN_POINT ( 'NONE',  ( -70.00000000000000000, 20.00000000000000000, 19.99999999999998934 ) ) ;
#650 = ORIENTED_EDGE ( 'NONE', *, *, #382, .F. ) ;
#651 = DIRECTION ( 'NONE',  ( 0.000000000000000000, 1.000000000000000000, -0.000000000000000000 ) ) ;
#652 = ORIENTED_EDGE ( 'NONE', *, *, #670, .F. ) ;
#653 = DIRECTION ( 'NONE',  ( 0.000000000000000000, 0.000000000000000000, 1.000000000000000000 ) ) ;
#654 =( NAMED_UNIT ( * ) SI_UNIT ( $, .STERADIAN. ) SOLID_ANGLE_UNIT ( ) );
#655 = VERTEX_POINT ( 'NONE', #437 ) ;
#656 = EDGE_LOOP ( 'NONE', ( #281, #1058 ) ) ;
#657 = VECTOR ( 'NONE', #475, 1000.000000000000000 ) ;
#658 = CC_DESIGN_APPROVAL ( #1124, ( #926 ) ) ;
#659 = AXIS2_PLACEMENT_3D ( 'NONE', #312, #651, #485 ) ;
#660 = CIRCLE ( 'NONE', #676, 4.100000000000006750 ) ;
#661 = EDGE_CURVE ( 'NONE', #57, #459, #642, .T. ) ;
#662 = FACE_OUTER_BOUND ( 'NONE', #165, .T. ) ;
#663 = ORIENTED_EDGE ( 'NONE', *, *, #629, .T. ) ;
#664 = DIRECTION ( 'NONE',  ( -0.000000000000000000, -1.000000000000000000, -0.000000000000000000 ) ) ;
#665 = EDGE_CURVE ( 'NONE', #453, #166, #122, .T. ) ;
#666 = CARTESIAN_POINT ( 'NONE',  ( 1.347111479062088523E-14, 20.00000000000000000, 110.0000000000000000 ) ) ;
#667 = LINE ( 'NONE', #214, #692 ) ;
#668 = FACE_OUTER_BOUND ( 'NONE', #1022, .T. ) ;
#669 = CARTESIAN_POINT ( 'NONE',  ( -50.00000000000000711, 2.000000000000000000, 50.00000000000000000 ) ) ;
#670 = EDGE_CURVE ( 'NONE', #123, #1168, #294, .T. ) ;
#671 = ORIENTED_EDGE ( 'NONE', *, *, #914, .F. ) ;
#672 = CARTESIAN_POINT ( 'NONE',  ( 0.000000000000000000, 0.000000000000000000, 0.000000000000000000 ) ) ;
#673 = AXIS2_PLACEMENT_3D ( 'NONE', #1015, #563, #353 ) ;
#674 = LOCAL_TIME ( 14, 55, 49.00000000000000000, #510 ) ;
#675 = CIRCLE ( 'NONE', #659, 4.100000000000061817 ) ;
#676 = AXIS2_PLACEMENT_3D ( 'NONE', #405, #950, #313 ) ;
#677 = EDGE_CURVE ( 'NONE', #9, #1059, #500, .T. ) ;
#678 = CYLINDRICAL_SURFACE ( 'NONE', #760, 4.100000000000020073 ) ;
#679 = PERSON_AND_ORGANIZATION ( #384, #38 ) ;
#680 = FACE_OUTER_BOUND ( 'NONE', #334, .T. ) ;
#681 = DIRECTION ( 'NONE',  ( -0.000000000000000000, -1.000000000000000000, -0.000000000000000000 ) ) ;
#682 = CARTESIAN_POINT ( 'NONE',  ( 19.99999999999996092, 20.00000000000000000, 65.89999999999997726 ) ) ;
#683 = COORDINATED_UNIVERSAL_TIME_OFFSET ( 8, 0, .AHEAD. ) ;
#684 = ADVANCED_FACE ( 'NONE', ( #1038 ), #584, .F. ) ;
#685 = FACE_BOUND ( 'NONE', #789, .T. ) ;
#686 = DIRECTION ( 'NONE',  ( 0.000000000000000000, 0.000000000000000000, -1.000000000000000000 ) ) ;
#687 = DIRECTION ( 'NONE',  ( -0.000000000000000000, -1.000000000000000000, -0.000000000000000000 ) ) ;
#688 = ORIENTED_EDGE ( 'NONE', *, *, #899, .F. ) ;
#689 = APPROVAL_ROLE ( '' ) ;
#690 = EDGE_CURVE ( 'NONE', #123, #351, #754, .T. ) ;
#691 = CIRCLE ( 'NONE', #639, 5.500000000000005329 ) ;
#692 = VECTOR ( 'NONE', #580, 1000.000000000000000 ) ;
#693 = AXIS2_PLACEMENT_3D ( 'NONE', #712, #705, #413 ) ;
#694 = CARTESIAN_POINT ( 'NONE',  ( 69.99999999999998579, 2.000000000000000000, 15.90000000000000036 ) ) ;
#695 = ORIENTED_EDGE ( 'NONE', *, *, #26, .T. ) ;
#696 = ORIENTED_EDGE ( 'NONE', *, *, #661, .T. ) ;
#697 = ADVANCED_FACE ( 'NONE', ( #18 ), #33, .T. ) ;
#698 = EDGE_LOOP ( 'NONE', ( #710, #129, #427, #230 ) ) ;
#699 = EDGE_CURVE ( 'NONE', #273, #523, #106, .T. ) ;
#700 = DIRECTION ( 'NONE',  ( 0.000000000000000000, 1.000000000000000000, -0.000000000000000000 ) ) ;
#701 = CARTESIAN_POINT ( 'NONE',  ( -19.99999999999999645, 20.00000000000000000, -69.99999999999998579 ) ) ;
#702 = EDGE_CURVE ( 'NONE', #595, #1012, #765, .T. ) ;
#703 = VERTEX_POINT ( 'NONE', #888 ) ;
#704 = EDGE_LOOP ( 'NONE', ( #535, #577, #98, #714 ) ) ;
#705 = DIRECTION ( 'NONE',  ( -0.000000000000000000, -1.000000000000000000, 0.000000000000000000 ) ) ;
#706 = DIRECTION ( 'NONE',  ( 0.000000000000000000, 0.000000000000000000, 1.000000000000000000 ) ) ;
#707 = ADVANCED_FACE ( 'NONE', ( #1047, #505, #865, #1162, #807, #511, #880, #65, #1142, #423, #685, #600, #336 ), #872, .T. ) ;
#708 = DIRECTION ( 'NONE',  ( -0.000000000000000000, -1.000000000000000000, -0.000000000000000000 ) ) ;
#709 = DIRECTION ( 'NONE',  ( 0.000000000000000000, -1.000000000000000000, 0.000000000000000000 ) ) ;
#710 = ORIENTED_EDGE ( 'NONE', *, *, #7, .T. ) ;
#711 = ORIENTED_EDGE ( 'NONE', *, *, #1137, .T. ) ;
#712 = CARTESIAN_POINT ( 'NONE',  ( -70.00000000000000000, 20.00000000000000000, -19.99999999999998934 ) ) ;
#713 = CIRCLE ( 'NONE', #848, 4.100000000000006750 ) ;
#714 = ORIENTED_EDGE ( 'NONE', *, *, #88, .T. ) ;
#715 = LINE ( 'NONE', #913, #1117 ) ;
#716 = AXIS2_PLACEMENT_3D ( 'NONE', #911, #1010, #749 ) ;
#717 = EDGE_CURVE ( 'NONE', #935, #1063, #545, .T. ) ;
#718 = DIRECTION ( 'NONE',  ( 0.000000000000000000, 1.000000000000000000, -0.000000000000000000 ) ) ;
#719 = VERTEX_POINT ( 'NONE', #50 ) ;
#720 = ORIENTED_EDGE ( 'NONE', *, *, #105, .F. ) ;
#721 = CYLINDRICAL_SURFACE ( 'NONE', #1128, 4.100000000000020073 ) ;
#722 = VERTEX_POINT ( 'NONE', #1066 ) ;
#723 = DIRECTION ( 'NONE',  ( -0.000000000000000000, -1.000000000000000000, 0.000000000000000000 ) ) ;
#724 = DIRECTION ( 'NONE',  ( 0.000000000000000000, 1.000000000000000000, -0.000000000000000000 ) ) ;
#725 = CARTESIAN_POINT ( 'NONE',  ( 19.99999999999996092, 20.00000000000000000, 69.99999999999997158 ) ) ;
#726 = ORIENTED_EDGE ( 'NONE', *, *, #557, .F. ) ;
#727 = PLANE ( 'NONE',  #5 ) ;
#728 = ORIENTED_EDGE ( 'NONE', *, *, #732, .F. ) ;
#729 = DIRECTION ( 'NONE',  ( 0.000000000000000000, 0.000000000000000000, -1.000000000000000000 ) ) ;
#730 = CYLINDRICAL_SURFACE ( 'NONE', #1050, 110.0000000000000000 ) ;
#731 = DIRECTION ( 'NONE',  ( -0.000000000000000000, -1.000000000000000000, -0.000000000000000000 ) ) ;
#732 = EDGE_CURVE ( 'NONE', #751, #912, #399, .T. ) ;
#733 = EDGE_LOOP ( 'NONE', ( #868, #367, #882, #989 ) ) ;
#734 = CYLINDRICAL_SURFACE ( 'NONE', #1181, 4.100000000000061817 ) ;
#735 = AXIS2_PLACEMENT_3D ( 'NONE', #140, #944, #125 ) ;
#736 = AXIS2_PLACEMENT_3D ( 'NONE', #1087, #984, #1096 ) ;
#737 = AXIS2_PLACEMENT_3D ( 'NONE', #1101, #1003, #915 ) ;
#738 = DIRECTION ( 'NONE',  ( -0.000000000000000000, -1.000000000000000000, -0.000000000000000000 ) ) ;
#739 = CARTESIAN_POINT ( 'NONE',  ( -70.00000000000000000, 2.000000000000000000, 15.89999999999997016 ) ) ;
#740 = AXIS2_PLACEMENT_3D ( 'NONE', #343, #1076, #623 ) ;
#741 = DIRECTION ( 'NONE',  ( 0.000000000000000000, 0.000000000000000000, -1.000000000000000000 ) ) ;
#742 = EDGE_LOOP ( 'NONE', ( #628, #604, #966, #1060 ) ) ;
#743 = DIRECTION ( 'NONE',  ( 0.000000000000000000, 0.000000000000000000, 1.000000000000000000 ) ) ;
#744 = ADVANCED_FACE ( 'NONE', ( #784 ), #1056, .F. ) ;
#745 = ORIENTED_EDGE ( 'NONE', *, *, #987, .T. ) ;
#746 = CARTESIAN_POINT ( 'NONE',  ( 49.99999999999999289, 2.000000000000000000, -50.00000000000000000 ) ) ;
#747 = CC_DESIGN_PERSON_AND_ORGANIZATION_ASSIGNMENT ( #870, #878, ( #926 ) ) ;
#748 = LINE ( 'NONE', #203, #657 ) ;
#749 = DIRECTION ( 'NONE',  ( 0.000000000000000000, 0.000000000000000000, 1.000000000000000000 ) ) ;
#750 = ORIENTED_EDGE ( 'NONE', *, *, #612, .F. ) ;
#751 = VERTEX_POINT ( 'NONE', #133 ) ;
#752 = DIRECTION ( 'NONE',  ( 0.000000000000000000, 0.000000000000000000, 1.000000000000000000 ) ) ;
#753 = DIRECTION ( 'NONE',  ( 0.000000000000000000, 0.000000000000000000, 1.000000000000000000 ) ) ;
#754 = LINE ( 'NONE', #666, #583 ) ;
#755 = ORIENTED_EDGE ( 'NONE', *, *, #167, .T. ) ;
#756 = VECTOR ( 'NONE', #458, 1000.000000000000000 ) ;
#757 = EDGE_CURVE ( 'NONE', #912, #751, #63, .T. ) ;
#758 = CC_DESIGN_SECURITY_CLASSIFICATION ( #926, ( #1053 ) ) ;
#759 = CIRCLE ( 'NONE', #582, 4.099999999999992539 ) ;
#760 = AXIS2_PLACEMENT_3D ( 'NONE', #72, #1094, #632 ) ;
#761 = DIRECTION ( 'NONE',  ( 0.000000000000000000, 0.000000000000000000, -1.000000000000000000 ) ) ;
#762 = CARTESIAN_POINT ( 'NONE',  ( -50.00000000000000711, 20.00000000000000000, -50.00000000000000000 ) ) ;
#763 = CARTESIAN_POINT ( 'NONE',  ( 19.99999999999996092, 2.000000000000000000, 74.09999999999995168 ) ) ;
#764 = CARTESIAN_POINT ( 'NONE',  ( -50.00000000000000711, 2.000000000000000000, -50.00000000000000000 ) ) ;
#765 = LINE ( 'NONE', #430, #254 ) ;
#766 = CARTESIAN_POINT ( 'NONE',  ( 49.99999999999999289, 2.000000000000000000, -55.50000000000000000 ) ) ;
#767 = FACE_OUTER_BOUND ( 'NONE', #704, .T. ) ;
#768 = DIRECTION ( 'NONE',  ( -0.000000000000000000, -1.000000000000000000, -0.000000000000000000 ) ) ;
#769 = EDGE_CURVE ( 'NONE', #839, #123, #794, .T. ) ;
#770 = FACE_OUTER_BOUND ( 'NONE', #517, .T. ) ;
#771 = CIRCLE ( 'NONE', #924, 5.499999999999998224 ) ;
#772 = APPROVAL_PERSON_ORGANIZATION ( #149, #108, #49 ) ;
#773 = PERSON_AND_ORGANIZATION ( #384, #38 ) ;
#774 = AXIS2_PLACEMENT_3D ( 'NONE', #261, #718, #828 ) ;
#775 = CARTESIAN_POINT ( 'NONE',  ( 49.99999999999999289, 20.00000000000000000, 55.50000000000000000 ) ) ;
#776 = AXIS2_PLACEMENT_3D ( 'NONE', #198, #681, #963 ) ;
#777 = AXIS2_PLACEMENT_3D ( 'NONE', #396, #847, #115 ) ;
#778 = DIRECTION ( 'NONE',  ( 0.000000000000000000, 1.000000000000000000, -0.000000000000000000 ) ) ;
#779 = EDGE_CURVE ( 'NONE', #820, #53, #42, .T. ) ;
#780 = ORIENTED_EDGE ( 'NONE', *, *, #968, .T. ) ;
#781 = PERSON_AND_ORGANIZATION ( #384, #38 ) ;
#782 = FACE_OUTER_BOUND ( 'NONE', #896, .T. ) ;
#783 = ORIENTED_EDGE ( 'NONE', *, *, #1145, .F. ) ;
#784 = FACE_OUTER_BOUND ( 'NONE', #1111, .T. ) ;
#785 = ORIENTED_EDGE ( 'NONE', *, *, #1100, .F. ) ;
#786 = DIRECTION ( 'NONE',  ( 0.000000000000000000, 0.000000000000000000, -1.000000000000000000 ) ) ;
#787 = ORIENTED_EDGE ( 'NONE', *, *, #866, .F. ) ;
#788 = EDGE_CURVE ( 'NONE', #166, #453, #207, .T. ) ;
#789 = EDGE_LOOP ( 'NONE', ( #69, #196 ) ) ;
#790 = PERSON_AND_ORGANIZATION ( #384, #38 ) ;
#791 = VECTOR ( 'NONE', #551, 1000.000000000000000 ) ;
#792 = CIRCLE ( 'NONE', #941, 4.099999999999992539 ) ;
#793 = CIRCLE ( 'NONE', #24, 5.499999999999998224 ) ;
#794 = LINE ( 'NONE', #536, #566 ) ;
#795 = AXIS2_PLACEMENT_3D ( 'NONE', #1037, #948, #858 ) ;
#796 = VERTEX_POINT ( 'NONE', #350 ) ;
#797 = AXIS2_PLACEMENT_3D ( 'NONE', #255, #245, #409 ) ;
#798 = CARTESIAN_POINT ( 'NONE',  ( -50.00000000000000711, 20.00000000000000000, 50.00000000000000000 ) ) ;
#799 = CYLINDRICAL_SURFACE ( 'NONE', #23, 4.100000000000006750 ) ;
#800 = EDGE_LOOP ( 'NONE', ( #190, #863 ) ) ;
#801 = DIRECTION ( 'NONE',  ( 0.000000000000000000, 0.000000000000000000, 1.000000000000000000 ) ) ;
#802 = VERTEX_POINT ( 'NONE', #1091 ) ;
#803 = CARTESIAN_POINT ( 'NONE',  ( 69.99999999999997158, 20.00000000000000000, -19.99999999999997513 ) ) ;
#804 = EDGE_LOOP ( 'NONE', ( #1182, #755, #1161, #525 ) ) ;
#805 = EDGE_LOOP ( 'NONE', ( #349, #965 ) ) ;
#806 = ORIENTED_EDGE ( 'NONE', *, *, #274, .F. ) ;
#807 = FACE_BOUND ( 'NONE', #244, .T. ) ;
#808 = EDGE_LOOP ( 'NONE', ( #74, #328 ) ) ;
#809 = EDGE_CURVE ( 'NONE', #1063, #11, #1192, .T. ) ;
#810 = CYLINDRICAL_SURFACE ( 'NONE', #1023, 4.099999999999999645 ) ;
#811 = CARTESIAN_POINT ( 'NONE',  ( 69.99999999999997158, 20.00000000000000000, -24.10000000000000497 ) ) ;
#812 = ORIENTED_EDGE ( 'NONE', *, *, #310, .F. ) ;
#813 = ORIENTED_EDGE ( 'NONE', *, *, #860, .F. ) ;
#814 = CARTESIAN_POINT ( 'NONE',  ( 49.99999999999999289, 2.000000000000000000, -50.00000000000000000 ) ) ;
#815 = CIRCLE ( 'NONE', #304, 5.499999999999998224 ) ;
#816 = VERTEX_POINT ( 'NONE', #821 ) ;
#817 = CARTESIAN_POINT ( 'NONE',  ( 69.99999999999997158, 2.000000000000000000, -19.99999999999997513 ) ) ;
#818 = AXIS2_PLACEMENT_3D ( 'NONE', #1027, #36, #119 ) ;
#819 = CARTESIAN_POINT ( 'NONE',  ( 0.000000000000000000, 20.00000000000000000, 0.000000000000000000 ) ) ;
#820 = VERTEX_POINT ( 'NONE', #360 ) ;
#821 = CARTESIAN_POINT ( 'NONE',  ( 49.99999999999999289, 2.000000000000000000, 44.50000000000000711 ) ) ;
#822 = ORIENTED_EDGE ( 'NONE', *, *, #779, .T. ) ;
#823 = FACE_OUTER_BOUND ( 'NONE', #903, .T. ) ;
#824 = DIRECTION ( 'NONE',  ( -0.000000000000000000, -1.000000000000000000, -0.000000000000000000 ) ) ;
#825 = CARTESIAN_POINT ( 'NONE',  ( -19.99999999999999645, 20.00000000000000000, -69.99999999999998579 ) ) ;
#826 = CARTESIAN_POINT ( 'NONE',  ( -70.00000000000000000, 20.00000000000000000, -15.89999999999998970 ) ) ;
#827 = EDGE_LOOP ( 'NONE', ( #143, #547 ) ) ;
#828 = DIRECTION ( 'NONE',  ( 0.000000000000000000, 0.000000000000000000, 1.000000000000000000 ) ) ;
#829 = EDGE_CURVE ( 'NONE', #655, #75, #438, .T. ) ;
#830 = EDGE_LOOP ( 'NONE', ( #282, #986, #481, #745 ) ) ;
#831 = AXIS2_PLACEMENT_3D ( 'NONE', #1109, #355, #1005 ) ;
#832 = CARTESIAN_POINT ( 'NONE',  ( 0.000000000000000000, 20.00000000000000000, -99.99999999999998579 ) ) ;
#833 = AXIS2_PLACEMENT_3D ( 'NONE', #543, #528, #1190 ) ;
#834 = CC_DESIGN_DATE_AND_TIME_ASSIGNMENT ( #1152, #330, ( #392 ) ) ;
#835 = CIRCLE ( 'NONE', #346, 100.0000000000000000 ) ;
#836 = FACE_OUTER_BOUND ( 'NONE', #804, .T. ) ;
#837 = EDGE_CURVE ( 'NONE', #311, #1025, #178, .T. ) ;
#838 = CARTESIAN_POINT ( 'NONE',  ( 20.00000000000000355, 20.00000000000000000, -69.99999999999998579 ) ) ;
#839 = VERTEX_POINT ( 'NONE', #988 ) ;
#840 = ADVANCED_FACE ( 'NONE', ( #168 ), #721, .F. ) ;
#841 = VERTEX_POINT ( 'NONE', #189 ) ;
#842 = CARTESIAN_POINT ( 'NONE',  ( 0.000000000000000000, 9.999999999999921840, 0.000000000000000000 ) ) ;
#843 = CARTESIAN_POINT ( 'NONE',  ( 69.99999999999997158, 20.00000000000000000, -19.99999999999997513 ) ) ;
#844 = ADVANCED_FACE ( 'NONE', ( #263, #1188 ), #727, .F. ) ;
#845 = VERTEX_POINT ( 'NONE', #630 ) ;
#846 = DIRECTION ( 'NONE',  ( 0.000000000000000000, 1.000000000000000000, -0.000000000000000000 ) ) ;
#847 = DIRECTION ( 'NONE',  ( -0.000000000000000000, -1.000000000000000000, -0.000000000000000000 ) ) ;
#848 = AXIS2_PLACEMENT_3D ( 'NONE', #90, #724, #381 ) ;
#849 = VECTOR ( 'NONE', #352, 1000.000000000000000 ) ;
#850 = CYLINDRICAL_SURFACE ( 'NONE', #1148, 4.100000000000027178 ) ;
#851 = DIRECTION ( 'NONE',  ( 0.000000000000000000, -0.7071067811865500152, -0.7071067811865451302 ) ) ;
#852 = DIRECTION ( 'NONE',  ( -0.000000000000000000, -1.000000000000000000, -0.000000000000000000 ) ) ;
#853 = EDGE_CURVE ( 'NONE', #802, #816, #815, .T. ) ;
#854 = CARTESIAN_POINT ( 'NONE',  ( 19.99999999999996092, 20.00000000000000000, 65.89999999999997726 ) ) ;
#855 = LINE ( 'NONE', #31, #1019 ) ;
#856 = CARTESIAN_POINT ( 'NONE',  ( -50.00000000000000711, 2.000000000000000000, -44.50000000000000000 ) ) ;
#857 =( NAMED_UNIT ( * ) PLANE_ANGLE_UNIT ( ) SI_UNIT ( $, .RADIAN. ) );
#858 = DIRECTION ( 'NONE',  ( 0.000000000000000000, 0.000000000000000000, 1.000000000000000000 ) ) ;
#859 = CARTESIAN_POINT ( 'NONE',  ( 69.99999999999998579, 20.00000000000000000, 20.00000000000000355 ) ) ;
#860 = EDGE_CURVE ( 'NONE', #1177, #973, #460, .T. ) ;
#861 = AXIS2_PLACEMENT_3D ( 'NONE', #128, #484, #1135 ) ;
#862 = AXIS2_PLACEMENT_3D ( 'NONE', #910, #89, #1102 ) ;
#863 = ORIENTED_EDGE ( 'NONE', *, *, #866, .T. ) ;
#864 = VECTOR ( 'NONE', #109, 1000.000000000000000 ) ;
#865 = FACE_BOUND ( 'NONE', #236, .T. ) ;
#866 = EDGE_CURVE ( 'NONE', #839, #998, #561, .T. ) ;
#867 = CARTESIAN_POINT ( 'NONE',  ( 69.99999999999997158, 2.000000000000000000, -24.10000000000000497 ) ) ;
#868 = ORIENTED_EDGE ( 'NONE', *, *, #371, .F. ) ;
#869 = ORIENTED_EDGE ( 'NONE', *, *, #1044, .T. ) ;
#870 = PERSON_AND_ORGANIZATION ( #384, #38 ) ;
#871 = CARTESIAN_POINT ( 'NONE',  ( -50.00000000000000711, 20.00000000000000000, -44.50000000000000000 ) ) ;
#872 = PLANE ( 'NONE',  #931 ) ;
#873 = ADVANCED_FACE ( 'NONE', ( #452 ), #272, .F. ) ;
#874 = CYLINDRICAL_SURFACE ( 'NONE', #85, 4.100000000000003197 ) ;
#875 = EDGE_CURVE ( 'NONE', #1099, #951, #465, .T. ) ;
#876 = EDGE_LOOP ( 'NONE', ( #260, #473 ) ) ;
#877 = ORIENTED_EDGE ( 'NONE', *, *, #1093, .T. ) ;
#878 = PERSON_AND_ORGANIZATION_ROLE ( 'classification_officer' ) ;
#879 = ADVANCED_BREP_SHAPE_REPRESENTATION ( '底座', ( #1029, #204 ), #379 ) ;
#880 = FACE_BOUND ( 'NONE', #492, .T. ) ;
#881 = CARTESIAN_POINT ( 'NONE',  ( 69.99999999999997158, 20.00000000000000000, -15.89999999999994884 ) ) ;
#882 = ORIENTED_EDGE ( 'NONE', *, *, #933, .T. ) ;
#883 = COORDINATED_UNIVERSAL_TIME_OFFSET ( 8, 0, .AHEAD. ) ;
#884 = ADVANCED_FACE ( 'NONE', ( #6 ), #365, .F. ) ;
#885 = ORIENTED_EDGE ( 'NONE', *, *, #769, .F. ) ;
#886 = AXIS2_PLACEMENT_3D ( 'NONE', #471, #1107, #171 ) ;
#887 = CIRCLE ( 'NONE', #155, 4.100000000000027178 ) ;
#888 = CARTESIAN_POINT ( 'NONE',  ( 20.00000000000000355, 2.000000000000000000, -65.89999999999999147 ) ) ;
#889 = DIRECTION ( 'NONE',  ( 0.000000000000000000, 0.000000000000000000, 1.000000000000000000 ) ) ;
#890 = CYLINDRICAL_SURFACE ( 'NONE', #292, 5.499999999999998224 ) ;
#891 = EDGE_LOOP ( 'NONE', ( #1159, #978 ) ) ;
#892 = VERTEX_POINT ( 'NONE', #76 ) ;
#893 = EDGE_CURVE ( 'NONE', #333, #951, #771, .T. ) ;
#894 = VERTEX_POINT ( 'NONE', #84 ) ;
#895 = CARTESIAN_POINT ( 'NONE',  ( 69.99999999999997158, 2.000000000000000000, -15.89999999999994884 ) ) ;
#896 = EDGE_LOOP ( 'NONE', ( #103, #970, #131, #503 ) ) ;
#897 = ORIENTED_EDGE ( 'NONE', *, *, #987, .F. ) ;
#898 = DIRECTION ( 'NONE',  ( 0.000000000000000000, 0.000000000000000000, -1.000000000000000000 ) ) ;
#899 = EDGE_CURVE ( 'NONE', #287, #523, #4, .T. ) ;
#900 = DIRECTION ( 'NONE',  ( -0.000000000000000000, -1.000000000000000000, -0.000000000000000000 ) ) ;
#901 = DIRECTION ( 'NONE',  ( 0.000000000000000000, 0.000000000000000000, 1.000000000000000000 ) ) ;
#902 = FACE_OUTER_BOUND ( 'NONE', #919, .T. ) ;
#903 = EDGE_LOOP ( 'NONE', ( #644, #1173, #696, #616 ) ) ;
#904 = DIRECTION ( 'NONE',  ( 0.000000000000000000, 0.000000000000000000, 1.000000000000000000 ) ) ;
#905 = VECTOR ( 'NONE', #44, 1000.000000000000000 ) ;
#906 = ORIENTED_EDGE ( 'NONE', *, *, #1137, .F. ) ;
#907 = DIRECTION ( 'NONE',  ( 0.000000000000000000, 0.000000000000000000, 1.000000000000000000 ) ) ;
#908 = VECTOR ( 'NONE', #176, 1000.000000000000000 ) ;
#909 = ADVANCED_FACE ( 'NONE', ( #917 ), #456, .F. ) ;
#910 = CARTESIAN_POINT ( 'NONE',  ( 20.00000000000000355, 20.00000000000000000, -69.99999999999998579 ) ) ;
#911 = CARTESIAN_POINT ( 'NONE',  ( 20.00000000000000355, 20.00000000000000000, -69.99999999999998579 ) ) ;
#912 = VERTEX_POINT ( 'NONE', #262 ) ;
#913 = CARTESIAN_POINT ( 'NONE',  ( -19.99999999999999645, 20.00000000000000000, -65.89999999999999147 ) ) ;
#914 = EDGE_CURVE ( 'NONE', #1168, #123, #269, .T. ) ;
#915 = DIRECTION ( 'NONE',  ( 0.000000000000000000, 0.000000000000000000, -1.000000000000000000 ) ) ;
#916 = CYLINDRICAL_SURFACE ( 'NONE', #862, 4.100000000000006750 ) ;
#917 = FACE_OUTER_BOUND ( 'NONE', #1169, .T. ) ;
#918 = DIRECTION ( 'NONE',  ( 0.000000000000000000, 1.000000000000000000, -0.000000000000000000 ) ) ;
#919 = EDGE_LOOP ( 'NONE', ( #611, #508, #1163, #47 ) ) ;
#920 = CARTESIAN_POINT ( 'NONE',  ( -50.00000000000000711, 2.000000000000000000, -55.50000000000000711 ) ) ;
#921 = EDGE_CURVE ( 'NONE', #1158, #107, #56, .T. ) ;
#922 = DIRECTION ( 'NONE',  ( -0.000000000000000000, -1.000000000000000000, -0.000000000000000000 ) ) ;
#923 = ORIENTED_EDGE ( 'NONE', *, *, #211, .T. ) ;
#924 = AXIS2_PLACEMENT_3D ( 'NONE', #814, #259, #992 ) ;
#925 = LINE ( 'NONE', #832, #464 ) ;
#926 = SECURITY_CLASSIFICATION ( '', '', #54 ) ;
#927 = EDGE_LOOP ( 'NONE', ( #609, #239 ) ) ;
#928 = AXIS2_PLACEMENT_3D ( 'NONE', #859, #55, #955 ) ;
#929 = CARTESIAN_POINT ( 'NONE',  ( -50.00000000000000711, 20.00000000000000000, 44.50000000000000000 ) ) ;
#930 = CARTESIAN_POINT ( 'NONE',  ( 0.000000000000000000, 0.000000000000000000, -100.0000000000000000 ) ) ;
#931 = AXIS2_PLACEMENT_3D ( 'NONE', #141, #1155, #1172 ) ;
#932 = DIRECTION ( 'NONE',  ( -0.000000000000000000, -1.000000000000000000, -0.000000000000000000 ) ) ;
#933 = EDGE_CURVE ( 'NONE', #48, #220, #1186, .T. ) ;
#934 = VERTEX_POINT ( 'NONE', #193 ) ;
#935 = VERTEX_POINT ( 'NONE', #288 ) ;
#936 = CARTESIAN_POINT ( 'NONE',  ( -70.00000000000000000, 2.000000000000000000, 24.10000000000000853 ) ) ;
#937 = CARTESIAN_POINT ( 'NONE',  ( -70.00000000000000000, 20.00000000000000000, 24.10000000000000853 ) ) ;
#938 = DIRECTION ( 'NONE',  ( -0.000000000000000000, -1.000000000000000000, -0.000000000000000000 ) ) ;
#939 = ADVANCED_FACE ( 'NONE', ( #648 ), #462, .F. ) ;
#940 = AXIS2_PLACEMENT_3D ( 'NONE', #450, #277, #284 ) ;
#941 = AXIS2_PLACEMENT_3D ( 'NONE', #199, #562, #653 ) ;
#942 = CIRCLE ( 'NONE', #961, 5.499999999999998224 ) ;
#943 = DIRECTION ( 'NONE',  ( 0.000000000000000000, 0.000000000000000000, -1.000000000000000000 ) ) ;
#944 = DIRECTION ( 'NONE',  ( 0.000000000000000000, 1.000000000000000000, -0.000000000000000000 ) ) ;
#945 = ORIENTED_EDGE ( 'NONE', *, *, #576, .F. ) ;
#946 = CARTESIAN_POINT ( 'NONE',  ( 20.00000000000000355, 2.000000000000000000, -69.99999999999998579 ) ) ;
#947 = ORIENTED_EDGE ( 'NONE', *, *, #321, .T. ) ;
#948 = DIRECTION ( 'NONE',  ( 0.000000000000000000, 1.000000000000000000, -0.000000000000000000 ) ) ;
#949 = ADVANCED_FACE ( 'NONE', ( #902 ), #1088, .F. ) ;
#950 = DIRECTION ( 'NONE',  ( 0.000000000000000000, 1.000000000000000000, -0.000000000000000000 ) ) ;
#951 = VERTEX_POINT ( 'NONE', #1112 ) ;
#952 = DATE_AND_TIME ( #221, #541 ) ;
#953 = FACE_BOUND ( 'NONE', #1156, .T. ) ;
#954 = EDGE_CURVE ( 'NONE', #532, #333, #442, .T. ) ;
#955 = DIRECTION ( 'NONE',  ( 0.000000000000000000, 0.000000000000000000, 1.000000000000000000 ) ) ;
#956 = AXIS2_PLACEMENT_3D ( 'NONE', #27, #573, #387 ) ;
#957 = CIRCLE ( 'NONE', #1131, 4.099999999999992539 ) ;
#958 = DIRECTION ( 'NONE',  ( -0.000000000000000000, -1.000000000000000000, -0.000000000000000000 ) ) ;
#959 = ORIENTED_EDGE ( 'NONE', *, *, #1164, .F. ) ;
#960 = PERSON_AND_ORGANIZATION_ROLE ( 'creator' ) ;
#961 = AXIS2_PLACEMENT_3D ( 'NONE', #1129, #700, #228 ) ;
#962 = EDGE_CURVE ( 'NONE', #1059, #9, #713, .T. ) ;
#963 = DIRECTION ( 'NONE',  ( 0.000000000000000000, 0.000000000000000000, -1.000000000000000000 ) ) ;
#964 = CARTESIAN_POINT ( 'NONE',  ( 0.000000000000000000, 20.00000000000000000, 0.000000000000000000 ) ) ;
#965 = ORIENTED_EDGE ( 'NONE', *, *, #962, .T. ) ;
#966 = ORIENTED_EDGE ( 'NONE', *, *, #1000, .T. ) ;
#967 = CARTESIAN_POINT ( 'NONE',  ( 0.000000000000000000, 2.000000000000000000, 0.000000000000000000 ) ) ;
#968 = EDGE_CURVE ( 'NONE', #719, #802, #1046, .T. ) ;
#969 = LINE ( 'NONE', #521, #61 ) ;
#970 = ORIENTED_EDGE ( 'NONE', *, *, #359, .T. ) ;
#971 = MECHANICAL_CONTEXT ( 'NONE', #186, 'mechanical' ) ;
#972 = ORIENTED_EDGE ( 'NONE', *, *, #837, .T. ) ;
#973 = VERTEX_POINT ( 'NONE', #763 ) ;
#974 = DIRECTION ( 'NONE',  ( -0.000000000000000000, -1.000000000000000000, -0.000000000000000000 ) ) ;
#975 = ADVANCED_FACE ( 'NONE', ( #299, #1166, #953, #426, #493, #1122, #218, #479, #403, #67, #315, #597, #668 ), #394, .F. ) ;
#976 = DIRECTION ( 'NONE',  ( -0.000000000000000000, -1.000000000000000000, -0.000000000000000000 ) ) ;
#977 = EDGE_LOOP ( 'NONE', ( #126, #750 ) ) ;
#978 = ORIENTED_EDGE ( 'NONE', *, *, #457, .T. ) ;
#979 = CIRCLE ( 'NONE', #1020, 100.0000000000000000 ) ;
#980 = CONICAL_SURFACE ( 'NONE', #227, 99.99999999999998579, 0.7853981633974447263 ) ;
#981 = AXIS2_PLACEMENT_3D ( 'NONE', #746, #12, #1167 ) ;
#982 = CIRCLE ( 'NONE', #25, 4.100000000000006750 ) ;
#983 = CARTESIAN_POINT ( 'NONE',  ( -20.00000000000000355, 2.000000000000000000, 65.89999999999987779 ) ) ;
#984 = DIRECTION ( 'NONE',  ( -0.000000000000000000, -1.000000000000000000, -0.000000000000000000 ) ) ;
#985 = ORIENTED_EDGE ( 'NONE', *, *, #809, .F. ) ;
#986 = ORIENTED_EDGE ( 'NONE', *, *, #757, .F. ) ;
#987 = EDGE_CURVE ( 'NONE', #107, #1158, #476, .T. ) ;
#988 = CARTESIAN_POINT ( 'NONE',  ( 1.285879139104720791E-14, 20.00000000000000000, 99.99999999999998579 ) ) ;
#989 = ORIENTED_EDGE ( 'NONE', *, *, #318, .F. ) ;
#990 = FACE_OUTER_BOUND ( 'NONE', #217, .T. ) ;
#991 = ORIENTED_EDGE ( 'NONE', *, *, #677, .F. ) ;
#992 = DIRECTION ( 'NONE',  ( 0.000000000000000000, 0.000000000000000000, 1.000000000000000000 ) ) ;
#993 = ORIENTED_EDGE ( 'NONE', *, *, #837, .F. ) ;
#994 = DIRECTION ( 'NONE',  ( -0.000000000000000000, -1.000000000000000000, -0.000000000000000000 ) ) ;
#995 = CARTESIAN_POINT ( 'NONE',  ( -20.00000000000000355, 20.00000000000000000, 65.89999999999987779 ) ) ;
#996 = DIRECTION ( 'NONE',  ( 0.000000000000000000, 1.000000000000000000, -0.000000000000000000 ) ) ;
#997 = AXIS2_PLACEMENT_3D ( 'NONE', #842, #100, #752 ) ;
#998 = VERTEX_POINT ( 'NONE', #339 ) ;
#999 = CIRCLE ( 'NONE', #495, 4.100000000000061817 ) ;
#1000 = EDGE_CURVE ( 'NONE', #1168, #331, #574, .T. ) ;
#1001 = CC_DESIGN_APPROVAL ( #17, ( #392 ) ) ;
#1002 = CIRCLE ( 'NONE', #480, 5.500000000000005329 ) ;
#1003 = DIRECTION ( 'NONE',  ( -0.000000000000000000, -1.000000000000000000, -0.000000000000000000 ) ) ;
#1004 = CARTESIAN_POINT ( 'NONE',  ( 0.000000000000000000, 2.000000000000000000, -100.0000000000000000 ) ) ;
#1005 = DIRECTION ( 'NONE',  ( 0.000000000000000000, 0.000000000000000000, 1.000000000000000000 ) ) ;
#1006 = EDGE_LOOP ( 'NONE', ( #172, #1052, #695, #1078 ) ) ;
#1007 = CARTESIAN_POINT ( 'NONE',  ( -19.99999999999999645, 20.00000000000000000, -69.99999999999998579 ) ) ;
#1008 = CARTESIAN_POINT ( 'NONE',  ( 0.000000000000000000, 0.000000000000000000, 0.000000000000000000 ) ) ;
#1009 = DIRECTION ( 'NONE',  ( 0.000000000000000000, -1.000000000000000000, 0.000000000000000000 ) ) ;
#1010 = DIRECTION ( 'NONE',  ( 0.000000000000000000, 1.000000000000000000, -0.000000000000000000 ) ) ;
#1011 = ORIENTED_EDGE ( 'NONE', *, *, #893, .T. ) ;
#1012 = VERTEX_POINT ( 'NONE', #1126 ) ;
#1013 = CYLINDRICAL_SURFACE ( 'NONE', #776, 5.499999999999998224 ) ;
#1014 = CARTESIAN_POINT ( 'NONE',  ( 49.99999999999999289, 20.00000000000000000, 44.50000000000000711 ) ) ;
#1015 = CARTESIAN_POINT ( 'NONE',  ( 0.000000000000000000, 2.000000000000000000, 0.000000000000000000 ) ) ;
#1016 = EDGE_CURVE ( 'NONE', #453, #57, #855, .T. ) ;
#1017 = FACE_OUTER_BOUND ( 'NONE', #162, .T. ) ;
#1018 = ORIENTED_EDGE ( 'NONE', *, *, #278, .F. ) ;
#1019 = VECTOR ( 'NONE', #213, 1000.000000000000000 ) ;
#1020 = AXIS2_PLACEMENT_3D ( 'NONE', #298, #1120, #21 ) ;
#1021 = CIRCLE ( 'NONE', #928, 4.100000000000003197 ) ;
#1022 = EDGE_LOOP ( 'NONE', ( #959, #429 ) ) ;
#1023 = AXIS2_PLACEMENT_3D ( 'NONE', #1174, #1080, #625 ) ;
#1024 = DIRECTION ( 'NONE',  ( 0.000000000000000000, 0.000000000000000000, 1.000000000000000000 ) ) ;
#1025 = VERTEX_POINT ( 'NONE', #388 ) ;
#1026 = DESIGN_CONTEXT ( 'detailed design', #235, 'design' ) ;
#1027 = CARTESIAN_POINT ( 'NONE',  ( 69.99999999999998579, 2.000000000000000000, 20.00000000000000355 ) ) ;
#1028 = DIRECTION ( 'NONE',  ( 0.000000000000000000, 0.000000000000000000, -1.000000000000000000 ) ) ;
#1029 = MANIFOLD_SOLID_BREP ( '倒角1', #1074 ) ;
#1030 = DIRECTION ( 'NONE',  ( 0.000000000000000000, -1.000000000000000000, 0.000000000000000000 ) ) ;
#1031 = DIRECTION ( 'NONE',  ( 0.000000000000000000, 0.000000000000000000, 1.000000000000000000 ) ) ;
#1032 = ADVANCED_FACE ( 'NONE', ( #680 ), #258, .F. ) ;
#1033 = AXIS2_PLACEMENT_3D ( 'NONE', #266, #554, #185 ) ;
#1034 = ORIENTED_EDGE ( 'NONE', *, *, #690, .T. ) ;
#1035 = AXIS2_PLACEMENT_3D ( 'NONE', #182, #552, #13 ) ;
#1036 = CARTESIAN_POINT ( 'NONE',  ( 49.99999999999999289, 20.00000000000000000, 50.00000000000000000 ) ) ;
#1037 = CARTESIAN_POINT ( 'NONE',  ( 49.99999999999999289, 20.00000000000000000, -50.00000000000000000 ) ) ;
#1038 = FACE_OUTER_BOUND ( 'NONE', #1084, .T. ) ;
#1039 = DIRECTION ( 'NONE',  ( -0.000000000000000000, -1.000000000000000000, 0.000000000000000000 ) ) ;
#1040 = EDGE_CURVE ( 'NONE', #331, #351, #8, .T. ) ;
#1041 = PERSON_AND_ORGANIZATION ( #384, #38 ) ;
#1042 = CARTESIAN_POINT ( 'NONE',  ( -70.00000000000000000, 2.000000000000000000, -19.99999999999998934 ) ) ;
#1043 = CARTESIAN_POINT ( 'NONE',  ( -70.00000000000000000, 2.000000000000000000, -15.89999999999998970 ) ) ;
#1044 = EDGE_CURVE ( 'NONE', #894, #585, #154, .T. ) ;
#1045 = APPROVAL_STATUS ( 'not_yet_approved' ) ;
#1046 = LINE ( 'NONE', #775, #905 ) ;
#1047 = FACE_OUTER_BOUND ( 'NONE', #800, .T. ) ;
#1048 = DIRECTION ( 'NONE',  ( 0.000000000000000000, 0.000000000000000000, 1.000000000000000000 ) ) ;
#1049 = VECTOR ( 'NONE', #664, 1000.000000000000000 ) ;
#1050 = AXIS2_PLACEMENT_3D ( 'NONE', #819, #1069, #347 ) ;
#1051 = DIRECTION ( 'NONE',  ( 0.000000000000000000, 0.000000000000000000, -1.000000000000000000 ) ) ;
#1052 = ORIENTED_EDGE ( 'NONE', *, *, #35, .T. ) ;
#1053 = PRODUCT_DEFINITION_FORMATION_WITH_SPECIFIED_SOURCE ( '任何', '', #636, .NOT_KNOWN. ) ;
#1054 = APPROVAL_DATE_TIME ( #314, #1124 ) ;
#1055 = AXIS2_PLACEMENT_3D ( 'NONE', #572, #938, #295 ) ;
#1056 = CYLINDRICAL_SURFACE ( 'NONE', #740, 100.0000000000000000 ) ;
#1057 = LINE ( 'NONE', #513, #327 ) ;
#1058 = ORIENTED_EDGE ( 'NONE', *, *, #201, .T. ) ;
#1059 = VERTEX_POINT ( 'NONE', #483 ) ;
#1060 = ORIENTED_EDGE ( 'NONE', *, *, #1040, .T. ) ;
#1061 = CARTESIAN_POINT ( 'NONE',  ( 1.224646799147353217E-14, 2.000000000000000000, 100.0000000000000000 ) ) ;
#1062 = ORIENTED_EDGE ( 'NONE', *, *, #788, .T. ) ;
#1063 = VERTEX_POINT ( 'NONE', #111 ) ;
#1064 = CALENDAR_DATE ( 2026, 3, 9 ) ;
#1065 = ORIENTED_EDGE ( 'NONE', *, *, #921, .T. ) ;
#1066 = CARTESIAN_POINT ( 'NONE',  ( 49.99999999999999289, 20.00000000000000000, 44.50000000000000711 ) ) ;
#1067 = EDGE_LOOP ( 'NONE', ( #424, #421 ) ) ;
#1068 = CARTESIAN_POINT ( 'NONE',  ( -19.99999999999999645, 2.000000000000000000, -69.99999999999998579 ) ) ;
#1069 = DIRECTION ( 'NONE',  ( -0.000000000000000000, -1.000000000000000000, -0.000000000000000000 ) ) ;
#1070 = ORIENTED_EDGE ( 'NONE', *, *, #1119, .T. ) ;
#1071 = EDGE_LOOP ( 'NONE', ( #341, #711 ) ) ;
#1072 = VECTOR ( 'NONE', #1009, 1000.000000000000000 ) ;
#1073 = APPROVAL_PERSON_ORGANIZATION ( #790, #17, #60 ) ;
#1074 = CLOSED_SHELL ( 'NONE', ( #1083, #744, #117, #590, #909, #873, #1032, #949, #337, #20, #884, #241, #248, #646, #538, #840, #404, #297, #1123, #194, #1104, #29, #71, #684, #482, #514, #64, #697, #707, #844, #939, #975, #32 ) ) ;
#1075 = CC_DESIGN_DATE_AND_TIME_ASSIGNMENT ( #952, #132, ( #926 ) ) ;
#1076 = DIRECTION ( 'NONE',  ( 0.000000000000000000, -1.000000000000000000, 0.000000000000000000 ) ) ;
#1077 = AXIS2_PLACEMENT_3D ( 'NONE', #1042, #1039, #219 ) ;
#1078 = ORIENTED_EDGE ( 'NONE', *, *, #448, .F. ) ;
#1079 = AXIS2_PLACEMENT_3D ( 'NONE', #498, #232, #606 ) ;
#1080 = DIRECTION ( 'NONE',  ( -0.000000000000000000, -1.000000000000000000, -0.000000000000000000 ) ) ;
#1081 = DIRECTION ( 'NONE',  ( 0.000000000000000000, 0.000000000000000000, 1.000000000000000000 ) ) ;
#1082 = EDGE_LOOP ( 'NONE', ( #469, #785 ) ) ;
#1083 = ADVANCED_FACE ( 'NONE', ( #662 ), #22, .T. ) ;
#1084 = EDGE_LOOP ( 'NONE', ( #428, #972, #615, #631 ) ) ;
#1085 = DIRECTION ( 'NONE',  ( 0.000000000000000000, 0.000000000000000000, 1.000000000000000000 ) ) ;
#1086 = VERTEX_POINT ( 'NONE', #854 ) ;
#1087 = CARTESIAN_POINT ( 'NONE',  ( -70.00000000000000000, 20.00000000000000000, -19.99999999999998934 ) ) ;
#1088 = CYLINDRICAL_SURFACE ( 'NONE', #202, 5.500000000000005329 ) ;
#1089 = ORIENTED_EDGE ( 'NONE', *, *, #1090, .T. ) ;
#1090 = EDGE_CURVE ( 'NONE', #934, #273, #748, .T. ) ;
#1091 = CARTESIAN_POINT ( 'NONE',  ( 49.99999999999999289, 2.000000000000000000, 55.50000000000000000 ) ) ;
#1092 = ORIENTED_EDGE ( 'NONE', *, *, #1090, .F. ) ;
#1093 = EDGE_CURVE ( 'NONE', #751, #1158, #1121, .T. ) ;
#1094 = DIRECTION ( 'NONE',  ( -0.000000000000000000, -1.000000000000000000, -0.000000000000000000 ) ) ;
#1095 = FACE_OUTER_BOUND ( 'NONE', #487, .T. ) ;
#1096 = DIRECTION ( 'NONE',  ( 0.000000000000000000, 0.000000000000000000, -1.000000000000000000 ) ) ;
#1097 = CARTESIAN_POINT ( 'NONE',  ( 0.000000000000000000, 20.00000000000000000, 0.000000000000000000 ) ) ;
#1098 = AXIS2_PLACEMENT_3D ( 'NONE', #838, #445, #741 ) ;
#1099 = VERTEX_POINT ( 'NONE', #296 ) ;
#1100 = EDGE_CURVE ( 'NONE', #595, #841, #290, .T. ) ;
#1101 = CARTESIAN_POINT ( 'NONE',  ( 19.99999999999996092, 20.00000000000000000, 69.99999999999997158 ) ) ;
#1102 = DIRECTION ( 'NONE',  ( 0.000000000000000000, 0.000000000000000000, -1.000000000000000000 ) ) ;
#1103 = EDGE_LOOP ( 'NONE', ( #869, #373, #991, #335 ) ) ;
#1104 = ADVANCED_FACE ( 'NONE', ( #1017 ), #118, .F. ) ;
#1105 = ORIENTED_EDGE ( 'NONE', *, *, #457, .F. ) ;
#1106 = LINE ( 'NONE', #1014, #864 ) ;
#1107 = DIRECTION ( 'NONE',  ( -0.000000000000000000, -1.000000000000000000, -0.000000000000000000 ) ) ;
#1108 = DIRECTION ( 'NONE',  ( 0.000000000000000000, 1.000000000000000000, -0.000000000000000000 ) ) ;
#1109 = CARTESIAN_POINT ( 'NONE',  ( 69.99999999999997158, 20.00000000000000000, -19.99999999999997513 ) ) ;
#1110 = ORIENTED_EDGE ( 'NONE', *, *, #289, .F. ) ;
#1111 = EDGE_LOOP ( 'NONE', ( #1116, #253, #650, #234 ) ) ;
#1112 = CARTESIAN_POINT ( 'NONE',  ( 49.99999999999999289, 2.000000000000000000, -44.50000000000000711 ) ) ;
#1113 = DIRECTION ( 'NONE',  ( 0.000000000000000000, 0.000000000000000000, 1.000000000000000000 ) ) ;
#1114 = VECTOR ( 'NONE', #79, 1000.000000000000000 ) ;
#1115 = CIRCLE ( 'NONE', #1077, 4.099999999999999645 ) ;
#1116 = ORIENTED_EDGE ( 'NONE', *, *, #1164, .T. ) ;
#1117 = VECTOR ( 'NONE', #246, 1000.000000000000000 ) ;
#1118 = CARTESIAN_POINT ( 'NONE',  ( 19.99999999999996092, 20.00000000000000000, 74.09999999999995168 ) ) ;
#1119 = EDGE_CURVE ( 'NONE', #703, #575, #598, .T. ) ;
#1120 = DIRECTION ( 'NONE',  ( 0.000000000000000000, 1.000000000000000000, -0.000000000000000000 ) ) ;
#1121 = LINE ( 'NONE', #937, #1049 ) ;
#1122 = FACE_BOUND ( 'NONE', #876, .T. ) ;
#1123 = ADVANCED_FACE ( 'NONE', ( #767 ), #850, .F. ) ;
#1124 = APPROVAL ( #1045, '未指定' ) ;
#1125 = CARTESIAN_POINT ( 'NONE',  ( 69.99999999999998579, 2.000000000000000000, 20.00000000000000355 ) ) ;
#1126 = CARTESIAN_POINT ( 'NONE',  ( -50.00000000000000711, 2.000000000000000000, 55.50000000000000711 ) ) ;
#1127 = EDGE_CURVE ( 'NONE', #1025, #311, #691, .T. ) ;
#1128 = AXIS2_PLACEMENT_3D ( 'NONE', #649, #435, #1180 ) ;
#1129 = CARTESIAN_POINT ( 'NONE',  ( 49.99999999999999289, 20.00000000000000000, 50.00000000000000000 ) ) ;
#1130 = CIRCLE ( 'NONE', #1179, 4.100000000000003197 ) ;
#1131 = AXIS2_PLACEMENT_3D ( 'NONE', #725, #99, #901 ) ;
#1132 = CIRCLE ( 'NONE', #136, 5.500000000000005329 ) ;
#1133 = AXIS2_PLACEMENT_3D ( 'NONE', #613, #51, #686 ) ;
#1134 = COORDINATED_UNIVERSAL_TIME_OFFSET ( 8, 0, .AHEAD. ) ;
#1135 = DIRECTION ( 'NONE',  ( 0.000000000000000000, 0.000000000000000000, 1.000000000000000000 ) ) ;
#1136 = ORIENTED_EDGE ( 'NONE', *, *, #318, .T. ) ;
#1137 = EDGE_CURVE ( 'NONE', #1063, #935, #497, .T. ) ;
#1138 = DIRECTION ( 'NONE',  ( 0.000000000000000000, 1.000000000000000000, -0.000000000000000000 ) ) ;
#1139 = CARTESIAN_POINT ( 'NONE',  ( -20.00000000000000355, 2.000000000000000000, 69.99999999999994316 ) ) ;
#1140 = CARTESIAN_POINT ( 'NONE',  ( -20.00000000000000355, 20.00000000000000000, 69.99999999999994316 ) ) ;
#1141 = COORDINATED_UNIVERSAL_TIME_OFFSET ( 8, 0, .AHEAD. ) ;
#1142 = FACE_BOUND ( 'NONE', #808, .T. ) ;
#1143 = CARTESIAN_POINT ( 'NONE',  ( 1.347111479062088523E-14, 0.000000000000000000, 110.0000000000000000 ) ) ;
#1144 = ORIENTED_EDGE ( 'NONE', *, *, #496, .F. ) ;
#1145 = EDGE_CURVE ( 'NONE', #523, #273, #180, .T. ) ;
#1146 = ORIENTED_EDGE ( 'NONE', *, *, #375, .F. ) ;
#1147 = DIRECTION ( 'NONE',  ( 0.000000000000000000, 0.000000000000000000, 1.000000000000000000 ) ) ;
#1148 = AXIS2_PLACEMENT_3D ( 'NONE', #843, #932, #761 ) ;
#1149 = CIRCLE ( 'NONE', #249, 4.100000000000006750 ) ;
#1150 = ORIENTED_EDGE ( 'NONE', *, *, #496, .T. ) ;
#1151 = ORIENTED_EDGE ( 'NONE', *, *, #127, .T. ) ;
#1152 = DATE_AND_TIME ( #596, #83 ) ;
#1153 = VECTOR ( 'NONE', #994, 1000.000000000000000 ) ;
#1154 = EDGE_CURVE ( 'NONE', #722, #719, #793, .T. ) ;
#1155 = DIRECTION ( 'NONE',  ( 0.000000000000000000, 1.000000000000000000, -0.000000000000000000 ) ) ;
#1156 = EDGE_LOOP ( 'NONE', ( #1011, #370 ) ) ;
#1157 = DIRECTION ( 'NONE',  ( -0.000000000000000000, -1.000000000000000000, -0.000000000000000000 ) ) ;
#1158 = VERTEX_POINT ( 'NONE', #936 ) ;
#1159 = ORIENTED_EDGE ( 'NONE', *, *, #264, .T. ) ;
#1160 = PERSON_AND_ORGANIZATION_ROLE ( 'design_supplier' ) ;
#1161 = ORIENTED_EDGE ( 'NONE', *, *, #422, .T. ) ;
#1162 = FACE_BOUND ( 'NONE', #242, .T. ) ;
#1163 = ORIENTED_EDGE ( 'NONE', *, *, #216, .F. ) ;
#1164 = EDGE_CURVE ( 'NONE', #48, #892, #979, .T. ) ;
#1165 = CARTESIAN_POINT ( 'NONE',  ( 20.00000000000000355, 2.000000000000000000, -74.09999999999999432 ) ) ;
#1166 = FACE_BOUND ( 'NONE', #113, .T. ) ;
#1167 = DIRECTION ( 'NONE',  ( 0.000000000000000000, 0.000000000000000000, 1.000000000000000000 ) ) ;
#1168 = VERTEX_POINT ( 'NONE', #212 ) ;
#1169 = EDGE_LOOP ( 'NONE', ( #112, #1089, #354, #688 ) ) ;
#1170 = ORIENTED_EDGE ( 'NONE', *, *, #921, .F. ) ;
#1171 = PRODUCT_RELATED_PRODUCT_CATEGORY ( 'detail', '', ( #636 ) ) ;
#1172 = DIRECTION ( 'NONE',  ( 0.000000000000000000, 0.000000000000000000, 1.000000000000000000 ) ) ;
#1173 = ORIENTED_EDGE ( 'NONE', *, *, #1016, .T. ) ;
#1174 = CARTESIAN_POINT ( 'NONE',  ( -70.00000000000000000, 20.00000000000000000, -19.99999999999998934 ) ) ;
#1175 = DIRECTION ( 'NONE',  ( -0.000000000000000000, -1.000000000000000000, 0.000000000000000000 ) ) ;
#1176 = EDGE_LOOP ( 'NONE', ( #1193, #257, #947, #1018 ) ) ;
#1177 = VERTEX_POINT ( 'NONE', #477 ) ;
#1178 = AXIS2_PLACEMENT_3D ( 'NONE', #110, #163, #626 ) ;
#1179 = AXIS2_PLACEMENT_3D ( 'NONE', #124, #30, #302 ) ;
#1180 = DIRECTION ( 'NONE',  ( 0.000000000000000000, 0.000000000000000000, -1.000000000000000000 ) ) ;
#1181 = AXIS2_PLACEMENT_3D ( 'NONE', #533, #900, #78 ) ;
#1182 = ORIENTED_EDGE ( 'NONE', *, *, #1184, .F. ) ;
#1183 = DIRECTION ( 'NONE',  ( -0.000000000000000000, -1.000000000000000000, 0.000000000000000000 ) ) ;
#1184 = EDGE_CURVE ( 'NONE', #53, #703, #667, .T. ) ;
#1185 = CYLINDRICAL_SURFACE ( 'NONE', #736, 4.099999999999999645 ) ;
#1186 = LINE ( 'NONE', #200, #1072 ) ;
#1187 = EDGE_LOOP ( 'NONE', ( #516, #174 ) ) ;
#1188 = FACE_OUTER_BOUND ( 'NONE', #411, .T. ) ;
#1189 = ORIENTED_EDGE ( 'NONE', *, *, #467, .T. ) ;
#1190 = DIRECTION ( 'NONE',  ( 0.000000000000000000, 0.000000000000000000, -1.000000000000000000 ) ) ;
#1191 = EDGE_CURVE ( 'NONE', #934, #287, #1130, .T. ) ;
#1192 = LINE ( 'NONE', #826, #579 ) ;
#1193 = ORIENTED_EDGE ( 'NONE', *, *, #702, .F. ) ;
ENDSEC;
END-ISO-10303-21;
